<svg width="101" height="95" viewBox="0 0 101 95" fill="none" xmlns="http://www.w3.org/2000/svg">
<path d="M38.2976 18.6221C38.0889 17.8204 37.2698 17.3397 36.4681 17.5484C35.6664 17.7571 35.1856 18.5761 35.3943 19.3779L38.2976 18.6221ZM44.4234 26.4634L43.7797 27.8183L43.8778 27.8649L43.9816 27.8969L44.4234 26.4634ZM56.4231 20.8103L56.0341 19.3617V19.3617L56.4231 20.8103ZM56.4231 47.7458L54.9375 47.5387L56.4231 47.7458ZM35.3994 75.5426C35.6991 76.3149 36.5681 76.6981 37.3405 76.3984L49.9262 71.5149C50.6986 71.2153 51.0817 70.3462 50.782 69.5739C50.4824 68.8016 49.6133 68.4184 48.841 68.7181L37.6537 73.059L33.3128 61.8716C33.0131 61.0993 32.1441 60.7161 31.3718 61.0158C30.5994 61.3155 30.2163 62.1845 30.516 62.9568L35.3994 75.5426ZM35.3943 19.3779C36.6593 24.2376 40.2726 26.1523 43.7797 27.8183L45.067 25.1086C41.5741 23.4493 39.1868 22.0386 38.2976 18.6221L35.3943 19.3779ZM43.9816 27.8969C47.6486 29.0271 50.8483 29.5017 53.5748 29.5088L53.5826 26.5088C51.1954 26.5026 48.2921 26.0862 44.8652 25.03L43.9816 27.8969ZM53.5748 29.5088C56.8267 29.5172 59.4332 28.8597 61.3404 27.8278C63.2119 26.8153 64.5492 25.3536 64.9101 23.7053C65.0949 22.8615 65.0134 21.9822 64.601 21.1891C64.1907 20.3999 63.5095 19.8039 62.6767 19.4142C61.0508 18.6536 58.7713 18.6265 56.0341 19.3617L56.8122 22.259C59.2232 21.6115 60.6898 21.7968 61.4054 22.1316C61.7433 22.2897 61.8816 22.4621 61.9393 22.573C61.995 22.6801 62.0301 22.8328 61.9795 23.0636C61.8698 23.5646 61.3293 24.4229 59.9129 25.1893C58.5323 25.9362 56.441 26.5162 53.5826 26.5088L53.5748 29.5088ZM56.0341 19.3617C54.0078 19.9059 52.7313 21.1399 52.17 22.8905C51.6585 24.4856 51.7863 26.3762 52.099 28.2551L55.0583 27.7626C54.7602 25.9715 54.7456 24.6831 55.0267 23.8065C55.2579 23.0855 55.7091 22.5552 56.8122 22.259L56.0341 19.3617ZM52.099 28.2551C52.3333 29.6624 52.6958 31.1897 53.0785 32.7523C53.4653 34.3319 53.8749 35.9559 54.2281 37.6275C54.9359 40.978 55.38 44.3636 54.9375 47.5387L57.9088 47.9528C58.4239 44.2567 57.8933 40.463 57.1633 37.0074C56.7975 35.276 56.3724 33.5903 55.9924 32.0386C55.6082 30.47 55.2717 29.0444 55.0583 27.7626L52.099 28.2551ZM54.9375 47.5387C54.2879 52.1999 51.0548 55.7765 46.9293 59.8712C42.9149 63.8557 38.1273 68.2668 35.4253 74.3949L38.1704 75.6052C40.594 70.1082 44.8902 66.1219 49.0427 62.0005C53.084 57.9892 57.1007 53.7512 57.9088 47.9528L54.9375 47.5387Z" fill="#E15544"/>
</svg>
