<svg width="80" height="54" viewBox="0 0 80 54" fill="none" xmlns="http://www.w3.org/2000/svg">
<g clip-path="url(#clip0_1305_6177)">
<mask id="path-1-outside-1_1305_6177" maskUnits="userSpaceOnUse" x="3" y="8.22727" width="75" height="34" fill="black">
<rect fill="white" x="3" y="8.22727" width="75" height="34"/>
<path d="M12.7118 38.4037V36.992V35.5802H14.1235H15.5353V36.992V38.4037H14.1235H12.7118ZM9.88824 35.5802V34.1684V32.7567H11.3H12.7118V34.1684V35.5802H11.3H9.88824ZM7.06471 32.7567V31.3449V29.9332H8.47647H9.88824V31.3449V32.7567H8.47647H7.06471ZM4.24118 29.9332V28.5214V27.1096H5.65294H7.06471V28.5214V29.9332H5.65294H4.24118ZM7.06471 27.1096V25.6979V24.2861H8.47647H9.88824V25.6979V27.1096H8.47647H7.06471ZM9.88824 24.2861V22.8743V21.4626H11.3H12.7118V22.8743V24.2861H11.3H9.88824ZM12.7118 21.4626V20.0508V18.639H14.1235H15.5353V20.0508V21.4626H14.1235H12.7118ZM25.0107 41.2273V39.8155V38.4037V36.992V35.5802V34.1684V32.7567V31.3449V29.9332V28.5214V27.1096V25.6979V24.2861V22.8743V21.4626V20.0508V18.639V17.2273V15.8155V14.4037V12.992V11.5802V10.1684H26.4224H27.8342H29.246H30.6577H32.0695H33.4813H34.893H36.3048V11.5802V12.992H34.893H33.4813H32.0695H30.6577H29.246H27.8342V14.4037V15.8155V17.2273V18.639V20.0508V21.4626V22.8743V24.2861V25.6979V27.1096H29.246H30.6577H32.0695H33.4813H34.893H36.3048V28.5214V29.9332H34.893V31.3449V32.7567H36.3048V34.1684V35.5802H37.7165V36.992V38.4037H39.1283V39.8155V41.2273H37.7165H36.3048V39.8155V38.4037H34.893V36.992V35.5802H33.4813V34.1684V32.7567H32.0695V31.3449V29.9332H30.6577H29.246H27.8342V31.3449V32.7567V34.1684V35.5802V36.992V38.4037V39.8155V41.2273H26.4224H25.0107ZM36.3048 27.1096V25.6979V24.2861V22.8743V21.4626V20.0508V18.639V17.2273V15.8155V14.4037V12.992H37.7165H39.1283V14.4037V15.8155V17.2273V18.639V20.0508V21.4626V22.8743V24.2861V25.6979V27.1096H37.7165H36.3048ZM45.7857 41.2273V39.8155V38.4037V36.992V35.5802V34.1684V32.7567V31.3449V29.9332V28.5214V27.1096V25.6979V24.2861V22.8743V21.4626V20.0508V18.639V17.2273V15.8155V14.4037V12.992V11.5802V10.1684H47.1974H48.6092V11.5802V12.992V14.4037V15.8155V17.2273V18.639V20.0508V21.4626V22.8743V24.2861V25.6979V27.1096V28.5214V29.9332V31.3449V32.7567V34.1684V35.5802V36.992V38.4037H50.021H51.4327H52.8445H54.2562H55.668H57.0798V39.8155V41.2273H55.668H54.2562H52.8445H51.4327H50.021H48.6092H47.1974H45.7857ZM65.1131 38.4037V36.992V35.5802H66.5248H67.9366V36.992V38.4037H66.5248H65.1131ZM67.9366 35.5802V34.1684V32.7567H69.3483H70.7601V34.1684V35.5802H69.3483H67.9366ZM70.7601 32.7567V31.3449V29.9332H72.1719H73.5836V31.3449V32.7567H72.1719H70.7601ZM73.5836 29.9332V28.5214V27.1096H74.9954H76.4072V28.5214V29.9332H74.9954H73.5836ZM70.7601 27.1096V25.6979V24.2861H72.1719H73.5836V25.6979V27.1096H72.1719H70.7601ZM67.9366 24.2861V22.8743V21.4626H69.3483H70.7601V22.8743V24.2861H69.3483H67.9366ZM65.1131 21.4626V20.0508V18.639H66.5248H67.9366V20.0508V21.4626H66.5248H65.1131Z"/>
</mask>
<path d="M12.7118 38.4037V36.992V35.5802H14.1235H15.5353V36.992V38.4037H14.1235H12.7118ZM9.88824 35.5802V34.1684V32.7567H11.3H12.7118V34.1684V35.5802H11.3H9.88824ZM7.06471 32.7567V31.3449V29.9332H8.47647H9.88824V31.3449V32.7567H8.47647H7.06471ZM4.24118 29.9332V28.5214V27.1096H5.65294H7.06471V28.5214V29.9332H5.65294H4.24118ZM7.06471 27.1096V25.6979V24.2861H8.47647H9.88824V25.6979V27.1096H8.47647H7.06471ZM9.88824 24.2861V22.8743V21.4626H11.3H12.7118V22.8743V24.2861H11.3H9.88824ZM12.7118 21.4626V20.0508V18.639H14.1235H15.5353V20.0508V21.4626H14.1235H12.7118ZM25.0107 41.2273V39.8155V38.4037V36.992V35.5802V34.1684V32.7567V31.3449V29.9332V28.5214V27.1096V25.6979V24.2861V22.8743V21.4626V20.0508V18.639V17.2273V15.8155V14.4037V12.992V11.5802V10.1684H26.4224H27.8342H29.246H30.6577H32.0695H33.4813H34.893H36.3048V11.5802V12.992H34.893H33.4813H32.0695H30.6577H29.246H27.8342V14.4037V15.8155V17.2273V18.639V20.0508V21.4626V22.8743V24.2861V25.6979V27.1096H29.246H30.6577H32.0695H33.4813H34.893H36.3048V28.5214V29.9332H34.893V31.3449V32.7567H36.3048V34.1684V35.5802H37.7165V36.992V38.4037H39.1283V39.8155V41.2273H37.7165H36.3048V39.8155V38.4037H34.893V36.992V35.5802H33.4813V34.1684V32.7567H32.0695V31.3449V29.9332H30.6577H29.246H27.8342V31.3449V32.7567V34.1684V35.5802V36.992V38.4037V39.8155V41.2273H26.4224H25.0107ZM36.3048 27.1096V25.6979V24.2861V22.8743V21.4626V20.0508V18.639V17.2273V15.8155V14.4037V12.992H37.7165H39.1283V14.4037V15.8155V17.2273V18.639V20.0508V21.4626V22.8743V24.2861V25.6979V27.1096H37.7165H36.3048ZM45.7857 41.2273V39.8155V38.4037V36.992V35.5802V34.1684V32.7567V31.3449V29.9332V28.5214V27.1096V25.6979V24.2861V22.8743V21.4626V20.0508V18.639V17.2273V15.8155V14.4037V12.992V11.5802V10.1684H47.1974H48.6092V11.5802V12.992V14.4037V15.8155V17.2273V18.639V20.0508V21.4626V22.8743V24.2861V25.6979V27.1096V28.5214V29.9332V31.3449V32.7567V34.1684V35.5802V36.992V38.4037H50.021H51.4327H52.8445H54.2562H55.668H57.0798V39.8155V41.2273H55.668H54.2562H52.8445H51.4327H50.021H48.6092H47.1974H45.7857ZM65.1131 38.4037V36.992V35.5802H66.5248H67.9366V36.992V38.4037H66.5248H65.1131ZM67.9366 35.5802V34.1684V32.7567H69.3483H70.7601V34.1684V35.5802H69.3483H67.9366ZM70.7601 32.7567V31.3449V29.9332H72.1719H73.5836V31.3449V32.7567H72.1719H70.7601ZM73.5836 29.9332V28.5214V27.1096H74.9954H76.4072V28.5214V29.9332H74.9954H73.5836ZM70.7601 27.1096V25.6979V24.2861H72.1719H73.5836V25.6979V27.1096H72.1719H70.7601ZM67.9366 24.2861V22.8743V21.4626H69.3483H70.7601V22.8743V24.2861H69.3483H67.9366ZM65.1131 21.4626V20.0508V18.639H66.5248H67.9366V20.0508V21.4626H66.5248H65.1131Z" fill="#E15544"/>
<path d="M12.7118 38.4037H11.7118V39.4037H12.7118V38.4037ZM12.7118 35.5802V34.5802H11.7118V35.5802H12.7118ZM15.5353 35.5802H16.5353V34.5802H15.5353V35.5802ZM15.5353 38.4037V39.4037H16.5353V38.4037H15.5353ZM9.88824 35.5802H8.88824V36.5802H9.88824V35.5802ZM9.88824 32.7567V31.7567H8.88824V32.7567H9.88824ZM12.7118 32.7567H13.7118V31.7567H12.7118V32.7567ZM12.7118 35.5802V36.5802H13.7118V35.5802H12.7118ZM7.06471 32.7567H6.06471V33.7567H7.06471V32.7567ZM7.06471 29.9332V28.9332H6.06471V29.9332H7.06471ZM9.88824 29.9332H10.8882V28.9332H9.88824V29.9332ZM9.88824 32.7567V33.7567H10.8882V32.7567H9.88824ZM4.24118 29.9332H3.24118V30.9332H4.24118V29.9332ZM4.24118 27.1096V26.1096H3.24118V27.1096H4.24118ZM7.06471 27.1096H8.06471V26.1096H7.06471V27.1096ZM7.06471 29.9332V30.9332H8.06471V29.9332H7.06471ZM7.06471 27.1096H6.06471V28.1096H7.06471V27.1096ZM7.06471 24.2861V23.2861H6.06471V24.2861H7.06471ZM9.88824 24.2861H10.8882V23.2861H9.88824V24.2861ZM9.88824 27.1096V28.1096H10.8882V27.1096H9.88824ZM9.88824 24.2861H8.88824V25.2861H9.88824V24.2861ZM9.88824 21.4626V20.4626H8.88824V21.4626H9.88824ZM12.7118 21.4626H13.7118V20.4626H12.7118V21.4626ZM12.7118 24.2861V25.2861H13.7118V24.2861H12.7118ZM12.7118 21.4626H11.7118V22.4626H12.7118V21.4626ZM12.7118 18.639V17.639H11.7118V18.639H12.7118ZM15.5353 18.639H16.5353V17.639H15.5353V18.639ZM15.5353 21.4626V22.4626H16.5353V21.4626H15.5353ZM13.7118 38.4037V36.992H11.7118V38.4037H13.7118ZM13.7118 36.992V35.5802H11.7118V36.992H13.7118ZM12.7118 36.5802H14.1235V34.5802H12.7118V36.5802ZM14.1235 36.5802H15.5353V34.5802H14.1235V36.5802ZM14.5353 35.5802V36.992H16.5353V35.5802H14.5353ZM14.5353 36.992V38.4037H16.5353V36.992H14.5353ZM15.5353 37.4037H14.1235V39.4037H15.5353V37.4037ZM14.1235 37.4037H12.7118V39.4037H14.1235V37.4037ZM10.8882 35.5802V34.1684H8.88824V35.5802H10.8882ZM10.8882 34.1684V32.7567H8.88824V34.1684H10.8882ZM9.88824 33.7567H11.3V31.7567H9.88824V33.7567ZM11.3 33.7567H12.7118V31.7567H11.3V33.7567ZM11.7118 32.7567V34.1684H13.7118V32.7567H11.7118ZM11.7118 34.1684V35.5802H13.7118V34.1684H11.7118ZM12.7118 34.5802H11.3V36.5802H12.7118V34.5802ZM11.3 34.5802H9.88824V36.5802H11.3V34.5802ZM8.06471 32.7567V31.3449H6.06471V32.7567H8.06471ZM8.06471 31.3449V29.9332H6.06471V31.3449H8.06471ZM7.06471 30.9332H8.47647V28.9332H7.06471V30.9332ZM8.47647 30.9332H9.88824V28.9332H8.47647V30.9332ZM8.88824 29.9332V31.3449H10.8882V29.9332H8.88824ZM8.88824 31.3449V32.7567H10.8882V31.3449H8.88824ZM9.88824 31.7567H8.47647V33.7567H9.88824V31.7567ZM8.47647 31.7567H7.06471V33.7567H8.47647V31.7567ZM5.24118 29.9332V28.5214H3.24118V29.9332H5.24118ZM5.24118 28.5214V27.1096H3.24118V28.5214H5.24118ZM4.24118 28.1096H5.65294V26.1096H4.24118V28.1096ZM5.65294 28.1096H7.06471V26.1096H5.65294V28.1096ZM6.06471 27.1096V28.5214H8.06471V27.1096H6.06471ZM6.06471 28.5214V29.9332H8.06471V28.5214H6.06471ZM7.06471 28.9332H5.65294V30.9332H7.06471V28.9332ZM5.65294 28.9332H4.24118V30.9332H5.65294V28.9332ZM8.06471 27.1096V25.6979H6.06471V27.1096H8.06471ZM8.06471 25.6979V24.2861H6.06471V25.6979H8.06471ZM7.06471 25.2861H8.47647V23.2861H7.06471V25.2861ZM8.47647 25.2861H9.88824V23.2861H8.47647V25.2861ZM8.88824 24.2861V25.6979H10.8882V24.2861H8.88824ZM8.88824 25.6979V27.1096H10.8882V25.6979H8.88824ZM9.88824 26.1096H8.47647V28.1096H9.88824V26.1096ZM8.47647 26.1096H7.06471V28.1096H8.47647V26.1096ZM10.8882 24.2861V22.8743H8.88824V24.2861H10.8882ZM10.8882 22.8743V21.4626H8.88824V22.8743H10.8882ZM9.88824 22.4626H11.3V20.4626H9.88824V22.4626ZM11.3 22.4626H12.7118V20.4626H11.3V22.4626ZM11.7118 21.4626V22.8743H13.7118V21.4626H11.7118ZM11.7118 22.8743V24.2861H13.7118V22.8743H11.7118ZM12.7118 23.2861H11.3V25.2861H12.7118V23.2861ZM11.3 23.2861H9.88824V25.2861H11.3V23.2861ZM13.7118 21.4626V20.0508H11.7118V21.4626H13.7118ZM13.7118 20.0508V18.639H11.7118V20.0508H13.7118ZM12.7118 19.639H14.1235V17.639H12.7118V19.639ZM14.1235 19.639H15.5353V17.639H14.1235V19.639ZM14.5353 18.639V20.0508H16.5353V18.639H14.5353ZM14.5353 20.0508V21.4626H16.5353V20.0508H14.5353ZM15.5353 20.4626H14.1235V22.4626H15.5353V20.4626ZM14.1235 20.4626H12.7118V22.4626H14.1235V20.4626ZM25.0107 41.2273H24.0107V42.2273H25.0107V41.2273ZM25.0107 10.1684V9.16845H24.0107V10.1684H25.0107ZM36.3048 10.1684H37.3048V9.16845H36.3048V10.1684ZM36.3048 12.992V13.992H37.3048V12.992H36.3048ZM27.8342 12.992V11.992H26.8342V12.992H27.8342ZM27.8342 27.1096H26.8342V28.1096H27.8342V27.1096ZM36.3048 27.1096H37.3048V26.1096H36.3048V27.1096ZM36.3048 29.9332V30.9332H37.3048V29.9332H36.3048ZM34.893 29.9332V28.9332H33.893V29.9332H34.893ZM34.893 32.7567H33.893V33.7567H34.893V32.7567ZM36.3048 32.7567H37.3048V31.7567H36.3048V32.7567ZM36.3048 35.5802H35.3048V36.5802H36.3048V35.5802ZM37.7165 35.5802H38.7165V34.5802H37.7165V35.5802ZM37.7165 38.4037H36.7165V39.4037H37.7165V38.4037ZM39.1283 38.4037H40.1283V37.4037H39.1283V38.4037ZM39.1283 41.2273V42.2273H40.1283V41.2273H39.1283ZM36.3048 41.2273H35.3048V42.2273H36.3048V41.2273ZM36.3048 38.4037H37.3048V37.4037H36.3048V38.4037ZM34.893 38.4037H33.893V39.4037H34.893V38.4037ZM34.893 35.5802H35.893V34.5802H34.893V35.5802ZM33.4813 35.5802H32.4813V36.5802H33.4813V35.5802ZM33.4813 32.7567H34.4813V31.7567H33.4813V32.7567ZM32.0695 32.7567H31.0695V33.7567H32.0695V32.7567ZM32.0695 29.9332H33.0695V28.9332H32.0695V29.9332ZM27.8342 29.9332V28.9332H26.8342V29.9332H27.8342ZM27.8342 41.2273V42.2273H28.8342V41.2273H27.8342ZM36.3048 27.1096H35.3048V28.1096H36.3048V27.1096ZM36.3048 12.992V11.992H35.3048V12.992H36.3048ZM39.1283 12.992H40.1283V11.992H39.1283V12.992ZM39.1283 27.1096V28.1096H40.1283V27.1096H39.1283ZM26.0107 41.2273V39.8155H24.0107V41.2273H26.0107ZM26.0107 39.8155V38.4037H24.0107V39.8155H26.0107ZM26.0107 38.4037V36.992H24.0107V38.4037H26.0107ZM26.0107 36.992V35.5802H24.0107V36.992H26.0107ZM26.0107 35.5802V34.1684H24.0107V35.5802H26.0107ZM26.0107 34.1684V32.7567H24.0107V34.1684H26.0107ZM26.0107 32.7567V31.3449H24.0107V32.7567H26.0107ZM26.0107 31.3449V29.9332H24.0107V31.3449H26.0107ZM26.0107 29.9332V28.5214H24.0107V29.9332H26.0107ZM26.0107 28.5214V27.1096H24.0107V28.5214H26.0107ZM26.0107 27.1096V25.6979H24.0107V27.1096H26.0107ZM26.0107 25.6979V24.2861H24.0107V25.6979H26.0107ZM26.0107 24.2861V22.8743H24.0107V24.2861H26.0107ZM26.0107 22.8743V21.4626H24.0107V22.8743H26.0107ZM26.0107 21.4626V20.0508H24.0107V21.4626H26.0107ZM26.0107 20.0508V18.639H24.0107V20.0508H26.0107ZM26.0107 18.639V17.2273H24.0107V18.639H26.0107ZM26.0107 17.2273V15.8155H24.0107V17.2273H26.0107ZM26.0107 15.8155V14.4037H24.0107V15.8155H26.0107ZM26.0107 14.4037V12.992H24.0107V14.4037H26.0107ZM26.0107 12.992V11.5802H24.0107V12.992H26.0107ZM26.0107 11.5802V10.1684H24.0107V11.5802H26.0107ZM25.0107 11.1684H26.4224V9.16845H25.0107V11.1684ZM26.4224 11.1684H27.8342V9.16845H26.4224V11.1684ZM27.8342 11.1684H29.246V9.16845H27.8342V11.1684ZM29.246 11.1684H30.6577V9.16845H29.246V11.1684ZM30.6577 11.1684H32.0695V9.16845H30.6577V11.1684ZM32.0695 11.1684H33.4813V9.16845H32.0695V11.1684ZM33.4813 11.1684H34.893V9.16845H33.4813V11.1684ZM34.893 11.1684H36.3048V9.16845H34.893V11.1684ZM35.3048 10.1684V11.5802H37.3048V10.1684H35.3048ZM35.3048 11.5802V12.992H37.3048V11.5802H35.3048ZM36.3048 11.992H34.893V13.992H36.3048V11.992ZM34.893 11.992H33.4813V13.992H34.893V11.992ZM33.4813 11.992H32.0695V13.992H33.4813V11.992ZM32.0695 11.992H30.6577V13.992H32.0695V11.992ZM30.6577 11.992H29.246V13.992H30.6577V11.992ZM29.246 11.992H27.8342V13.992H29.246V11.992ZM26.8342 12.992V14.4037H28.8342V12.992H26.8342ZM26.8342 14.4037V15.8155H28.8342V14.4037H26.8342ZM26.8342 15.8155V17.2273H28.8342V15.8155H26.8342ZM26.8342 17.2273V18.639H28.8342V17.2273H26.8342ZM26.8342 18.639V20.0508H28.8342V18.639H26.8342ZM26.8342 20.0508V21.4626H28.8342V20.0508H26.8342ZM26.8342 21.4626V22.8743H28.8342V21.4626H26.8342ZM26.8342 22.8743V24.2861H28.8342V22.8743H26.8342ZM26.8342 24.2861V25.6979H28.8342V24.2861H26.8342ZM26.8342 25.6979V27.1096H28.8342V25.6979H26.8342ZM27.8342 28.1096H29.246V26.1096H27.8342V28.1096ZM29.246 28.1096H30.6577V26.1096H29.246V28.1096ZM30.6577 28.1096H32.0695V26.1096H30.6577V28.1096ZM32.0695 28.1096H33.4813V26.1096H32.0695V28.1096ZM33.4813 28.1096H34.893V26.1096H33.4813V28.1096ZM34.893 28.1096H36.3048V26.1096H34.893V28.1096ZM35.3048 27.1096V28.5214H37.3048V27.1096H35.3048ZM35.3048 28.5214V29.9332H37.3048V28.5214H35.3048ZM36.3048 28.9332H34.893V30.9332H36.3048V28.9332ZM33.893 29.9332V31.3449H35.893V29.9332H33.893ZM33.893 31.3449V32.7567H35.893V31.3449H33.893ZM34.893 33.7567H36.3048V31.7567H34.893V33.7567ZM35.3048 32.7567V34.1684H37.3048V32.7567H35.3048ZM35.3048 34.1684V35.5802H37.3048V34.1684H35.3048ZM36.3048 36.5802H37.7165V34.5802H36.3048V36.5802ZM36.7165 35.5802V36.992H38.7165V35.5802H36.7165ZM36.7165 36.992V38.4037H38.7165V36.992H36.7165ZM37.7165 39.4037H39.1283V37.4037H37.7165V39.4037ZM38.1283 38.4037V39.8155H40.1283V38.4037H38.1283ZM38.1283 39.8155V41.2273H40.1283V39.8155H38.1283ZM39.1283 40.2273H37.7165V42.2273H39.1283V40.2273ZM37.7165 40.2273H36.3048V42.2273H37.7165V40.2273ZM37.3048 41.2273V39.8155H35.3048V41.2273H37.3048ZM37.3048 39.8155V38.4037H35.3048V39.8155H37.3048ZM36.3048 37.4037H34.893V39.4037H36.3048V37.4037ZM35.893 38.4037V36.992H33.893V38.4037H35.893ZM35.893 36.992V35.5802H33.893V36.992H35.893ZM34.893 34.5802H33.4813V36.5802H34.893V34.5802ZM34.4813 35.5802V34.1684H32.4813V35.5802H34.4813ZM34.4813 34.1684V32.7567H32.4813V34.1684H34.4813ZM33.4813 31.7567H32.0695V33.7567H33.4813V31.7567ZM33.0695 32.7567V31.3449H31.0695V32.7567H33.0695ZM33.0695 31.3449V29.9332H31.0695V31.3449H33.0695ZM32.0695 28.9332H30.6577V30.9332H32.0695V28.9332ZM30.6577 28.9332H29.246V30.9332H30.6577V28.9332ZM29.246 28.9332H27.8342V30.9332H29.246V28.9332ZM26.8342 29.9332V31.3449H28.8342V29.9332H26.8342ZM26.8342 31.3449V32.7567H28.8342V31.3449H26.8342ZM26.8342 32.7567V34.1684H28.8342V32.7567H26.8342ZM26.8342 34.1684V35.5802H28.8342V34.1684H26.8342ZM26.8342 35.5802V36.992H28.8342V35.5802H26.8342ZM26.8342 36.992V38.4037H28.8342V36.992H26.8342ZM26.8342 38.4037V39.8155H28.8342V38.4037H26.8342ZM26.8342 39.8155V41.2273H28.8342V39.8155H26.8342ZM27.8342 40.2273H26.4224V42.2273H27.8342V40.2273ZM26.4224 40.2273H25.0107V42.2273H26.4224V40.2273ZM37.3048 27.1096V25.6979H35.3048V27.1096H37.3048ZM37.3048 25.6979V24.2861H35.3048V25.6979H37.3048ZM37.3048 24.2861V22.8743H35.3048V24.2861H37.3048ZM37.3048 22.8743V21.4626H35.3048V22.8743H37.3048ZM37.3048 21.4626V20.0508H35.3048V21.4626H37.3048ZM37.3048 20.0508V18.639H35.3048V20.0508H37.3048ZM37.3048 18.639V17.2273H35.3048V18.639H37.3048ZM37.3048 17.2273V15.8155H35.3048V17.2273H37.3048ZM37.3048 15.8155V14.4037H35.3048V15.8155H37.3048ZM37.3048 14.4037V12.992H35.3048V14.4037H37.3048ZM36.3048 13.992H37.7165V11.992H36.3048V13.992ZM37.7165 13.992H39.1283V11.992H37.7165V13.992ZM38.1283 12.992V14.4037H40.1283V12.992H38.1283ZM38.1283 14.4037V15.8155H40.1283V14.4037H38.1283ZM38.1283 15.8155V17.2273H40.1283V15.8155H38.1283ZM38.1283 17.2273V18.639H40.1283V17.2273H38.1283ZM38.1283 18.639V20.0508H40.1283V18.639H38.1283ZM38.1283 20.0508V21.4626H40.1283V20.0508H38.1283ZM38.1283 21.4626V22.8743H40.1283V21.4626H38.1283ZM38.1283 22.8743V24.2861H40.1283V22.8743H38.1283ZM38.1283 24.2861V25.6979H40.1283V24.2861H38.1283ZM38.1283 25.6979V27.1096H40.1283V25.6979H38.1283ZM39.1283 26.1096H37.7165V28.1096H39.1283V26.1096ZM37.7165 26.1096H36.3048V28.1096H37.7165V26.1096ZM45.7857 41.2273H44.7857V42.2273H45.7857V41.2273ZM45.7857 10.1684V9.16845H44.7857V10.1684H45.7857ZM48.6092 10.1684H49.6092V9.16845H48.6092V10.1684ZM48.6092 38.4037H47.6092V39.4037H48.6092V38.4037ZM57.0798 38.4037H58.0798V37.4037H57.0798V38.4037ZM57.0798 41.2273V42.2273H58.0798V41.2273H57.0798ZM46.7857 41.2273V39.8155H44.7857V41.2273H46.7857ZM46.7857 39.8155V38.4037H44.7857V39.8155H46.7857ZM46.7857 38.4037V36.992H44.7857V38.4037H46.7857ZM46.7857 36.992V35.5802H44.7857V36.992H46.7857ZM46.7857 35.5802V34.1684H44.7857V35.5802H46.7857ZM46.7857 34.1684V32.7567H44.7857V34.1684H46.7857ZM46.7857 32.7567V31.3449H44.7857V32.7567H46.7857ZM46.7857 31.3449V29.9332H44.7857V31.3449H46.7857ZM46.7857 29.9332V28.5214H44.7857V29.9332H46.7857ZM46.7857 28.5214V27.1096H44.7857V28.5214H46.7857ZM46.7857 27.1096V25.6979H44.7857V27.1096H46.7857ZM46.7857 25.6979V24.2861H44.7857V25.6979H46.7857ZM46.7857 24.2861V22.8743H44.7857V24.2861H46.7857ZM46.7857 22.8743V21.4626H44.7857V22.8743H46.7857ZM46.7857 21.4626V20.0508H44.7857V21.4626H46.7857ZM46.7857 20.0508V18.639H44.7857V20.0508H46.7857ZM46.7857 18.639V17.2273H44.7857V18.639H46.7857ZM46.7857 17.2273V15.8155H44.7857V17.2273H46.7857ZM46.7857 15.8155V14.4037H44.7857V15.8155H46.7857ZM46.7857 14.4037V12.992H44.7857V14.4037H46.7857ZM46.7857 12.992V11.5802H44.7857V12.992H46.7857ZM46.7857 11.5802V10.1684H44.7857V11.5802H46.7857ZM45.7857 11.1684H47.1974V9.16845H45.7857V11.1684ZM47.1974 11.1684H48.6092V9.16845H47.1974V11.1684ZM47.6092 10.1684V11.5802H49.6092V10.1684H47.6092ZM47.6092 11.5802V12.992H49.6092V11.5802H47.6092ZM47.6092 12.992V14.4037H49.6092V12.992H47.6092ZM47.6092 14.4037V15.8155H49.6092V14.4037H47.6092ZM47.6092 15.8155V17.2273H49.6092V15.8155H47.6092ZM47.6092 17.2273V18.639H49.6092V17.2273H47.6092ZM47.6092 18.639V20.0508H49.6092V18.639H47.6092ZM47.6092 20.0508V21.4626H49.6092V20.0508H47.6092ZM47.6092 21.4626V22.8743H49.6092V21.4626H47.6092ZM47.6092 22.8743V24.2861H49.6092V22.8743H47.6092ZM47.6092 24.2861V25.6979H49.6092V24.2861H47.6092ZM47.6092 25.6979V27.1096H49.6092V25.6979H47.6092ZM47.6092 27.1096V28.5214H49.6092V27.1096H47.6092ZM47.6092 28.5214V29.9332H49.6092V28.5214H47.6092ZM47.6092 29.9332V31.3449H49.6092V29.9332H47.6092ZM47.6092 31.3449V32.7567H49.6092V31.3449H47.6092ZM47.6092 32.7567V34.1684H49.6092V32.7567H47.6092ZM47.6092 34.1684V35.5802H49.6092V34.1684H47.6092ZM47.6092 35.5802V36.992H49.6092V35.5802H47.6092ZM47.6092 36.992V38.4037H49.6092V36.992H47.6092ZM48.6092 39.4037H50.021V37.4037H48.6092V39.4037ZM50.021 39.4037H51.4327V37.4037H50.021V39.4037ZM51.4327 39.4037H52.8445V37.4037H51.4327V39.4037ZM52.8445 39.4037H54.2562V37.4037H52.8445V39.4037ZM54.2562 39.4037H55.668V37.4037H54.2562V39.4037ZM55.668 39.4037H57.0798V37.4037H55.668V39.4037ZM56.0798 38.4037V39.8155H58.0798V38.4037H56.0798ZM56.0798 39.8155V41.2273H58.0798V39.8155H56.0798ZM57.0798 40.2273H55.668V42.2273H57.0798V40.2273ZM55.668 40.2273H54.2562V42.2273H55.668V40.2273ZM54.2562 40.2273H52.8445V42.2273H54.2562V40.2273ZM52.8445 40.2273H51.4327V42.2273H52.8445V40.2273ZM51.4327 40.2273H50.021V42.2273H51.4327V40.2273ZM50.021 40.2273H48.6092V42.2273H50.021V40.2273ZM48.6092 40.2273H47.1974V42.2273H48.6092V40.2273ZM47.1974 40.2273H45.7857V42.2273H47.1974V40.2273ZM65.1131 38.4037H64.1131V39.4037H65.1131V38.4037ZM65.1131 35.5802V34.5802H64.1131V35.5802H65.1131ZM67.9366 35.5802H68.9366V34.5802H67.9366V35.5802ZM67.9366 38.4037V39.4037H68.9366V38.4037H67.9366ZM67.9366 35.5802H66.9366V36.5802H67.9366V35.5802ZM67.9366 32.7567V31.7567H66.9366V32.7567H67.9366ZM70.7601 32.7567H71.7601V31.7567H70.7601V32.7567ZM70.7601 35.5802V36.5802H71.7601V35.5802H70.7601ZM70.7601 32.7567H69.7601V33.7567H70.7601V32.7567ZM70.7601 29.9332V28.9332H69.7601V29.9332H70.7601ZM73.5836 29.9332H74.5836V28.9332H73.5836V29.9332ZM73.5836 32.7567V33.7567H74.5836V32.7567H73.5836ZM73.5836 29.9332H72.5836V30.9332H73.5836V29.9332ZM73.5836 27.1096V26.1096H72.5836V27.1096H73.5836ZM76.4072 27.1096H77.4072V26.1096H76.4072V27.1096ZM76.4072 29.9332V30.9332H77.4072V29.9332H76.4072ZM70.7601 27.1096H69.7601V28.1096H70.7601V27.1096ZM70.7601 24.2861V23.2861H69.7601V24.2861H70.7601ZM73.5836 24.2861H74.5836V23.2861H73.5836V24.2861ZM73.5836 27.1096V28.1096H74.5836V27.1096H73.5836ZM67.9366 24.2861H66.9366V25.2861H67.9366V24.2861ZM67.9366 21.4626V20.4626H66.9366V21.4626H67.9366ZM70.7601 21.4626H71.7601V20.4626H70.7601V21.4626ZM70.7601 24.2861V25.2861H71.7601V24.2861H70.7601ZM65.1131 21.4626H64.1131V22.4626H65.1131V21.4626ZM65.1131 18.639V17.639H64.1131V18.639H65.1131ZM67.9366 18.639H68.9366V17.639H67.9366V18.639ZM67.9366 21.4626V22.4626H68.9366V21.4626H67.9366ZM66.1131 38.4037V36.992H64.1131V38.4037H66.1131ZM66.1131 36.992V35.5802H64.1131V36.992H66.1131ZM65.1131 36.5802H66.5248V34.5802H65.1131V36.5802ZM66.5248 36.5802H67.9366V34.5802H66.5248V36.5802ZM66.9366 35.5802V36.992H68.9366V35.5802H66.9366ZM66.9366 36.992V38.4037H68.9366V36.992H66.9366ZM67.9366 37.4037H66.5248V39.4037H67.9366V37.4037ZM66.5248 37.4037H65.1131V39.4037H66.5248V37.4037ZM68.9366 35.5802V34.1684H66.9366V35.5802H68.9366ZM68.9366 34.1684V32.7567H66.9366V34.1684H68.9366ZM67.9366 33.7567H69.3483V31.7567H67.9366V33.7567ZM69.3483 33.7567H70.7601V31.7567H69.3483V33.7567ZM69.7601 32.7567V34.1684H71.7601V32.7567H69.7601ZM69.7601 34.1684V35.5802H71.7601V34.1684H69.7601ZM70.7601 34.5802H69.3483V36.5802H70.7601V34.5802ZM69.3483 34.5802H67.9366V36.5802H69.3483V34.5802ZM71.7601 32.7567V31.3449H69.7601V32.7567H71.7601ZM71.7601 31.3449V29.9332H69.7601V31.3449H71.7601ZM70.7601 30.9332H72.1719V28.9332H70.7601V30.9332ZM72.1719 30.9332H73.5836V28.9332H72.1719V30.9332ZM72.5836 29.9332V31.3449H74.5836V29.9332H72.5836ZM72.5836 31.3449V32.7567H74.5836V31.3449H72.5836ZM73.5836 31.7567H72.1719V33.7567H73.5836V31.7567ZM72.1719 31.7567H70.7601V33.7567H72.1719V31.7567ZM74.5836 29.9332V28.5214H72.5836V29.9332H74.5836ZM74.5836 28.5214V27.1096H72.5836V28.5214H74.5836ZM73.5836 28.1096H74.9954V26.1096H73.5836V28.1096ZM74.9954 28.1096H76.4072V26.1096H74.9954V28.1096ZM75.4072 27.1096V28.5214H77.4072V27.1096H75.4072ZM75.4072 28.5214V29.9332H77.4072V28.5214H75.4072ZM76.4072 28.9332H74.9954V30.9332H76.4072V28.9332ZM74.9954 28.9332H73.5836V30.9332H74.9954V28.9332ZM71.7601 27.1096V25.6979H69.7601V27.1096H71.7601ZM71.7601 25.6979V24.2861H69.7601V25.6979H71.7601ZM70.7601 25.2861H72.1719V23.2861H70.7601V25.2861ZM72.1719 25.2861H73.5836V23.2861H72.1719V25.2861ZM72.5836 24.2861V25.6979H74.5836V24.2861H72.5836ZM72.5836 25.6979V27.1096H74.5836V25.6979H72.5836ZM73.5836 26.1096H72.1719V28.1096H73.5836V26.1096ZM72.1719 26.1096H70.7601V28.1096H72.1719V26.1096ZM68.9366 24.2861V22.8743H66.9366V24.2861H68.9366ZM68.9366 22.8743V21.4626H66.9366V22.8743H68.9366ZM67.9366 22.4626H69.3483V20.4626H67.9366V22.4626ZM69.3483 22.4626H70.7601V20.4626H69.3483V22.4626ZM69.7601 21.4626V22.8743H71.7601V21.4626H69.7601ZM69.7601 22.8743V24.2861H71.7601V22.8743H69.7601ZM70.7601 23.2861H69.3483V25.2861H70.7601V23.2861ZM69.3483 23.2861H67.9366V25.2861H69.3483V23.2861ZM66.1131 21.4626V20.0508H64.1131V21.4626H66.1131ZM66.1131 20.0508V18.639H64.1131V20.0508H66.1131ZM65.1131 19.639H66.5248V17.639H65.1131V19.639ZM66.5248 19.639H67.9366V17.639H66.5248V19.639ZM66.9366 18.639V20.0508H68.9366V18.639H66.9366ZM66.9366 20.0508V21.4626H68.9366V20.0508H66.9366ZM67.9366 20.4626H66.5248V22.4626H67.9366V20.4626ZM66.5248 20.4626H65.1131V22.4626H66.5248V20.4626Z" fill="#E15544" mask="url(#path-1-outside-1_1305_6177)"/>
</g>
<defs>
<clipPath id="clip0_1305_6177">
<rect width="80" height="54" fill="white"/>
</clipPath>
</defs>
</svg>
