<svg width="25" height="20" viewBox="0 0 25 20" fill="none" xmlns="http://www.w3.org/2000/svg">
<path d="M21.665 0H2.73296C1.43138 0 0.378288 1.125 0.378288 2.5L0.366455 17.5C0.366455 18.875 1.43138 20 2.73296 20H21.665C22.9666 20 24.0315 18.875 24.0315 17.5V2.5C24.0315 1.125 22.9666 0 21.665 0ZM21.1917 5.3125L12.8261 10.8375C12.4475 11.0875 11.9505 11.0875 11.5719 10.8375L3.20626 5.3125C2.91045 5.1125 2.73296 4.775 2.73296 4.4125C2.73296 3.575 3.59673 3.075 4.27119 3.5125L12.199 8.75L20.1268 3.5125C20.8012 3.075 21.665 3.575 21.665 4.4125C21.665 4.775 21.4875 5.1125 21.1917 5.3125Z" fill="#E15544"/>
</svg>
