<svg width="20" height="25" viewBox="0 0 20 25" fill="none" xmlns="http://www.w3.org/2000/svg">
<path d="M4.24086 10.9715C5.8159 14.6195 8.35347 17.5973 11.4489 19.4664L13.8552 16.6305C14.1505 16.2824 14.588 16.1664 14.9708 16.3211C16.1959 16.798 17.5194 17.0559 18.8756 17.0559C19.4772 17.0559 19.9694 17.6359 19.9694 18.3449V22.8437C19.9694 23.5527 19.4772 24.1328 18.8756 24.1328C8.60504 24.1328 0.281372 14.323 0.281372 2.21875C0.281372 1.50977 0.773573 0.929688 1.37515 0.929688H5.20338C5.80496 0.929688 6.29716 1.50977 6.29716 2.21875C6.29716 3.83008 6.51592 5.37695 6.92062 6.8207C7.04093 7.27187 6.95343 7.77461 6.64717 8.13555L4.24086 10.9715Z" fill="#E15544"/>
</svg>
