<svg width="88" height="100" viewBox="0 0 88 100" fill="none" xmlns="http://www.w3.org/2000/svg">
<path d="M43.9996 5L71.8996 14.96L67.6456 51.89L43.9996 65L20.3536 51.89L16.0996 14.96L43.9996 5ZM43.9996 11.63L26.5576 50.78H33.0616L36.5686 42.02H51.3706L54.8806 50.78H61.3816L43.9996 11.63ZM49.0936 36.62H38.9056L43.9996 24.35L49.0936 36.62Z" fill="#02F4BF"/>
<path d="M13.4443 91.3281H9.60352L8.84766 94H6.24609L10.4385 81.2031H12.6797L16.793 94H14.1914L13.4443 91.3281ZM10.21 89.2275H12.8643L11.5547 84.5166L10.21 89.2275ZM18.0498 94V84.4902H20.2646L20.4141 85.8086C20.5371 85.6328 20.6719 85.4717 20.8184 85.3252C20.9648 85.1787 21.1201 85.0469 21.2842 84.9297C21.5654 84.7305 21.873 84.5781 22.207 84.4727C22.541 84.3672 22.8955 84.3145 23.2705 84.3145C23.751 84.3145 24.1904 84.3848 24.5889 84.5254C24.9873 84.666 25.333 84.8887 25.626 85.1934C25.9131 85.5039 26.1357 85.9023 26.2939 86.3887C26.458 86.8691 26.54 87.4551 26.54 88.1465V94H24.0967V88.1816C24.0967 87.8066 24.0527 87.499 23.9648 87.2588C23.8828 87.0127 23.7627 86.8193 23.6045 86.6787C23.4463 86.5381 23.2559 86.4414 23.0332 86.3887C22.8105 86.3301 22.5586 86.3008 22.2773 86.3008C22.043 86.3008 21.8262 86.3271 21.627 86.3799C21.4336 86.4326 21.2607 86.5117 21.1084 86.6172C20.9854 86.6934 20.874 86.7842 20.7744 86.8896C20.6748 86.9951 20.584 87.1123 20.502 87.2412V94H18.0498ZM28.6143 89.1748C28.6143 88.4541 28.7021 87.7949 28.8779 87.1973C29.0596 86.5996 29.3174 86.0869 29.6514 85.6592C29.9854 85.2314 30.3896 84.9004 30.8643 84.666C31.3389 84.4316 31.875 84.3145 32.4727 84.3145C32.7949 84.3145 33.0879 84.3467 33.3516 84.4111C33.6211 84.4697 33.8643 84.5605 34.0811 84.6836C34.2451 84.7715 34.3975 84.877 34.5381 85C34.6787 85.1172 34.8076 85.249 34.9248 85.3955L35.0215 84.4902H37.2451V93.6924C37.2451 94.3369 37.1338 94.9111 36.9111 95.415C36.6943 95.9189 36.3896 96.3438 35.9971 96.6895C35.5986 97.0352 35.1211 97.2959 34.5645 97.4717C34.0137 97.6533 33.4043 97.7441 32.7363 97.7441C32.4492 97.7441 32.1416 97.7148 31.8135 97.6562C31.4854 97.5977 31.1602 97.5068 30.8379 97.3838C30.5156 97.2607 30.2109 97.1025 29.9238 96.9092C29.6367 96.7217 29.3906 96.4961 29.1855 96.2324L30.2842 94.7471C30.4424 94.9287 30.6123 95.0869 30.7939 95.2217C30.9756 95.3623 31.166 95.4766 31.3652 95.5645C31.5586 95.6523 31.7578 95.7168 31.9629 95.7578C32.1738 95.8047 32.3906 95.8281 32.6133 95.8281C32.9707 95.8281 33.2871 95.7783 33.5625 95.6787C33.8438 95.5791 34.0781 95.4326 34.2656 95.2393C34.4355 95.0635 34.5645 94.8467 34.6523 94.5889C34.7461 94.3311 34.793 94.041 34.793 93.7188V93.1738C34.6758 93.3027 34.5527 93.4199 34.4238 93.5254C34.2949 93.6309 34.1572 93.7246 34.0107 93.8066C33.7939 93.9238 33.5537 94.0146 33.29 94.0791C33.0322 94.1436 32.7539 94.1758 32.4551 94.1758C31.8633 94.1758 31.3301 94.0557 30.8555 93.8154C30.3867 93.5693 29.9854 93.2324 29.6514 92.8047C29.3174 92.377 29.0596 91.8701 28.8779 91.2842C28.7021 90.6924 28.6143 90.0508 28.6143 89.3594V89.1748ZM31.0664 89.3594C31.0664 89.7578 31.1045 90.1299 31.1807 90.4756C31.2627 90.8154 31.3857 91.1113 31.5498 91.3633C31.7139 91.6211 31.9219 91.8232 32.1738 91.9697C32.4258 92.1162 32.7246 92.1895 33.0703 92.1895C33.2812 92.1895 33.4717 92.1689 33.6416 92.1279C33.8174 92.0869 33.9756 92.0283 34.1162 91.9521C34.2627 91.8701 34.3916 91.7705 34.5029 91.6533C34.6143 91.5361 34.7109 91.4043 34.793 91.2578V87.2324C34.7051 87.0684 34.5996 86.9248 34.4766 86.8018C34.3535 86.6787 34.2129 86.5791 34.0547 86.5029C33.9199 86.4385 33.7705 86.3887 33.6064 86.3535C33.4482 86.3184 33.2754 86.3008 33.0879 86.3008C32.7422 86.3008 32.4434 86.377 32.1914 86.5293C31.9395 86.6758 31.7314 86.8779 31.5674 87.1357C31.3975 87.3994 31.2715 87.707 31.1895 88.0586C31.1074 88.4043 31.0664 88.7764 31.0664 89.1748V89.3594ZM45.876 94L45.7354 92.6641C45.4131 93.1387 45.0234 93.5107 44.5664 93.7803C44.1152 94.0498 43.6201 94.1846 43.0811 94.1846C42.5889 94.1846 42.1377 94.1084 41.7275 93.9561C41.3174 93.8037 40.9658 93.5605 40.6729 93.2266C40.3799 92.8984 40.1514 92.4795 39.9873 91.9697C39.8291 91.4541 39.75 90.8359 39.75 90.1152V84.4902H42.1934V90.1328C42.1934 90.5195 42.2197 90.8447 42.2725 91.1084C42.3311 91.3721 42.4219 91.583 42.5449 91.7412C42.668 91.9053 42.8291 92.0225 43.0283 92.0928C43.2275 92.1631 43.4707 92.1982 43.7578 92.1982C44.0156 92.1982 44.2471 92.1719 44.4521 92.1191C44.6631 92.0664 44.8477 91.9902 45.0059 91.8906C45.1406 91.8027 45.2607 91.6973 45.3662 91.5742C45.4717 91.4512 45.5625 91.3135 45.6387 91.1611V84.4902H48.0908V94H45.876ZM50.9912 80.5H56.3086V92.0137H59.0332V94H50.9912V92.0137H53.8389V82.4951H50.9912V80.5ZM67.2334 94C67.1748 93.8828 67.125 93.748 67.084 93.5957C67.043 93.4434 67.0078 93.2822 66.9785 93.1123C66.8438 93.2588 66.6885 93.3965 66.5127 93.5254C66.3369 93.6543 66.1436 93.7656 65.9326 93.8594C65.7158 93.959 65.4785 94.0352 65.2207 94.0879C64.9629 94.1465 64.6846 94.1758 64.3857 94.1758C63.8994 94.1758 63.4512 94.1055 63.041 93.9648C62.6367 93.8242 62.2881 93.6279 61.9951 93.376C61.7021 93.124 61.4736 92.8252 61.3096 92.4795C61.1455 92.1279 61.0635 91.7471 61.0635 91.3369C61.0635 90.8096 61.166 90.3438 61.3711 89.9395C61.5762 89.5293 61.8838 89.1924 62.2939 88.9287C62.6631 88.6885 63.1172 88.5068 63.6562 88.3838C64.2012 88.2549 64.8252 88.1904 65.5283 88.1904H66.8906V87.6279C66.8906 87.4053 66.8555 87.2061 66.7852 87.0303C66.7148 86.8486 66.6094 86.6934 66.4688 86.5645C66.3223 86.4297 66.1377 86.3271 65.915 86.2568C65.6982 86.1807 65.4434 86.1426 65.1504 86.1426C64.8926 86.1426 64.6699 86.1748 64.4824 86.2393C64.2949 86.2979 64.1426 86.3828 64.0254 86.4941C63.9199 86.5938 63.8408 86.7139 63.7881 86.8545C63.7412 86.9951 63.7178 87.1504 63.7178 87.3203H61.2744C61.2744 86.916 61.3623 86.5322 61.5381 86.1689C61.7197 85.8057 61.9834 85.4863 62.3291 85.2109C62.6689 84.9355 63.085 84.7188 63.5771 84.5605C64.0752 84.3965 64.6436 84.3145 65.2822 84.3145C65.8564 84.3145 66.3896 84.3848 66.8818 84.5254C67.3799 84.666 67.8105 84.874 68.1738 85.1494C68.5371 85.4248 68.8213 85.7734 69.0264 86.1953C69.2314 86.6113 69.334 87.0947 69.334 87.6455V91.7236C69.334 92.2334 69.3662 92.6553 69.4307 92.9893C69.4951 93.3232 69.5889 93.6104 69.7119 93.8506V94H67.2334ZM64.9043 92.2861C65.1504 92.2861 65.3789 92.2568 65.5898 92.1982C65.8008 92.1396 65.9912 92.0635 66.1611 91.9697C66.3311 91.876 66.4775 91.7705 66.6006 91.6533C66.7236 91.5303 66.8203 91.4072 66.8906 91.2842V89.6494H65.6426C65.2617 89.6494 64.9365 89.6875 64.667 89.7637C64.3975 89.834 64.1777 89.9336 64.0078 90.0625C63.8379 90.1973 63.7119 90.3584 63.6299 90.5459C63.5479 90.7275 63.5068 90.9268 63.5068 91.1436C63.5068 91.3135 63.5361 91.4717 63.5947 91.6182C63.6592 91.7588 63.75 91.8789 63.8672 91.9785C63.9844 92.0723 64.1279 92.1484 64.2979 92.207C64.4736 92.2598 64.6758 92.2861 64.9043 92.2861ZM78.9316 84.3145C79.3008 84.3145 79.6406 84.3408 79.9512 84.3936C80.2676 84.4404 80.5225 84.4932 80.7158 84.5518L80.3555 86.9863C80.0332 86.9102 79.7021 86.8545 79.3623 86.8193C79.0283 86.7783 78.709 86.7578 78.4043 86.7578C78.0879 86.7578 77.8008 86.7871 77.543 86.8457C77.291 86.8984 77.0654 86.9805 76.8662 87.0918C76.626 87.2207 76.4209 87.3848 76.251 87.584C76.0811 87.7832 75.9404 88.0176 75.8291 88.2871V94H73.3857V84.4902H75.6621L75.7588 85.835L75.7764 86.0459C76.1631 85.5068 76.626 85.085 77.165 84.7803C77.7041 84.4697 78.293 84.3145 78.9316 84.3145Z" fill="#02F4BF"/>
</svg>
