<svg width="19" height="49" viewBox="0 0 19 49" fill="none" xmlns="http://www.w3.org/2000/svg">
<path d="M7.05978 2.48366C7.32689 1.69948 6.90773 0.847231 6.12355 0.580114C5.33937 0.312998 4.48712 0.732161 4.22001 1.51634L7.05978 2.48366ZM14.8008 48.4867C15.6219 48.5967 16.3767 48.0203 16.4867 47.1992L18.2793 33.8187C18.3893 32.9976 17.8128 32.2428 16.9917 32.1328C16.1706 32.0228 15.4158 32.5993 15.3058 33.4204L13.7125 45.3141L1.81871 43.7207C0.997617 43.6107 0.242819 44.1872 0.132819 45.0083C0.0228202 45.8294 0.599274 46.5842 1.42037 46.6942L14.8008 48.4867ZM4.22001 1.51634C1.46263 9.61124 0.750022 17.1915 2.31864 24.8028C3.88362 32.3964 7.69584 39.9074 13.8079 47.9104L16.1921 46.0896C10.2579 38.3194 6.70361 31.217 5.25689 24.1972C3.81382 17.1951 4.44431 10.162 7.05978 2.48366L4.22001 1.51634Z" fill="#E15544"/>
</svg>
