<svg width="98" height="121" viewBox="0 0 98 121" fill="none" xmlns="http://www.w3.org/2000/svg">
<path d="M21.4981 16.0051C21.4981 14.6226 22.616 13.5019 23.9949 13.5019L74.7631 13.5019C76.1421 13.5019 77.2599 14.6226 77.2599 16.0051L77.2599 65.9949C77.2599 67.3774 76.1421 68.4981 74.7631 68.4981L23.9949 68.4981C22.616 68.4981 21.4981 67.3774 21.4981 65.9949L21.4981 16.0051Z" fill="#E15544" stroke="#E15544" stroke-width="3"/>
<path d="M46.6805 49.6883C46.6805 48.6088 46.7039 47.6936 46.7507 46.9426C46.8131 46.1917 46.9458 45.5111 47.1486 44.901C47.3515 44.3065 47.6558 43.7589 48.0615 43.2583C48.4673 42.742 49.0369 42.1945 49.7703 41.6156C50.3009 41.1306 50.8314 40.6222 51.362 40.0902C51.8926 39.5427 52.3764 38.9794 52.8133 38.4006C53.2346 37.8374 53.578 37.2585 53.8432 36.664C54.1085 36.0695 54.2412 35.475 54.2412 34.8805C54.2412 34.1609 54.1397 33.5429 53.9369 33.0266C53.734 32.4947 53.4453 32.0566 53.0708 31.7124C52.6807 31.3995 52.2047 31.1649 51.6429 31.0084C51.0967 30.852 50.4647 30.7738 49.7469 30.7738C49.1851 30.7738 48.6389 30.852 48.1083 31.0084C47.5778 31.1492 47.1096 31.3839 46.7039 31.7124C46.2825 32.041 45.9392 32.4634 45.6739 32.9797C45.4243 33.4959 45.2916 34.1139 45.276 34.8336L38.7452 34.8336C38.7608 33.2378 39.0573 31.8532 39.6347 30.6799C40.2121 29.4909 40.9924 28.5053 41.9755 27.723C42.9586 26.9408 44.1134 26.3619 45.4399 25.9864C46.7663 25.5953 48.202 25.3998 49.7469 25.3998C51.4791 25.3998 53.0318 25.5953 54.405 25.9864C55.7783 26.3776 56.9409 26.9564 57.8928 27.723C58.8291 28.5053 59.5469 29.4674 60.0463 30.6095C60.5457 31.7516 60.7953 33.0735 60.7953 34.5754C60.7953 35.6862 60.6081 36.7031 60.2336 37.6262C59.859 38.5336 59.3753 39.3784 58.7823 40.1606C58.1893 40.9585 57.5105 41.7173 56.7458 42.4369C55.9968 43.141 55.2399 43.8293 54.4753 44.5021C54.0071 44.9714 53.6404 45.386 53.3751 45.7458C53.1098 46.1057 52.9225 46.4733 52.8133 46.8488C52.6885 47.2243 52.6104 47.6388 52.5792 48.0925C52.548 48.5306 52.5324 49.0625 52.5324 49.6883L46.6805 49.6883ZM45.7208 56.7989C45.7208 55.7663 46.0563 54.9058 46.7273 54.2175C47.3983 53.5135 48.3268 53.1615 49.5128 53.1615C50.6676 53.1615 51.5883 53.5135 52.2749 54.2175C52.9772 54.9058 53.3283 55.7663 53.3283 56.7989C53.3283 57.8001 52.9772 58.645 52.2749 59.3333C51.5883 60.0061 50.6676 60.3424 49.5128 60.3424C48.3268 60.3424 47.3983 60.0061 46.7273 59.3333C46.0563 58.645 45.7208 57.8001 45.7208 56.7989Z" fill="#02F4BF"/>
<path d="M10.3896 90.9922C10.3486 91.6367 10.208 92.2168 9.96777 92.7324C9.7334 93.248 9.41699 93.6875 9.01855 94.0508C8.62012 94.4141 8.14551 94.6953 7.59473 94.8945C7.04395 95.0879 6.43457 95.1846 5.7666 95.1846C5.23926 95.1846 4.75 95.1172 4.29883 94.9824C3.85352 94.8418 3.45215 94.6426 3.09473 94.3848C2.7666 94.1445 2.47363 93.8545 2.21582 93.5146C1.96387 93.1748 1.75 92.7998 1.57422 92.3896C1.4043 91.9795 1.27246 91.5283 1.17871 91.0361C1.09082 90.5439 1.04688 90.0225 1.04688 89.4717V87.749C1.04688 87.2334 1.08789 86.7441 1.16992 86.2812C1.25195 85.8125 1.375 85.3789 1.53906 84.9805C1.72656 84.4941 1.97266 84.0605 2.27734 83.6797C2.58203 83.2988 2.92773 82.9766 3.31445 82.7129C3.66016 82.4902 4.03809 82.3203 4.44824 82.2031C4.86426 82.0801 5.30957 82.0186 5.78418 82.0186C6.4873 82.0186 7.11133 82.1182 7.65625 82.3174C8.20703 82.5166 8.67578 82.8008 9.0625 83.1699C9.44922 83.5391 9.75391 83.9902 9.97656 84.5234C10.1992 85.0566 10.3398 85.6572 10.3984 86.3252H7.9375C7.91406 85.9443 7.85547 85.6104 7.76172 85.3232C7.67383 85.0361 7.54492 84.7959 7.375 84.6025C7.19922 84.415 6.97949 84.2744 6.71582 84.1807C6.45801 84.0811 6.14746 84.0312 5.78418 84.0312C5.59082 84.0312 5.40918 84.0518 5.23926 84.0928C5.0752 84.1338 4.92285 84.1953 4.78223 84.2773C4.54199 84.418 4.33691 84.6201 4.16699 84.8838C4.00293 85.1416 3.87109 85.4434 3.77148 85.7891C3.69531 86.0586 3.63965 86.3574 3.60449 86.6855C3.56934 87.0078 3.55176 87.3564 3.55176 87.7314V89.4717C3.55176 89.9814 3.57812 90.4385 3.63086 90.8428C3.68945 91.2412 3.77734 91.5898 3.89453 91.8887C3.97656 92.0938 4.07324 92.2754 4.18457 92.4336C4.30176 92.5918 4.43359 92.7236 4.58008 92.8291C4.73828 92.9463 4.91406 93.0342 5.10742 93.0928C5.30664 93.1455 5.52637 93.1719 5.7666 93.1719C6.08887 93.1719 6.37891 93.1309 6.63672 93.0488C6.89453 92.9668 7.11426 92.8379 7.2959 92.6621C7.47754 92.4863 7.62109 92.2607 7.72656 91.9854C7.83203 91.71 7.89648 91.3789 7.91992 90.9922H10.3896ZM14.8457 86.7998C14.9688 86.6182 15.1035 86.4512 15.25 86.2988C15.4023 86.1406 15.5605 86.0029 15.7246 85.8857C15.9766 85.7041 16.2549 85.5635 16.5596 85.4639C16.8643 85.3643 17.1865 85.3145 17.5264 85.3145C18.0244 85.3145 18.4814 85.3906 18.8975 85.543C19.3135 85.6895 19.6709 85.9209 19.9697 86.2373C20.2686 86.5537 20.5 86.9609 20.6641 87.459C20.834 87.9512 20.9189 88.5459 20.9189 89.2432V95H18.4756V89.2256C18.4756 88.8857 18.4316 88.5928 18.3438 88.3467C18.2617 88.1006 18.1416 87.9014 17.9834 87.749C17.8252 87.5967 17.6348 87.4854 17.4121 87.415C17.1895 87.3389 16.9375 87.3008 16.6562 87.3008C16.4395 87.3008 16.2373 87.3213 16.0498 87.3623C15.8623 87.4033 15.6924 87.4648 15.54 87.5469C15.3994 87.6172 15.2705 87.7021 15.1533 87.8018C15.042 87.9014 14.9395 88.0127 14.8457 88.1357V95H12.4023V81.5H14.8457V86.7998ZM29.1543 95C29.0957 94.8828 29.0459 94.748 29.0049 94.5957C28.9639 94.4434 28.9287 94.2822 28.8994 94.1123C28.7646 94.2588 28.6094 94.3965 28.4336 94.5254C28.2578 94.6543 28.0645 94.7656 27.8535 94.8594C27.6367 94.959 27.3994 95.0352 27.1416 95.0879C26.8838 95.1465 26.6055 95.1758 26.3066 95.1758C25.8203 95.1758 25.3721 95.1055 24.9619 94.9648C24.5576 94.8242 24.209 94.6279 23.916 94.376C23.623 94.124 23.3945 93.8252 23.2305 93.4795C23.0664 93.1279 22.9844 92.7471 22.9844 92.3369C22.9844 91.8096 23.0869 91.3438 23.292 90.9395C23.4971 90.5293 23.8047 90.1924 24.2148 89.9287C24.584 89.6885 25.0381 89.5068 25.5771 89.3838C26.1221 89.2549 26.7461 89.1904 27.4492 89.1904H28.8115V88.6279C28.8115 88.4053 28.7764 88.2061 28.7061 88.0303C28.6357 87.8486 28.5303 87.6934 28.3896 87.5645C28.2432 87.4297 28.0586 87.3271 27.8359 87.2568C27.6191 87.1807 27.3643 87.1426 27.0713 87.1426C26.8135 87.1426 26.5908 87.1748 26.4033 87.2393C26.2158 87.2979 26.0635 87.3828 25.9463 87.4941C25.8408 87.5938 25.7617 87.7139 25.709 87.8545C25.6621 87.9951 25.6387 88.1504 25.6387 88.3203H23.1953C23.1953 87.916 23.2832 87.5322 23.459 87.1689C23.6406 86.8057 23.9043 86.4863 24.25 86.2109C24.5898 85.9355 25.0059 85.7188 25.498 85.5605C25.9961 85.3965 26.5645 85.3145 27.2031 85.3145C27.7773 85.3145 28.3105 85.3848 28.8027 85.5254C29.3008 85.666 29.7314 85.874 30.0947 86.1494C30.458 86.4248 30.7422 86.7734 30.9473 87.1953C31.1523 87.6113 31.2549 88.0947 31.2549 88.6455V92.7236C31.2549 93.2334 31.2871 93.6553 31.3516 93.9893C31.416 94.3232 31.5098 94.6104 31.6328 94.8506V95H29.1543ZM26.8252 93.2861C27.0713 93.2861 27.2998 93.2568 27.5107 93.1982C27.7217 93.1396 27.9121 93.0635 28.082 92.9697C28.252 92.876 28.3984 92.7705 28.5215 92.6533C28.6445 92.5303 28.7412 92.4072 28.8115 92.2842V90.6494H27.5635C27.1826 90.6494 26.8574 90.6875 26.5879 90.7637C26.3184 90.834 26.0986 90.9336 25.9287 91.0625C25.7588 91.1973 25.6328 91.3584 25.5508 91.5459C25.4688 91.7275 25.4277 91.9268 25.4277 92.1436C25.4277 92.3135 25.457 92.4717 25.5156 92.6182C25.5801 92.7588 25.6709 92.8789 25.7881 92.9785C25.9053 93.0723 26.0488 93.1484 26.2188 93.207C26.3945 93.2598 26.5967 93.2861 26.8252 93.2861ZM34.5332 81.5H39.8506V93.0137H42.5752V95H34.5332V93.0137H37.3809V83.4951H34.5332V81.5ZM45.3438 81.5H50.6611V93.0137H53.3857V95H45.3438V93.0137H48.1914V83.4951H45.3438V81.5ZM60.2588 95.1758C59.5264 95.1758 58.8613 95.0557 58.2637 94.8154C57.666 94.5752 57.1533 94.2471 56.7256 93.8311C56.2979 93.4209 55.9668 92.9375 55.7324 92.3809C55.5039 91.8184 55.3896 91.2178 55.3896 90.5791V90.2275C55.3896 89.501 55.5039 88.8389 55.7324 88.2412C55.9609 87.6377 56.2803 87.1191 56.6904 86.6855C57.1006 86.252 57.5869 85.915 58.1494 85.6748C58.7119 85.4346 59.3242 85.3145 59.9863 85.3145C60.6719 85.3145 61.2812 85.4287 61.8145 85.6572C62.3535 85.8799 62.8105 86.1963 63.1855 86.6064C63.5547 87.0166 63.8359 87.5117 64.0293 88.0918C64.2227 88.666 64.3193 89.3018 64.3193 89.999V91.0361H57.8682V91.0625C57.9502 91.4434 58.0557 91.751 58.1846 91.9854C58.3135 92.2139 58.4863 92.4219 58.7031 92.6094C58.9258 92.8027 59.1807 92.9521 59.4678 93.0576C59.7549 93.1631 60.0684 93.2158 60.4082 93.2158C60.8887 93.2158 61.3545 93.125 61.8057 92.9434C62.2568 92.7617 62.623 92.4893 62.9043 92.126L64.126 93.4443C63.8154 93.8838 63.3232 94.2822 62.6494 94.6396C61.9756 94.9971 61.1787 95.1758 60.2588 95.1758ZM59.9688 87.292C59.6934 87.292 59.4414 87.3418 59.2129 87.4414C58.9844 87.5352 58.7852 87.6729 58.6152 87.8545C58.4395 88.0361 58.293 88.2529 58.1758 88.5049C58.0586 88.7568 57.9707 89.0381 57.9121 89.3486H61.9199V89.1553C61.9199 88.8975 61.873 88.6543 61.7793 88.4258C61.6855 88.1973 61.5566 87.998 61.3926 87.8281C61.2285 87.6641 61.0264 87.5352 60.7861 87.4414C60.5518 87.3418 60.2793 87.292 59.9688 87.292ZM66.4551 95V85.4902H68.6699L68.8193 86.8086C68.9424 86.6328 69.0771 86.4717 69.2236 86.3252C69.3701 86.1787 69.5254 86.0469 69.6895 85.9297C69.9707 85.7305 70.2783 85.5781 70.6123 85.4727C70.9463 85.3672 71.3008 85.3145 71.6758 85.3145C72.1562 85.3145 72.5957 85.3848 72.9941 85.5254C73.3926 85.666 73.7383 85.8887 74.0312 86.1934C74.3184 86.5039 74.541 86.9023 74.6992 87.3887C74.8633 87.8691 74.9453 88.4551 74.9453 89.1465V95H72.502V89.1816C72.502 88.8066 72.458 88.499 72.3701 88.2588C72.2881 88.0127 72.168 87.8193 72.0098 87.6787C71.8516 87.5381 71.6611 87.4414 71.4385 87.3887C71.2158 87.3301 70.9639 87.3008 70.6826 87.3008C70.4482 87.3008 70.2314 87.3271 70.0322 87.3799C69.8389 87.4326 69.666 87.5117 69.5137 87.6172C69.3906 87.6934 69.2793 87.7842 69.1797 87.8896C69.0801 87.9951 68.9893 88.1123 68.9072 88.2412V95H66.4551ZM77.0195 90.1748C77.0195 89.4541 77.1074 88.7949 77.2832 88.1973C77.4648 87.5996 77.7227 87.0869 78.0566 86.6592C78.3906 86.2314 78.7949 85.9004 79.2695 85.666C79.7441 85.4316 80.2803 85.3145 80.8779 85.3145C81.2002 85.3145 81.4932 85.3467 81.7568 85.4111C82.0264 85.4697 82.2695 85.5605 82.4863 85.6836C82.6504 85.7715 82.8027 85.877 82.9434 86C83.084 86.1172 83.2129 86.249 83.3301 86.3955L83.4268 85.4902H85.6504V94.6924C85.6504 95.3369 85.5391 95.9111 85.3164 96.415C85.0996 96.9189 84.7949 97.3438 84.4023 97.6895C84.0039 98.0352 83.5264 98.2959 82.9697 98.4717C82.4189 98.6533 81.8096 98.7441 81.1416 98.7441C80.8545 98.7441 80.5469 98.7148 80.2188 98.6562C79.8906 98.5977 79.5654 98.5068 79.2432 98.3838C78.9209 98.2607 78.6162 98.1025 78.3291 97.9092C78.042 97.7217 77.7959 97.4961 77.5908 97.2324L78.6895 95.7471C78.8477 95.9287 79.0176 96.0869 79.1992 96.2217C79.3809 96.3623 79.5713 96.4766 79.7705 96.5645C79.9639 96.6523 80.1631 96.7168 80.3682 96.7578C80.5791 96.8047 80.7959 96.8281 81.0186 96.8281C81.376 96.8281 81.6924 96.7783 81.9678 96.6787C82.249 96.5791 82.4834 96.4326 82.6709 96.2393C82.8408 96.0635 82.9697 95.8467 83.0576 95.5889C83.1514 95.3311 83.1982 95.041 83.1982 94.7188V94.1738C83.0811 94.3027 82.958 94.4199 82.8291 94.5254C82.7002 94.6309 82.5625 94.7246 82.416 94.8066C82.1992 94.9238 81.959 95.0146 81.6953 95.0791C81.4375 95.1436 81.1592 95.1758 80.8604 95.1758C80.2686 95.1758 79.7354 95.0557 79.2607 94.8154C78.792 94.5693 78.3906 94.2324 78.0566 93.8047C77.7227 93.377 77.4648 92.8701 77.2832 92.2842C77.1074 91.6924 77.0195 91.0508 77.0195 90.3594V90.1748ZM79.4717 90.3594C79.4717 90.7578 79.5098 91.1299 79.5859 91.4756C79.668 91.8154 79.791 92.1113 79.9551 92.3633C80.1191 92.6211 80.3271 92.8232 80.5791 92.9697C80.8311 93.1162 81.1299 93.1895 81.4756 93.1895C81.6865 93.1895 81.877 93.1689 82.0469 93.1279C82.2227 93.0869 82.3809 93.0283 82.5215 92.9521C82.668 92.8701 82.7969 92.7705 82.9082 92.6533C83.0195 92.5361 83.1162 92.4043 83.1982 92.2578V88.2324C83.1104 88.0684 83.0049 87.9248 82.8818 87.8018C82.7588 87.6787 82.6182 87.5791 82.46 87.5029C82.3252 87.4385 82.1758 87.3887 82.0117 87.3535C81.8535 87.3184 81.6807 87.3008 81.4932 87.3008C81.1475 87.3008 80.8486 87.377 80.5967 87.5293C80.3447 87.6758 80.1367 87.8779 79.9727 88.1357C79.8027 88.3994 79.6768 88.707 79.5947 89.0586C79.5127 89.4043 79.4717 89.7764 79.4717 90.1748V90.3594ZM92.6904 95.1758C91.958 95.1758 91.293 95.0557 90.6953 94.8154C90.0977 94.5752 89.585 94.2471 89.1572 93.8311C88.7295 93.4209 88.3984 92.9375 88.1641 92.3809C87.9355 91.8184 87.8213 91.2178 87.8213 90.5791V90.2275C87.8213 89.501 87.9355 88.8389 88.1641 88.2412C88.3926 87.6377 88.7119 87.1191 89.1221 86.6855C89.5322 86.252 90.0186 85.915 90.5811 85.6748C91.1436 85.4346 91.7559 85.3145 92.418 85.3145C93.1035 85.3145 93.7129 85.4287 94.2461 85.6572C94.7852 85.8799 95.2422 86.1963 95.6172 86.6064C95.9863 87.0166 96.2676 87.5117 96.4609 88.0918C96.6543 88.666 96.751 89.3018 96.751 89.999V91.0361H90.2998V91.0625C90.3818 91.4434 90.4873 91.751 90.6162 91.9854C90.7451 92.2139 90.918 92.4219 91.1348 92.6094C91.3574 92.8027 91.6123 92.9521 91.8994 93.0576C92.1865 93.1631 92.5 93.2158 92.8398 93.2158C93.3203 93.2158 93.7861 93.125 94.2373 92.9434C94.6885 92.7617 95.0547 92.4893 95.3359 92.126L96.5576 93.4443C96.2471 93.8838 95.7549 94.2822 95.0811 94.6396C94.4072 94.9971 93.6104 95.1758 92.6904 95.1758ZM92.4004 87.292C92.125 87.292 91.873 87.3418 91.6445 87.4414C91.416 87.5352 91.2168 87.6729 91.0469 87.8545C90.8711 88.0361 90.7246 88.2529 90.6074 88.5049C90.4902 88.7568 90.4023 89.0381 90.3438 89.3486H94.3516V89.1553C94.3516 88.8975 94.3047 88.6543 94.2109 88.4258C94.1172 88.1973 93.9883 87.998 93.8242 87.8281C93.6602 87.6641 93.458 87.5352 93.2178 87.4414C92.9834 87.3418 92.7109 87.292 92.4004 87.292ZM40.9492 110.49L41.0195 111.642C41.2012 111.231 41.4502 110.909 41.7666 110.675C42.0889 110.435 42.4785 110.314 42.9355 110.314C43.1582 110.314 43.3574 110.341 43.5332 110.394C43.709 110.446 43.8613 110.528 43.9902 110.64C44.0898 110.722 44.1748 110.821 44.2451 110.938C44.3213 111.05 44.3857 111.179 44.4385 111.325C44.5205 111.185 44.6113 111.059 44.7109 110.947C44.8164 110.83 44.9307 110.73 45.0537 110.648C45.2061 110.543 45.3789 110.461 45.5723 110.402C45.7656 110.344 45.9766 110.314 46.2051 110.314C46.4922 110.314 46.7588 110.367 47.0049 110.473C47.2568 110.578 47.4766 110.745 47.6641 110.974C47.8457 111.208 47.9863 111.51 48.0859 111.879C48.1914 112.242 48.2441 112.688 48.2441 113.215V120H46.0205V113.206C46.0205 113.024 46 112.875 45.959 112.758C45.9238 112.641 45.874 112.547 45.8096 112.477C45.7451 112.412 45.6689 112.368 45.5811 112.345C45.499 112.315 45.4141 112.301 45.3262 112.301C45.2324 112.301 45.1475 112.312 45.0713 112.336C45.001 112.359 44.9336 112.392 44.8691 112.433C44.8164 112.474 44.7695 112.521 44.7285 112.573C44.6875 112.62 44.6523 112.676 44.623 112.74C44.623 112.752 44.623 112.778 44.623 112.819C44.623 112.86 44.623 112.916 44.623 112.986V120H42.4697V113.197C42.4697 113.016 42.4521 112.866 42.417 112.749C42.3818 112.632 42.335 112.541 42.2764 112.477C42.2119 112.412 42.1387 112.368 42.0566 112.345C41.9746 112.315 41.8867 112.301 41.793 112.301C41.6875 112.301 41.5938 112.318 41.5117 112.354C41.4297 112.389 41.3564 112.438 41.292 112.503C41.2451 112.55 41.2041 112.605 41.1689 112.67C41.1338 112.734 41.1016 112.805 41.0723 112.881V120H38.8486V110.49H40.9492ZM54.8535 120.176C54.1211 120.176 53.4561 120.056 52.8584 119.815C52.2607 119.575 51.748 119.247 51.3203 118.831C50.8926 118.421 50.5615 117.938 50.3271 117.381C50.0986 116.818 49.9844 116.218 49.9844 115.579V115.228C49.9844 114.501 50.0986 113.839 50.3271 113.241C50.5557 112.638 50.875 112.119 51.2852 111.686C51.6953 111.252 52.1816 110.915 52.7441 110.675C53.3066 110.435 53.9189 110.314 54.5811 110.314C55.2666 110.314 55.876 110.429 56.4092 110.657C56.9482 110.88 57.4053 111.196 57.7803 111.606C58.1494 112.017 58.4307 112.512 58.624 113.092C58.8174 113.666 58.9141 114.302 58.9141 114.999V116.036H52.4629V116.062C52.5449 116.443 52.6504 116.751 52.7793 116.985C52.9082 117.214 53.0811 117.422 53.2979 117.609C53.5205 117.803 53.7754 117.952 54.0625 118.058C54.3496 118.163 54.6631 118.216 55.0029 118.216C55.4834 118.216 55.9492 118.125 56.4004 117.943C56.8516 117.762 57.2178 117.489 57.499 117.126L58.7207 118.444C58.4102 118.884 57.918 119.282 57.2441 119.64C56.5703 119.997 55.7734 120.176 54.8535 120.176ZM54.5635 112.292C54.2881 112.292 54.0361 112.342 53.8076 112.441C53.5791 112.535 53.3799 112.673 53.21 112.854C53.0342 113.036 52.8877 113.253 52.7705 113.505C52.6533 113.757 52.5654 114.038 52.5068 114.349H56.5146V114.155C56.5146 113.897 56.4678 113.654 56.374 113.426C56.2803 113.197 56.1514 112.998 55.9873 112.828C55.8232 112.664 55.6211 112.535 55.3809 112.441C55.1465 112.342 54.874 112.292 54.5635 112.292Z" fill="#02F4BF"/>
</svg>
