<svg width="168" height="46" viewBox="0 0 168 46" fill="none" xmlns="http://www.w3.org/2000/svg">
<path d="M1.4981 5.00506C1.4981 3.6226 2.61596 2.5019 3.99492 2.5019L41.5932 2.5019C42.9721 2.5019 44.09 3.62261 44.09 5.00507L44.09 41.9949C44.09 43.3774 42.9722 44.4981 41.5932 44.4981L3.99493 44.4981C2.61597 44.4981 1.4981 43.3774 1.4981 41.9949L1.4981 5.00506Z" fill="#E15544" stroke="#E15544" stroke-width="3"/>
<path d="M21.3003 28.5552C21.3003 27.8805 21.3149 27.3085 21.3442 26.8392C21.3832 26.3698 21.4661 25.9445 21.5929 25.5631C21.7197 25.1916 21.9099 24.8493 22.1635 24.5364C22.417 24.2138 22.773 23.8715 23.2314 23.5097C23.563 23.2066 23.8947 22.8888 24.2263 22.5564C24.5579 22.2142 24.8602 21.8622 25.1333 21.5004C25.3967 21.1484 25.6112 20.7866 25.777 20.415C25.9428 20.0434 26.0257 19.6719 26.0257 19.3003C26.0257 18.8505 25.9623 18.4643 25.8355 18.1416C25.7088 17.8092 25.5283 17.5354 25.2942 17.3203C25.0504 17.1247 24.7529 16.978 24.4018 16.8803C24.0605 16.7825 23.6655 16.7336 23.2168 16.7336C22.8657 16.7336 22.5243 16.7825 22.1927 16.8803C21.8611 16.9683 21.5685 17.1149 21.3149 17.3203C21.0516 17.5256 20.837 17.7896 20.6712 18.1123C20.5152 18.435 20.4323 18.8212 20.4225 19.271L16.3408 19.271C16.3505 18.2736 16.5358 17.4083 16.8967 16.6749C17.2576 15.9318 17.7452 15.3158 18.3597 14.8269C18.9741 14.338 19.6959 13.9762 20.5249 13.7415C21.3539 13.4971 22.2512 13.3749 23.2168 13.3749C24.2994 13.3749 25.2699 13.4971 26.1281 13.7415C26.9864 13.986 27.713 14.3478 28.308 14.8269C28.8932 15.3158 29.3418 15.9171 29.6539 16.6309C29.966 17.3447 30.1221 18.171 30.1221 19.1096C30.1221 19.8039 30.0051 20.4395 29.771 21.0164C29.5369 21.5835 29.2345 22.1115 28.8639 22.6004C28.4933 23.0991 28.069 23.5733 27.5911 24.0231C27.123 24.4631 26.6499 24.8933 26.172 25.3138C25.8794 25.6071 25.6502 25.8662 25.4844 26.0911C25.3186 26.316 25.2016 26.5458 25.1333 26.7805C25.0553 27.0152 25.0065 27.2743 24.987 27.5578C24.9675 27.8316 24.9578 28.1641 24.9578 28.5552L21.3003 28.5552ZM20.7005 32.9993C20.7005 32.3539 20.9102 31.8162 21.3296 31.3859C21.7489 30.9459 22.3293 30.7259 23.0705 30.7259C23.7922 30.7259 24.3677 30.9459 24.7968 31.3859C25.2357 31.8162 25.4552 32.3539 25.4552 32.9993C25.4552 33.6251 25.2357 34.1531 24.7968 34.5833C24.3677 35.0038 23.7922 35.214 23.0705 35.214C22.3293 35.214 21.7489 35.0038 21.3296 34.5833C20.9102 34.1531 20.7005 33.6251 20.7005 32.9993Z" fill="#02F4BF"/>
<path d="M70.3145 12.5781C70.2467 13.1042 70.1113 13.5885 69.9082 14.0312C69.7051 14.4688 69.4421 14.8438 69.1191 15.1562C68.791 15.474 68.403 15.7214 67.9551 15.8984C67.5124 16.0703 67.0176 16.1562 66.4707 16.1562C66.002 16.1562 65.5749 16.0911 65.1895 15.9609C64.8092 15.8255 64.4707 15.6406 64.1738 15.4062C63.8717 15.1719 63.6113 14.8958 63.3926 14.5781C63.179 14.2604 63.002 13.9141 62.8613 13.5391C62.7155 13.1641 62.6061 12.7708 62.5332 12.3594C62.4655 11.9479 62.429 11.5312 62.4238 11.1094V9.52344C62.429 9.10156 62.4655 8.6849 62.5332 8.27344C62.6061 7.86198 62.7155 7.46875 62.8613 7.09375C63.002 6.71875 63.179 6.3724 63.3926 6.05469C63.6113 5.73177 63.8717 5.45312 64.1738 5.21875C64.4707 4.98438 64.8092 4.80208 65.1895 4.67188C65.5697 4.53646 65.9967 4.46875 66.4707 4.46875C67.0384 4.46875 67.5462 4.55729 67.9941 4.73438C68.4421 4.90625 68.8275 5.15104 69.1504 5.46875C69.4733 5.79167 69.7311 6.17708 69.9238 6.625C70.1217 7.07292 70.252 7.56771 70.3145 8.10938H68.8691C68.8223 7.76562 68.7415 7.44531 68.627 7.14844C68.5124 6.85156 68.3587 6.59115 68.166 6.36719C67.9733 6.14323 67.7363 5.96875 67.4551 5.84375C67.179 5.71354 66.8509 5.64844 66.4707 5.64844C66.127 5.64844 65.8223 5.70573 65.5566 5.82031C65.2962 5.92969 65.0723 6.08073 64.8848 6.27344C64.6921 6.46615 64.5306 6.6901 64.4004 6.94531C64.2754 7.20052 64.1738 7.47135 64.0957 7.75781C64.0176 8.04427 63.9603 8.33854 63.9238 8.64062C63.8926 8.9375 63.877 9.22656 63.877 9.50781V11.1094C63.877 11.3906 63.8926 11.6823 63.9238 11.9844C63.9603 12.2812 64.0176 12.5729 64.0957 12.8594C64.1738 13.151 64.2754 13.4245 64.4004 13.6797C64.5254 13.9349 64.6842 14.1589 64.877 14.3516C65.0697 14.5495 65.2962 14.7057 65.5566 14.8203C65.8171 14.9297 66.1217 14.9844 66.4707 14.9844C66.8509 14.9844 67.179 14.9245 67.4551 14.8047C67.7363 14.6849 67.9733 14.5156 68.166 14.2969C68.3587 14.0833 68.5124 13.8307 68.627 13.5391C68.7415 13.2422 68.8223 12.9219 68.8691 12.5781H70.3145ZM74.002 8.80469C74.1165 8.63281 74.2441 8.47656 74.3848 8.33594C74.5254 8.1901 74.6738 8.0625 74.8301 7.95312C75.0801 7.77083 75.3535 7.63281 75.6504 7.53906C75.9525 7.44531 76.2728 7.39583 76.6113 7.39062C77.054 7.39062 77.4551 7.45573 77.8145 7.58594C78.179 7.71094 78.4889 7.90885 78.7441 8.17969C78.9993 8.45052 79.1947 8.79427 79.3301 9.21094C79.4707 9.6224 79.541 10.112 79.541 10.6797V16H78.0957V10.6641C78.0957 10.3307 78.0566 10.0391 77.9785 9.78906C77.9004 9.53385 77.7858 9.32292 77.6348 9.15625C77.4733 8.97396 77.2702 8.83854 77.0254 8.75C76.7806 8.65625 76.4993 8.61198 76.1816 8.61719C75.9212 8.61719 75.6738 8.65365 75.4395 8.72656C75.2051 8.79948 74.9889 8.90365 74.791 9.03906C74.6348 9.14323 74.4889 9.26562 74.3535 9.40625C74.2233 9.54167 74.1061 9.69271 74.002 9.85938V16H72.5566V4H74.002V8.80469ZM87.7207 16C87.6634 15.8906 87.6165 15.7552 87.5801 15.5938C87.5488 15.4271 87.5254 15.2552 87.5098 15.0781C87.3639 15.224 87.1999 15.362 87.0176 15.4922C86.8405 15.6224 86.6452 15.737 86.4316 15.8359C86.2129 15.9349 85.9811 16.013 85.7363 16.0703C85.4915 16.1276 85.2311 16.1562 84.9551 16.1562C84.5072 16.1562 84.1009 16.0911 83.7363 15.9609C83.377 15.8307 83.0723 15.6536 82.8223 15.4297C82.5671 15.2109 82.3691 14.9505 82.2285 14.6484C82.0931 14.3411 82.0254 14.0104 82.0254 13.6562C82.0254 13.1927 82.1165 12.7865 82.2988 12.4375C82.4863 12.0885 82.7493 11.7969 83.0879 11.5625C83.4264 11.3333 83.8327 11.1615 84.3066 11.0469C84.7858 10.9323 85.3197 10.875 85.9082 10.875H87.4863V10.2109C87.4863 9.95573 87.4395 9.72656 87.3457 9.52344C87.252 9.32031 87.1191 9.14583 86.9473 9C86.7754 8.85938 86.5645 8.75 86.3145 8.67188C86.0697 8.59375 85.7936 8.55469 85.4863 8.55469C85.1999 8.55469 84.9421 8.59115 84.7129 8.66406C84.4889 8.73698 84.2988 8.83333 84.1426 8.95312C83.9863 9.07292 83.8639 9.21615 83.7754 9.38281C83.6921 9.54427 83.6504 9.71354 83.6504 9.89062H82.1973C82.2025 9.58333 82.2806 9.28125 82.4316 8.98438C82.5879 8.6875 82.8118 8.41927 83.1035 8.17969C83.39 7.94531 83.7389 7.75521 84.1504 7.60938C84.5671 7.46354 85.0384 7.39062 85.5645 7.39062C86.0436 7.39062 86.4889 7.45052 86.9004 7.57031C87.3118 7.6849 87.6686 7.85938 87.9707 8.09375C88.2676 8.33333 88.502 8.63021 88.6738 8.98438C88.8457 9.33854 88.9316 9.7526 88.9316 10.2266V14.1562C88.9316 14.4375 88.9577 14.737 89.0098 15.0547C89.0618 15.3672 89.1348 15.6406 89.2285 15.875V16H87.7207ZM85.166 14.8984C85.4473 14.8984 85.7103 14.862 85.9551 14.7891C86.1999 14.7161 86.4238 14.6198 86.627 14.5C86.8249 14.3802 86.9967 14.2448 87.1426 14.0938C87.2884 13.9375 87.403 13.776 87.4863 13.6094V11.8984H86.1426C85.6426 11.8984 85.2051 11.9427 84.8301 12.0312C84.4603 12.1146 84.166 12.2448 83.9473 12.4219C83.791 12.5469 83.6712 12.6953 83.5879 12.8672C83.5098 13.0391 83.4707 13.2344 83.4707 13.4531C83.4707 13.6615 83.5046 13.8542 83.5723 14.0312C83.6452 14.2083 83.752 14.3594 83.8926 14.4844C84.0332 14.6146 84.2103 14.7161 84.4238 14.7891C84.6374 14.862 84.8848 14.8984 85.166 14.8984ZM92.002 4H96.3223V14.75H99.0801V16H92.002V14.75H94.877V5.25781H92.002V4ZM101.611 4H105.932V14.75H108.689V16H101.611V14.75H104.486V5.25781H101.611V4ZM114.729 16.1562C114.135 16.1562 113.588 16.0547 113.088 15.8516C112.593 15.6484 112.169 15.3646 111.814 15C111.46 14.6354 111.184 14.2031 110.986 13.7031C110.788 13.2031 110.689 12.6589 110.689 12.0703V11.7422C110.689 11.0599 110.799 10.4505 111.018 9.91406C111.236 9.3724 111.528 8.91406 111.893 8.53906C112.252 8.16927 112.661 7.88542 113.119 7.6875C113.583 7.48958 114.057 7.39062 114.541 7.39062C115.15 7.39062 115.682 7.4974 116.135 7.71094C116.593 7.91927 116.973 8.20833 117.275 8.57812C117.577 8.95312 117.801 9.39323 117.947 9.89844C118.098 10.4036 118.174 10.9505 118.174 11.5391V12.1875H112.135V12.2422C112.171 12.6536 112.252 13.0156 112.377 13.3281C112.507 13.6406 112.684 13.9167 112.908 14.1562C113.137 14.4115 113.413 14.612 113.736 14.7578C114.059 14.9036 114.416 14.9766 114.807 14.9766C115.322 14.9766 115.781 14.8724 116.182 14.6641C116.583 14.4557 116.916 14.1797 117.182 13.8359L118.064 14.5234C117.783 14.9505 117.361 15.3307 116.799 15.6641C116.242 15.9922 115.551 16.1562 114.729 16.1562ZM114.541 8.57812C114.249 8.57812 113.973 8.63281 113.713 8.74219C113.452 8.84635 113.218 9 113.01 9.20312C112.801 9.41146 112.624 9.66667 112.479 9.96875C112.338 10.2656 112.239 10.6094 112.182 11H116.729V10.9297C116.729 10.6693 116.679 10.3906 116.58 10.0938C116.481 9.79167 116.343 9.53125 116.166 9.3125C115.989 9.09375 115.765 8.91667 115.494 8.78125C115.229 8.64583 114.911 8.57812 114.541 8.57812ZM120.604 16V7.54688H121.9L122.002 8.79688C122.127 8.61979 122.262 8.45833 122.408 8.3125C122.559 8.16146 122.718 8.03125 122.885 7.92188C123.135 7.75521 123.406 7.6276 123.697 7.53906C123.994 7.44531 124.307 7.39583 124.635 7.39062C125.077 7.39062 125.479 7.45312 125.838 7.57812C126.202 7.70312 126.512 7.89844 126.768 8.16406C127.023 8.42969 127.218 8.76823 127.354 9.17969C127.494 9.58594 127.564 10.0703 127.564 10.6328V16H126.119V10.6641C126.119 10.2891 126.077 9.97135 125.994 9.71094C125.911 9.45052 125.788 9.23958 125.627 9.07812C125.46 8.91667 125.257 8.79948 125.018 8.72656C124.783 8.65365 124.512 8.61719 124.205 8.61719C123.939 8.61719 123.692 8.65625 123.463 8.73438C123.234 8.80729 123.023 8.90885 122.83 9.03906C122.674 9.15365 122.528 9.28646 122.393 9.4375C122.262 9.58854 122.148 9.75521 122.049 9.9375V16H120.604ZM129.947 11.7031C129.947 11.0729 130.023 10.4948 130.174 9.96875C130.33 9.4375 130.554 8.98177 130.846 8.60156C131.137 8.22135 131.492 7.92448 131.908 7.71094C132.325 7.4974 132.796 7.39062 133.322 7.39062C133.661 7.39062 133.971 7.42969 134.252 7.50781C134.538 7.58594 134.796 7.70052 135.025 7.85156C135.15 7.92969 135.268 8.02083 135.377 8.125C135.492 8.22917 135.598 8.34375 135.697 8.46875L135.768 7.54688H137.08V15.8203C137.08 16.3776 136.992 16.8724 136.814 17.3047C136.643 17.737 136.4 18.1042 136.088 18.4062C135.77 18.7083 135.393 18.9375 134.955 19.0938C134.518 19.25 134.033 19.3281 133.502 19.3281C133.283 19.3281 133.033 19.3021 132.752 19.25C132.471 19.2031 132.187 19.1224 131.9 19.0078C131.609 18.8984 131.327 18.75 131.057 18.5625C130.791 18.375 130.562 18.1432 130.369 17.8672L131.119 17C131.296 17.2135 131.479 17.3932 131.666 17.5391C131.854 17.6901 132.044 17.8099 132.236 17.8984C132.429 17.987 132.622 18.0495 132.814 18.0859C133.007 18.1276 133.2 18.1484 133.393 18.1484C133.736 18.1484 134.046 18.099 134.322 18C134.598 17.901 134.835 17.7552 135.033 17.5625C135.226 17.375 135.374 17.1406 135.479 16.8594C135.583 16.5781 135.635 16.2552 135.635 15.8906V15.1641C135.525 15.2891 135.408 15.4036 135.283 15.5078C135.163 15.612 135.033 15.7031 134.893 15.7812C134.674 15.901 134.432 15.9922 134.166 16.0547C133.9 16.1224 133.614 16.1562 133.307 16.1562C132.791 16.1562 132.325 16.0469 131.908 15.8281C131.492 15.6094 131.14 15.3073 130.854 14.9219C130.562 14.5365 130.338 14.0833 130.182 13.5625C130.025 13.0365 129.947 12.4714 129.947 11.8672V11.7031ZM131.393 11.8672C131.393 12.2786 131.434 12.6693 131.518 13.0391C131.606 13.4089 131.744 13.7344 131.932 14.0156C132.114 14.2969 132.348 14.5208 132.635 14.6875C132.921 14.849 133.265 14.9297 133.666 14.9297C133.916 14.9297 134.14 14.901 134.338 14.8438C134.541 14.7812 134.723 14.6953 134.885 14.5859C135.041 14.4766 135.182 14.3464 135.307 14.1953C135.432 14.0443 135.541 13.8776 135.635 13.6953V9.82031C135.541 9.64323 135.432 9.48177 135.307 9.33594C135.182 9.1901 135.038 9.0625 134.877 8.95312C134.715 8.84896 134.536 8.76823 134.338 8.71094C134.14 8.64844 133.921 8.61719 133.682 8.61719C133.275 8.61719 132.926 8.70052 132.635 8.86719C132.348 9.03385 132.114 9.25781 131.932 9.53906C131.744 9.82552 131.606 10.1562 131.518 10.5312C131.434 10.901 131.393 11.2917 131.393 11.7031V11.8672ZM143.557 16.1562C142.963 16.1562 142.416 16.0547 141.916 15.8516C141.421 15.6484 140.997 15.3646 140.643 15C140.288 14.6354 140.012 14.2031 139.814 13.7031C139.617 13.2031 139.518 12.6589 139.518 12.0703V11.7422C139.518 11.0599 139.627 10.4505 139.846 9.91406C140.064 9.3724 140.356 8.91406 140.721 8.53906C141.08 8.16927 141.489 7.88542 141.947 7.6875C142.411 7.48958 142.885 7.39062 143.369 7.39062C143.979 7.39062 144.51 7.4974 144.963 7.71094C145.421 7.91927 145.801 8.20833 146.104 8.57812C146.406 8.95312 146.63 9.39323 146.775 9.89844C146.926 10.4036 147.002 10.9505 147.002 11.5391V12.1875H140.963V12.2422C140.999 12.6536 141.08 13.0156 141.205 13.3281C141.335 13.6406 141.512 13.9167 141.736 14.1562C141.965 14.4115 142.242 14.612 142.564 14.7578C142.887 14.9036 143.244 14.9766 143.635 14.9766C144.15 14.9766 144.609 14.8724 145.01 14.6641C145.411 14.4557 145.744 14.1797 146.01 13.8359L146.893 14.5234C146.611 14.9505 146.189 15.3307 145.627 15.6641C145.07 15.9922 144.38 16.1562 143.557 16.1562ZM143.369 8.57812C143.077 8.57812 142.801 8.63281 142.541 8.74219C142.281 8.84635 142.046 9 141.838 9.20312C141.63 9.41146 141.452 9.66667 141.307 9.96875C141.166 10.2656 141.067 10.6094 141.01 11H145.557V10.9297C145.557 10.6693 145.507 10.3906 145.408 10.0938C145.309 9.79167 145.171 9.53125 144.994 9.3125C144.817 9.09375 144.593 8.91667 144.322 8.78125C144.057 8.64583 143.739 8.57812 143.369 8.57812ZM63.6113 26.5469L63.6504 27.3438C63.8223 27.0469 64.0462 26.8151 64.3223 26.6484C64.6035 26.4818 64.9421 26.3958 65.3379 26.3906C65.5618 26.3906 65.7624 26.4167 65.9395 26.4688C66.1217 26.5156 66.2806 26.5859 66.416 26.6797C66.515 26.7526 66.6035 26.8411 66.6816 26.9453C66.765 27.0495 66.8353 27.1667 66.8926 27.2969C66.9655 27.1771 67.0514 27.0651 67.1504 26.9609C67.2493 26.8568 67.3561 26.7656 67.4707 26.6875C67.6165 26.599 67.778 26.5286 67.9551 26.4766C68.1374 26.4245 68.3353 26.3958 68.5488 26.3906C68.8405 26.3906 69.1035 26.4349 69.3379 26.5234C69.5723 26.6068 69.7702 26.7318 69.9316 26.8984C70.1087 27.0859 70.2441 27.3307 70.3379 27.6328C70.4316 27.9297 70.4785 28.2812 70.4785 28.6875V35H69.1035V28.6719C69.1035 28.4948 69.0827 28.3385 69.041 28.2031C68.9993 28.0677 68.9395 27.9557 68.8613 27.8672C68.778 27.7839 68.6738 27.7214 68.5488 27.6797C68.429 27.638 68.2884 27.6172 68.127 27.6172C67.9551 27.6172 67.8066 27.6406 67.6816 27.6875C67.5566 27.7344 67.4525 27.7969 67.3691 27.875C67.2858 27.9583 67.2207 28.0547 67.1738 28.1641C67.127 28.2682 67.0957 28.3854 67.0801 28.5156C67.0801 28.5417 67.0801 28.5677 67.0801 28.5938C67.0801 28.6146 67.0801 28.6406 67.0801 28.6719V35H65.7051V28.6641C65.7051 28.487 65.6842 28.3307 65.6426 28.1953C65.6061 28.0599 65.5462 27.9479 65.4629 27.8594C65.3848 27.776 65.2858 27.7161 65.166 27.6797C65.0514 27.638 64.916 27.6172 64.7598 27.6172C64.5879 27.6172 64.4368 27.638 64.3066 27.6797C64.1816 27.7161 64.0749 27.7708 63.9863 27.8438C63.9186 27.901 63.8587 27.9661 63.8066 28.0391C63.7598 28.112 63.7207 28.1901 63.6895 28.2734V35H62.3145V26.5469H63.6113ZM76.291 35.1562C75.6973 35.1562 75.1504 35.0547 74.6504 34.8516C74.1556 34.6484 73.7311 34.3646 73.377 34C73.0228 33.6354 72.7467 33.2031 72.5488 32.7031C72.3509 32.2031 72.252 31.6589 72.252 31.0703V30.7422C72.252 30.0599 72.3613 29.4505 72.5801 28.9141C72.7988 28.3724 73.0905 27.9141 73.4551 27.5391C73.8145 27.1693 74.2233 26.8854 74.6816 26.6875C75.1452 26.4896 75.6191 26.3906 76.1035 26.3906C76.7129 26.3906 77.2441 26.4974 77.6973 26.7109C78.1556 26.9193 78.5358 27.2083 78.8379 27.5781C79.14 27.9531 79.3639 28.3932 79.5098 28.8984C79.6608 29.4036 79.7363 29.9505 79.7363 30.5391V31.1875H73.6973V31.2422C73.7337 31.6536 73.8145 32.0156 73.9395 32.3281C74.0697 32.6406 74.2467 32.9167 74.4707 33.1562C74.6999 33.4115 74.9759 33.612 75.2988 33.7578C75.6217 33.9036 75.9785 33.9766 76.3691 33.9766C76.8848 33.9766 77.3431 33.8724 77.7441 33.6641C78.1452 33.4557 78.4785 33.1797 78.7441 32.8359L79.627 33.5234C79.3457 33.9505 78.9238 34.3307 78.3613 34.6641C77.804 34.9922 77.1139 35.1562 76.291 35.1562ZM76.1035 27.5781C75.8118 27.5781 75.5358 27.6328 75.2754 27.7422C75.015 27.8464 74.7806 28 74.5723 28.2031C74.3639 28.4115 74.1868 28.6667 74.041 28.9688C73.9004 29.2656 73.8014 29.6094 73.7441 30H78.291V29.9297C78.291 29.6693 78.2415 29.3906 78.1426 29.0938C78.0436 28.7917 77.9056 28.5312 77.7285 28.3125C77.5514 28.0938 77.3275 27.9167 77.0566 27.7812C76.791 27.6458 76.4733 27.5781 76.1035 27.5781Z" fill="#02F4BF"/>
</svg>
