<svg width="95" height="129" viewBox="0 0 95 129" fill="none" xmlns="http://www.w3.org/2000/svg">
<g clip-path="url(#clip0_3021_1399)">
<path d="M25.9 14.3V54.8C21 49.4 18 42.3 18 34.5C18 26.7 21 19.6 25.9 14.3Z" fill="#02F4BF"/>
<path d="M29.0996 18.7L46.3996 53.4H29.0996V18.7Z" fill="#02F4BF"/>
<path d="M48 49.5001L31 15.6001H65L48 49.5001Z" fill="#02F4BF"/>
<path d="M47.9998 4.5C55.7998 4.5 62.8998 7.5 68.1998 12.4H27.7998C33.0998 7.5 40.1998 4.5 47.9998 4.5Z" fill="#02F4BF"/>
<path d="M66.8996 53.4H49.5996L66.8996 18.7V53.4Z" fill="#02F4BF"/>
<path d="M68.1998 56.6001C62.8998 61.5001 55.7998 64.5001 47.9998 64.5001C40.1998 64.5001 33.0998 61.5001 27.7998 56.6001H68.1998Z" fill="#02F4BF"/>
<path d="M70.0996 54.7001V14.3C74.9996 19.6 77.9996 26.7 77.9996 34.5C77.9996 42.3 74.9996 49.4001 70.0996 54.7001Z" fill="#02F4BF"/>
<path d="M29.0996 18.7002L46.3996 53.4002H29.0996V18.7002Z" fill="#02F4BF"/>
<path d="M48 49.5001L31 15.6001H65L48 49.5001Z" fill="#02F4BF"/>
<path d="M49.5996 53.4002L66.8996 18.7002V53.4002H49.5996Z" fill="#02F4BF"/>
<path d="M31 15.6001H65L48 49.5001L31 15.6001Z" fill="#02F4BF"/>
</g>
<path d="M3.53613 80.7031L4.74902 85.5107L6.12891 80.7031H9.19629V93.5H6.92871V89.7119L7.03418 83.7266L5.35547 89.2812H4.13379L2.63086 83.9639L2.73633 89.7119V93.5H0.46875V80.7031H3.53613ZM17.3438 93.5C17.2852 93.3828 17.2354 93.248 17.1943 93.0957C17.1533 92.9434 17.1182 92.7822 17.0889 92.6123C16.9541 92.7588 16.7988 92.8965 16.623 93.0254C16.4473 93.1543 16.2539 93.2656 16.043 93.3594C15.8262 93.459 15.5889 93.5352 15.3311 93.5879C15.0732 93.6465 14.7949 93.6758 14.4961 93.6758C14.0098 93.6758 13.5615 93.6055 13.1514 93.4648C12.7471 93.3242 12.3984 93.1279 12.1055 92.876C11.8125 92.624 11.584 92.3252 11.4199 91.9795C11.2559 91.6279 11.1738 91.2471 11.1738 90.8369C11.1738 90.3096 11.2764 89.8438 11.4814 89.4395C11.6865 89.0293 11.9941 88.6924 12.4043 88.4287C12.7734 88.1885 13.2275 88.0068 13.7666 87.8838C14.3115 87.7549 14.9355 87.6904 15.6387 87.6904H17.001V87.1279C17.001 86.9053 16.9658 86.7061 16.8955 86.5303C16.8252 86.3486 16.7197 86.1934 16.5791 86.0645C16.4326 85.9297 16.248 85.8271 16.0254 85.7568C15.8086 85.6807 15.5537 85.6426 15.2607 85.6426C15.0029 85.6426 14.7803 85.6748 14.5928 85.7393C14.4053 85.7979 14.2529 85.8828 14.1357 85.9941C14.0303 86.0938 13.9512 86.2139 13.8984 86.3545C13.8516 86.4951 13.8281 86.6504 13.8281 86.8203H11.3848C11.3848 86.416 11.4727 86.0322 11.6484 85.6689C11.8301 85.3057 12.0938 84.9863 12.4395 84.7109C12.7793 84.4355 13.1953 84.2188 13.6875 84.0605C14.1855 83.8965 14.7539 83.8145 15.3926 83.8145C15.9668 83.8145 16.5 83.8848 16.9922 84.0254C17.4902 84.166 17.9209 84.374 18.2842 84.6494C18.6475 84.9248 18.9316 85.2734 19.1367 85.6953C19.3418 86.1113 19.4443 86.5947 19.4443 87.1455V91.2236C19.4443 91.7334 19.4766 92.1553 19.541 92.4893C19.6055 92.8232 19.6992 93.1104 19.8223 93.3506V93.5H17.3438ZM15.0146 91.7861C15.2607 91.7861 15.4893 91.7568 15.7002 91.6982C15.9111 91.6396 16.1016 91.5635 16.2715 91.4697C16.4414 91.376 16.5879 91.2705 16.7109 91.1533C16.834 91.0303 16.9307 90.9072 17.001 90.7842V89.1494H15.7529C15.3721 89.1494 15.0469 89.1875 14.7773 89.2637C14.5078 89.334 14.2881 89.4336 14.1182 89.5625C13.9482 89.6973 13.8223 89.8584 13.7402 90.0459C13.6582 90.2275 13.6172 90.4268 13.6172 90.6436C13.6172 90.8135 13.6465 90.9717 13.7051 91.1182C13.7695 91.2588 13.8604 91.3789 13.9775 91.4785C14.0947 91.5723 14.2383 91.6484 14.4082 91.707C14.584 91.7598 14.7861 91.7861 15.0146 91.7861ZM26.6953 81.6611V83.9902H30.2461V85.792H26.6953V89.8789C26.6953 90.2246 26.7334 90.5146 26.8096 90.749C26.8916 90.9775 27.0059 91.1592 27.1523 91.2939C27.2988 91.4346 27.4746 91.5342 27.6797 91.5928C27.8906 91.6514 28.125 91.6807 28.3828 91.6807C28.5703 91.6807 28.7607 91.6719 28.9541 91.6543C29.1533 91.6367 29.3438 91.6133 29.5254 91.584C29.7012 91.5605 29.8652 91.5342 30.0176 91.5049C30.1758 91.4756 30.3105 91.4463 30.4219 91.417L30.6592 93.0957C30.4893 93.1953 30.29 93.2832 30.0615 93.3594C29.833 93.4297 29.5898 93.4883 29.332 93.5352C29.0742 93.582 28.8047 93.6172 28.5234 93.6406C28.248 93.6699 27.9756 93.6846 27.7061 93.6846C27.1846 93.6846 26.71 93.6172 26.2822 93.4824C25.8604 93.3418 25.5 93.125 25.2012 92.832C24.8965 92.5449 24.6621 92.1787 24.498 91.7334C24.334 91.2822 24.252 90.7432 24.252 90.1162V85.792H22.0811V83.9902H24.252V81.6611H26.6953ZM37.6377 93.6758C36.9053 93.6758 36.2402 93.5557 35.6426 93.3154C35.0449 93.0752 34.5322 92.7471 34.1045 92.3311C33.6768 91.9209 33.3457 91.4375 33.1113 90.8809C32.8828 90.3184 32.7686 89.7178 32.7686 89.0791V88.7275C32.7686 88.001 32.8828 87.3389 33.1113 86.7412C33.3398 86.1377 33.6592 85.6191 34.0693 85.1855C34.4795 84.752 34.9658 84.415 35.5283 84.1748C36.0908 83.9346 36.7031 83.8145 37.3652 83.8145C38.0508 83.8145 38.6602 83.9287 39.1934 84.1572C39.7324 84.3799 40.1895 84.6963 40.5645 85.1064C40.9336 85.5166 41.2148 86.0117 41.4082 86.5918C41.6016 87.166 41.6982 87.8018 41.6982 88.499V89.5361H35.2471V89.5625C35.3291 89.9434 35.4346 90.251 35.5635 90.4854C35.6924 90.7139 35.8652 90.9219 36.082 91.1094C36.3047 91.3027 36.5596 91.4521 36.8467 91.5576C37.1338 91.6631 37.4473 91.7158 37.7871 91.7158C38.2676 91.7158 38.7334 91.625 39.1846 91.4434C39.6357 91.2617 40.002 90.9893 40.2832 90.626L41.5049 91.9443C41.1943 92.3838 40.7021 92.7822 40.0283 93.1396C39.3545 93.4971 38.5576 93.6758 37.6377 93.6758ZM37.3477 85.792C37.0723 85.792 36.8203 85.8418 36.5918 85.9414C36.3633 86.0352 36.1641 86.1729 35.9941 86.3545C35.8184 86.5361 35.6719 86.7529 35.5547 87.0049C35.4375 87.2568 35.3496 87.5381 35.291 87.8486H39.2988V87.6553C39.2988 87.3975 39.252 87.1543 39.1582 86.9258C39.0645 86.6973 38.9355 86.498 38.7715 86.3281C38.6074 86.1641 38.4053 86.0352 38.165 85.9414C37.9307 85.8418 37.6582 85.792 37.3477 85.792ZM50.6631 83.8145C51.0322 83.8145 51.3721 83.8408 51.6826 83.8936C51.999 83.9404 52.2539 83.9932 52.4473 84.0518L52.0869 86.4863C51.7646 86.4102 51.4336 86.3545 51.0938 86.3193C50.7598 86.2783 50.4404 86.2578 50.1357 86.2578C49.8193 86.2578 49.5322 86.2871 49.2744 86.3457C49.0225 86.3984 48.7969 86.4805 48.5977 86.5918C48.3574 86.7207 48.1523 86.8848 47.9824 87.084C47.8125 87.2832 47.6719 87.5176 47.5605 87.7871V93.5H45.1172V83.9902H47.3936L47.4902 85.335L47.5078 85.5459C47.8945 85.0068 48.3574 84.585 48.8965 84.2803C49.4355 83.9697 50.0244 83.8145 50.6631 83.8145ZM55.2949 83.9902H60.4717V91.5137H63.0469V93.5H55.2949V91.5137H58.002V85.9854H55.2949V83.9902ZM57.8262 81.5557C57.8262 81.3682 57.8584 81.1953 57.9229 81.0371C57.9932 80.873 58.0898 80.7324 58.2129 80.6152C58.3359 80.5039 58.4824 80.416 58.6523 80.3516C58.8281 80.2871 59.0215 80.2549 59.2324 80.2549C59.666 80.2549 60.0088 80.3779 60.2607 80.624C60.5186 80.8643 60.6475 81.1748 60.6475 81.5557C60.6475 81.9365 60.5186 82.25 60.2607 82.4961C60.0088 82.7363 59.666 82.8564 59.2324 82.8564C59.0215 82.8564 58.8281 82.8242 58.6523 82.7598C58.4824 82.6953 58.3359 82.6045 58.2129 82.4873C58.0898 82.376 57.9932 82.2412 57.9229 82.083C57.8584 81.9189 57.8262 81.7432 57.8262 81.5557ZM71.3965 93.5C71.3379 93.3828 71.2881 93.248 71.2471 93.0957C71.2061 92.9434 71.1709 92.7822 71.1416 92.6123C71.0068 92.7588 70.8516 92.8965 70.6758 93.0254C70.5 93.1543 70.3066 93.2656 70.0957 93.3594C69.8789 93.459 69.6416 93.5352 69.3838 93.5879C69.126 93.6465 68.8477 93.6758 68.5488 93.6758C68.0625 93.6758 67.6143 93.6055 67.2041 93.4648C66.7998 93.3242 66.4512 93.1279 66.1582 92.876C65.8652 92.624 65.6367 92.3252 65.4727 91.9795C65.3086 91.6279 65.2266 91.2471 65.2266 90.8369C65.2266 90.3096 65.3291 89.8438 65.5342 89.4395C65.7393 89.0293 66.0469 88.6924 66.457 88.4287C66.8262 88.1885 67.2803 88.0068 67.8193 87.8838C68.3643 87.7549 68.9883 87.6904 69.6914 87.6904H71.0537V87.1279C71.0537 86.9053 71.0186 86.7061 70.9482 86.5303C70.8779 86.3486 70.7725 86.1934 70.6318 86.0645C70.4854 85.9297 70.3008 85.8271 70.0781 85.7568C69.8613 85.6807 69.6064 85.6426 69.3135 85.6426C69.0557 85.6426 68.833 85.6748 68.6455 85.7393C68.458 85.7979 68.3057 85.8828 68.1885 85.9941C68.083 86.0938 68.0039 86.2139 67.9512 86.3545C67.9043 86.4951 67.8809 86.6504 67.8809 86.8203H65.4375C65.4375 86.416 65.5254 86.0322 65.7012 85.6689C65.8828 85.3057 66.1465 84.9863 66.4922 84.7109C66.832 84.4355 67.248 84.2188 67.7402 84.0605C68.2383 83.8965 68.8066 83.8145 69.4453 83.8145C70.0195 83.8145 70.5527 83.8848 71.0449 84.0254C71.543 84.166 71.9736 84.374 72.3369 84.6494C72.7002 84.9248 72.9844 85.2734 73.1895 85.6953C73.3945 86.1113 73.4971 86.5947 73.4971 87.1455V91.2236C73.4971 91.7334 73.5293 92.1553 73.5938 92.4893C73.6582 92.8232 73.752 93.1104 73.875 93.3506V93.5H71.3965ZM69.0674 91.7861C69.3135 91.7861 69.542 91.7568 69.7529 91.6982C69.9639 91.6396 70.1543 91.5635 70.3242 91.4697C70.4941 91.376 70.6406 91.2705 70.7637 91.1533C70.8867 91.0303 70.9834 90.9072 71.0537 90.7842V89.1494H69.8057C69.4248 89.1494 69.0996 89.1875 68.8301 89.2637C68.5605 89.334 68.3408 89.4336 68.1709 89.5625C68.001 89.6973 67.875 89.8584 67.793 90.0459C67.7109 90.2275 67.6699 90.4268 67.6699 90.6436C67.6699 90.8135 67.6992 90.9717 67.7578 91.1182C67.8223 91.2588 67.9131 91.3789 68.0303 91.4785C68.1475 91.5723 68.291 91.6484 68.4609 91.707C68.6367 91.7598 68.8389 91.7861 69.0674 91.7861ZM76.7754 80H82.0928V91.5137H84.8174V93.5H76.7754V91.5137H79.623V81.9951H76.7754V80ZM16.5527 113.675C16.5527 112.954 16.6348 112.295 16.7988 111.697C16.9688 111.1 17.2148 110.587 17.5371 110.159C17.8594 109.731 18.249 109.4 18.7061 109.166C19.1689 108.932 19.6963 108.814 20.2881 108.814C20.7861 108.814 21.2227 108.905 21.5977 109.087C21.9785 109.263 22.3154 109.515 22.6084 109.843V105H25.0605V118.5H22.8545L22.7314 117.507C22.4326 117.876 22.0811 118.163 21.6768 118.368C21.2725 118.573 20.8037 118.676 20.2705 118.676C19.6904 118.676 19.1689 118.556 18.7061 118.315C18.249 118.069 17.8623 117.732 17.5459 117.305C17.2236 116.877 16.9775 116.37 16.8076 115.784C16.6377 115.192 16.5527 114.551 16.5527 113.859V113.675ZM18.9961 113.859C18.9961 114.258 19.0283 114.63 19.0928 114.976C19.1631 115.315 19.2744 115.611 19.4268 115.863C19.5791 116.121 19.7754 116.323 20.0156 116.47C20.2559 116.616 20.5488 116.689 20.8945 116.689C21.3164 116.689 21.665 116.599 21.9404 116.417C22.2217 116.235 22.4443 115.986 22.6084 115.67V111.82C22.4443 111.498 22.2246 111.249 21.9492 111.073C21.6738 110.892 21.3281 110.801 20.9121 110.801C20.5664 110.801 20.2705 110.877 20.0244 111.029C19.7842 111.176 19.5879 111.378 19.4355 111.636C19.2832 111.899 19.1719 112.207 19.1016 112.559C19.0312 112.904 18.9961 113.276 18.9961 113.675V113.859ZM32.2324 118.676C31.5 118.676 30.835 118.556 30.2373 118.315C29.6396 118.075 29.127 117.747 28.6992 117.331C28.2715 116.921 27.9404 116.438 27.7061 115.881C27.4775 115.318 27.3633 114.718 27.3633 114.079V113.728C27.3633 113.001 27.4775 112.339 27.7061 111.741C27.9346 111.138 28.2539 110.619 28.6641 110.186C29.0742 109.752 29.5605 109.415 30.123 109.175C30.6855 108.935 31.2979 108.814 31.96 108.814C32.6455 108.814 33.2549 108.929 33.7881 109.157C34.3271 109.38 34.7842 109.696 35.1592 110.106C35.5283 110.517 35.8096 111.012 36.0029 111.592C36.1963 112.166 36.293 112.802 36.293 113.499V114.536H29.8418V114.562C29.9238 114.943 30.0293 115.251 30.1582 115.485C30.2871 115.714 30.46 115.922 30.6768 116.109C30.8994 116.303 31.1543 116.452 31.4414 116.558C31.7285 116.663 32.042 116.716 32.3818 116.716C32.8623 116.716 33.3281 116.625 33.7793 116.443C34.2305 116.262 34.5967 115.989 34.8779 115.626L36.0996 116.944C35.7891 117.384 35.2969 117.782 34.623 118.14C33.9492 118.497 33.1523 118.676 32.2324 118.676ZM31.9424 110.792C31.667 110.792 31.415 110.842 31.1865 110.941C30.958 111.035 30.7588 111.173 30.5889 111.354C30.4131 111.536 30.2666 111.753 30.1494 112.005C30.0322 112.257 29.9443 112.538 29.8857 112.849H33.8936V112.655C33.8936 112.397 33.8467 112.154 33.7529 111.926C33.6592 111.697 33.5303 111.498 33.3662 111.328C33.2021 111.164 33 111.035 32.7598 110.941C32.5254 110.842 32.2529 110.792 31.9424 110.792ZM44.5635 115.89C44.5635 115.743 44.5283 115.614 44.458 115.503C44.3936 115.392 44.2764 115.286 44.1064 115.187C43.9307 115.093 43.6992 115.005 43.4121 114.923C43.125 114.841 42.7617 114.759 42.3223 114.677C41.7656 114.565 41.2559 114.428 40.793 114.264C40.3359 114.094 39.9434 113.889 39.6152 113.648C39.2871 113.414 39.0293 113.142 38.8418 112.831C38.6602 112.521 38.5693 112.163 38.5693 111.759C38.5693 111.366 38.6631 110.991 38.8506 110.634C39.0381 110.276 39.3076 109.963 39.6592 109.693C40.0107 109.424 40.4385 109.21 40.9424 109.052C41.4463 108.894 42.0146 108.814 42.6475 108.814C43.3096 108.814 43.9043 108.894 44.4316 109.052C44.959 109.204 45.4072 109.415 45.7764 109.685C46.1396 109.96 46.418 110.285 46.6113 110.66C46.8047 111.035 46.9014 111.442 46.9014 111.882H44.458C44.458 111.724 44.4316 111.577 44.3789 111.442C44.3262 111.302 44.2471 111.176 44.1416 111.064C43.9951 110.918 43.7959 110.801 43.5439 110.713C43.2979 110.625 42.999 110.581 42.6475 110.581C42.3486 110.581 42.0879 110.61 41.8652 110.669C41.6426 110.728 41.4609 110.81 41.3203 110.915C41.1914 111.009 41.0918 111.12 41.0215 111.249C40.957 111.372 40.9248 111.504 40.9248 111.645C40.9248 111.785 40.9541 111.917 41.0127 112.04C41.0713 112.157 41.1768 112.263 41.3291 112.356C41.4756 112.456 41.6777 112.547 41.9355 112.629C42.1934 112.705 42.5215 112.772 42.9199 112.831C43.4941 112.925 44.0273 113.045 44.5195 113.191C45.0117 113.338 45.4365 113.525 45.7939 113.754C46.1514 113.988 46.4297 114.272 46.6289 114.606C46.834 114.935 46.9365 115.327 46.9365 115.784C46.9365 116.206 46.834 116.596 46.6289 116.953C46.4297 117.305 46.1455 117.609 45.7764 117.867C45.4014 118.125 44.9502 118.327 44.4229 118.474C43.8955 118.614 43.3066 118.685 42.6562 118.685C41.9414 118.685 41.3086 118.591 40.7578 118.403C40.2129 118.216 39.7559 117.97 39.3867 117.665C39.0176 117.366 38.7363 117.026 38.543 116.646C38.3555 116.259 38.2617 115.872 38.2617 115.485H40.5908C40.6084 115.743 40.6787 115.966 40.8018 116.153C40.9248 116.335 41.083 116.481 41.2764 116.593C41.4697 116.71 41.6895 116.795 41.9355 116.848C42.1875 116.9 42.4453 116.927 42.709 116.927C43.0254 116.927 43.3008 116.9 43.5352 116.848C43.7754 116.789 43.9717 116.713 44.124 116.619C44.2705 116.525 44.3789 116.417 44.4492 116.294C44.5254 116.171 44.5635 116.036 44.5635 115.89ZM49.8896 108.99H55.0664V116.514H57.6416V118.5H49.8896V116.514H52.5967V110.985H49.8896V108.99ZM52.4209 106.556C52.4209 106.368 52.4531 106.195 52.5176 106.037C52.5879 105.873 52.6846 105.732 52.8076 105.615C52.9307 105.504 53.0771 105.416 53.2471 105.352C53.4229 105.287 53.6162 105.255 53.8271 105.255C54.2607 105.255 54.6035 105.378 54.8555 105.624C55.1133 105.864 55.2422 106.175 55.2422 106.556C55.2422 106.937 55.1133 107.25 54.8555 107.496C54.6035 107.736 54.2607 107.856 53.8271 107.856C53.6162 107.856 53.4229 107.824 53.2471 107.76C53.0771 107.695 52.9307 107.604 52.8076 107.487C52.6846 107.376 52.5879 107.241 52.5176 107.083C52.4531 106.919 52.4209 106.743 52.4209 106.556ZM59.8037 113.675C59.8037 112.954 59.8916 112.295 60.0674 111.697C60.249 111.1 60.5068 110.587 60.8408 110.159C61.1748 109.731 61.5791 109.4 62.0537 109.166C62.5283 108.932 63.0645 108.814 63.6621 108.814C63.9844 108.814 64.2773 108.847 64.541 108.911C64.8105 108.97 65.0537 109.061 65.2705 109.184C65.4346 109.271 65.5869 109.377 65.7275 109.5C65.8682 109.617 65.9971 109.749 66.1143 109.896L66.2109 108.99H68.4346V118.192C68.4346 118.837 68.3232 119.411 68.1006 119.915C67.8838 120.419 67.5791 120.844 67.1865 121.189C66.7881 121.535 66.3105 121.796 65.7539 121.972C65.2031 122.153 64.5938 122.244 63.9258 122.244C63.6387 122.244 63.3311 122.215 63.0029 122.156C62.6748 122.098 62.3496 122.007 62.0273 121.884C61.7051 121.761 61.4004 121.603 61.1133 121.409C60.8262 121.222 60.5801 120.996 60.375 120.732L61.4736 119.247C61.6318 119.429 61.8018 119.587 61.9834 119.722C62.165 119.862 62.3555 119.977 62.5547 120.064C62.748 120.152 62.9473 120.217 63.1523 120.258C63.3633 120.305 63.5801 120.328 63.8027 120.328C64.1602 120.328 64.4766 120.278 64.752 120.179C65.0332 120.079 65.2676 119.933 65.4551 119.739C65.625 119.563 65.7539 119.347 65.8418 119.089C65.9355 118.831 65.9824 118.541 65.9824 118.219V117.674C65.8652 117.803 65.7422 117.92 65.6133 118.025C65.4844 118.131 65.3467 118.225 65.2002 118.307C64.9834 118.424 64.7432 118.515 64.4795 118.579C64.2217 118.644 63.9434 118.676 63.6445 118.676C63.0527 118.676 62.5195 118.556 62.0449 118.315C61.5762 118.069 61.1748 117.732 60.8408 117.305C60.5068 116.877 60.249 116.37 60.0674 115.784C59.8916 115.192 59.8037 114.551 59.8037 113.859V113.675ZM62.2559 113.859C62.2559 114.258 62.2939 114.63 62.3701 114.976C62.4521 115.315 62.5752 115.611 62.7393 115.863C62.9033 116.121 63.1113 116.323 63.3633 116.47C63.6152 116.616 63.9141 116.689 64.2598 116.689C64.4707 116.689 64.6611 116.669 64.8311 116.628C65.0068 116.587 65.165 116.528 65.3057 116.452C65.4521 116.37 65.5811 116.271 65.6924 116.153C65.8037 116.036 65.9004 115.904 65.9824 115.758V111.732C65.8945 111.568 65.7891 111.425 65.666 111.302C65.543 111.179 65.4023 111.079 65.2441 111.003C65.1094 110.938 64.96 110.889 64.7959 110.854C64.6377 110.818 64.4648 110.801 64.2773 110.801C63.9316 110.801 63.6328 110.877 63.3809 111.029C63.1289 111.176 62.9209 111.378 62.7568 111.636C62.5869 111.899 62.4609 112.207 62.3789 112.559C62.2969 112.904 62.2559 113.276 62.2559 113.675V113.859ZM70.8604 118.5V108.99H73.0752L73.2246 110.309C73.3477 110.133 73.4824 109.972 73.6289 109.825C73.7754 109.679 73.9307 109.547 74.0947 109.43C74.376 109.23 74.6836 109.078 75.0176 108.973C75.3516 108.867 75.7061 108.814 76.0811 108.814C76.5615 108.814 77.001 108.885 77.3994 109.025C77.7979 109.166 78.1436 109.389 78.4365 109.693C78.7236 110.004 78.9463 110.402 79.1045 110.889C79.2686 111.369 79.3506 111.955 79.3506 112.646V118.5H76.9072V112.682C76.9072 112.307 76.8633 111.999 76.7754 111.759C76.6934 111.513 76.5732 111.319 76.415 111.179C76.2568 111.038 76.0664 110.941 75.8438 110.889C75.6211 110.83 75.3691 110.801 75.0879 110.801C74.8535 110.801 74.6367 110.827 74.4375 110.88C74.2441 110.933 74.0713 111.012 73.9189 111.117C73.7959 111.193 73.6846 111.284 73.585 111.39C73.4854 111.495 73.3945 111.612 73.3125 111.741V118.5H70.8604Z" fill="#02F4BF"/>
<defs>
<clipPath id="clip0_3021_1399">
<rect width="60" height="60" fill="white" transform="translate(18 4.5)"/>
</clipPath>
</defs>
</svg>
