<svg width="88" height="100" viewBox="0 0 88 100" fill="none" xmlns="http://www.w3.org/2000/svg">
<path fill-rule="evenodd" clip-rule="evenodd" d="M74.6945 20.7639L69.0128 28.7083L63.331 20.7639H66.4289C66.1927 14.8611 61.3166 10.1389 55.357 10.1389C50.3282 10.1389 46.0633 13.5139 44.7158 18.1111C43.0766 17.5833 41.3818 17.25 39.6592 17.0972C39.8537 16.3611 40.1037 15.625 40.4093 14.9167C41.229 12.9861 42.3959 11.25 43.8823 9.76389C45.3687 8.27778 47.1052 7.09722 49.0362 6.29167C51.0366 5.43056 53.1621 5 55.357 5C57.5519 5 59.6774 5.43056 61.6778 6.27778C63.6088 7.09722 65.3453 8.26389 66.8317 9.75C68.3182 11.2361 69.4851 12.9722 70.3047 14.9028C71.0965 16.7639 71.5272 18.7361 71.5689 20.7639H74.6945Z" fill="#02F4BF"/>
<path fill-rule="evenodd" clip-rule="evenodd" d="M66.7477 64.9999V61.5832H47.1602C47.2991 61.5138 47.438 61.4582 47.5769 61.3888C49.7024 60.3749 51.6611 59.0554 53.4115 57.4443C53.6477 57.2221 53.8699 57.0138 54.0783 56.8054C54.3145 56.5693 54.5645 56.3193 54.8007 56.0554C55.0785 55.7499 55.3564 55.4304 55.6064 55.111H66.7477V51.6943L76.0553 58.3471L66.7477 64.9999Z" fill="#02F4BF"/>
<path fill-rule="evenodd" clip-rule="evenodd" d="M59.5241 40.3195C59.5241 43.2778 58.9406 46.1528 57.8015 48.8611C56.8291 51.1667 55.4677 53.2778 53.7728 55.125C53.5506 55.3611 53.3283 55.5973 53.106 55.8334C52.8977 56.0417 52.6893 56.2361 52.4809 56.4445C50.8416 57.9584 49.0079 59.1945 47.0075 60.1528C46.7296 60.2917 46.4379 60.4167 46.1462 60.5417C46.1323 60.5417 46.1323 60.5556 46.1184 60.5556C44.4514 61.2639 42.6593 61.6111 40.8395 61.6111H11.9443V55.1528H38.7696C46.8825 55.1528 53.5367 48.6667 53.6478 40.5556C53.6478 40.4861 53.6478 40.4167 53.6478 40.3473C53.6478 31.4861 46.4518 24.2917 37.5888 24.2917C28.7257 24.2639 21.5297 31.4445 21.5297 40.3195H25.2528L18.5986 49.625L11.9443 40.3195H15.6674C15.6674 37.3611 16.2508 34.4861 17.39 31.7778C18.5013 29.1667 20.0711 26.8195 22.0854 24.8056C24.0997 22.7917 26.4475 21.2084 29.0592 20.1111C31.7681 18.9722 34.6437 18.3889 37.6027 18.3889C38.2 18.3889 38.7835 18.4167 39.3669 18.4584C41.0895 18.5972 42.7705 18.9306 44.4097 19.4722C44.9932 19.6667 45.5627 19.875 46.1323 20.125C48.744 21.2361 51.0917 22.8056 53.106 24.8195C55.1204 26.8334 56.704 29.1806 57.8015 31.7917C58.9406 34.4861 59.5241 37.3611 59.5241 40.3195Z" fill="#02F4BF"/>
<path d="M24.2959 90.6602C24.2959 90.4316 24.2549 90.2178 24.1729 90.0186C24.0967 89.8193 23.9648 89.6318 23.7773 89.4561C23.584 89.2861 23.332 89.1309 23.0215 88.9902C22.7168 88.8438 22.3359 88.709 21.8789 88.5859C21.1699 88.3926 20.5459 88.1582 20.0068 87.8828C19.4736 87.6074 19.0371 87.3057 18.6973 86.9775C18.3574 86.6494 18.0996 86.2861 17.9238 85.8877C17.7539 85.4893 17.6689 85.0557 17.6689 84.5869C17.6689 84.0479 17.7832 83.5586 18.0117 83.1191C18.2402 82.6797 18.5566 82.3047 18.9609 81.9941C19.3652 81.6836 19.8428 81.4463 20.3936 81.2822C20.9443 81.1123 21.542 81.0273 22.1865 81.0273C22.8545 81.0273 23.4639 81.124 24.0146 81.3174C24.5713 81.5107 25.0488 81.7803 25.4473 82.126C25.8457 82.4775 26.1562 82.8936 26.3789 83.374C26.6016 83.8545 26.7129 84.3818 26.7129 84.9561H24.3047C24.293 84.6689 24.2402 84.4053 24.1465 84.165C24.0586 83.9248 23.9268 83.7168 23.751 83.541C23.5693 83.3711 23.3438 83.2393 23.0742 83.1455C22.8105 83.0459 22.5 82.9961 22.1426 82.9961C21.8145 82.9961 21.5215 83.0371 21.2637 83.1191C21.0117 83.1953 20.7979 83.3037 20.6221 83.4443C20.4463 83.5908 20.3115 83.7637 20.2178 83.9629C20.1299 84.1562 20.0859 84.3672 20.0859 84.5957C20.0859 84.8359 20.1445 85.0527 20.2617 85.2461C20.3848 85.4395 20.5605 85.6123 20.7891 85.7646C21.0176 85.9229 21.293 86.0664 21.6152 86.1953C21.9434 86.3242 22.3125 86.4443 22.7227 86.5557C23.1621 86.6787 23.5811 86.8281 23.9795 87.0039C24.3779 87.1797 24.7441 87.3818 25.0781 87.6104C25.582 87.9854 25.9834 88.4219 26.2822 88.9199C26.5811 89.418 26.7305 89.9922 26.7305 90.6426C26.7305 91.2051 26.6162 91.7061 26.3877 92.1455C26.165 92.5791 25.8545 92.9453 25.4561 93.2441C25.0576 93.5488 24.583 93.7803 24.0322 93.9385C23.4814 94.0908 22.8809 94.167 22.2305 94.167C21.5918 94.167 20.959 94.0732 20.332 93.8857C19.7109 93.6924 19.1689 93.4111 18.7061 93.042C18.2666 92.6787 17.918 92.251 17.6602 91.7588C17.4082 91.2666 17.2822 90.6895 17.2822 90.0273H19.708C19.7197 90.4141 19.7871 90.7451 19.9102 91.0205C20.0332 91.2959 20.2061 91.5215 20.4287 91.6973C20.6455 91.873 20.9062 92.002 21.2109 92.084C21.5215 92.166 21.8613 92.207 22.2305 92.207C22.5586 92.207 22.8486 92.1689 23.1006 92.0928C23.3584 92.0166 23.5752 91.9111 23.751 91.7764C23.9268 91.6416 24.0615 91.4805 24.1553 91.293C24.249 91.0996 24.2959 90.8887 24.2959 90.6602ZM32.7598 92.2246C33 92.2246 33.2285 92.1895 33.4453 92.1191C33.6621 92.0488 33.8525 91.9492 34.0166 91.8203C34.1807 91.6914 34.3066 91.5361 34.3945 91.3545C34.4883 91.1729 34.5293 90.9707 34.5176 90.748H36.8203C36.832 91.2402 36.7295 91.6973 36.5127 92.1191C36.3018 92.541 36.0117 92.9043 35.6426 93.209C35.2734 93.5137 34.8428 93.7539 34.3506 93.9297C33.8643 94.0996 33.3486 94.1846 32.8037 94.1846C32.0654 94.1846 31.418 94.0615 30.8613 93.8154C30.3047 93.5635 29.8418 93.2207 29.4727 92.7871C29.0977 92.3535 28.8135 91.8467 28.6201 91.2666C28.4326 90.6807 28.3389 90.0537 28.3389 89.3857V89.1221C28.3389 88.4541 28.4326 87.8301 28.6201 87.25C28.8076 86.6641 29.0889 86.1543 29.4639 85.7207C29.8389 85.2871 30.3018 84.9443 30.8525 84.6924C31.4092 84.4404 32.0537 84.3145 32.7861 84.3145C33.3721 84.3145 33.9141 84.4023 34.4121 84.5781C34.9102 84.7539 35.3408 85 35.7041 85.3164C36.0615 85.6387 36.3398 86.0283 36.5391 86.4854C36.7383 86.9365 36.832 87.4434 36.8203 88.0059H34.5176C34.5293 87.7715 34.4941 87.5488 34.4121 87.3379C34.3301 87.127 34.21 86.9453 34.0518 86.793C33.8936 86.6406 33.7031 86.5205 33.4805 86.4326C33.2578 86.3389 33.0146 86.292 32.751 86.292C32.3643 86.292 32.0449 86.3711 31.793 86.5293C31.541 86.6875 31.3418 86.8984 31.1953 87.1621C31.043 87.4258 30.9346 87.7275 30.8701 88.0674C30.8115 88.4072 30.7822 88.7588 30.7822 89.1221V89.3857C30.7822 89.7549 30.8115 90.1123 30.8701 90.458C30.9287 90.7979 31.0342 91.0967 31.1865 91.3545C31.333 91.6182 31.5322 91.8291 31.7842 91.9873C32.042 92.1455 32.3672 92.2246 32.7598 92.2246ZM46.1895 84.3145C46.5586 84.3145 46.8984 84.3408 47.209 84.3936C47.5254 84.4404 47.7803 84.4932 47.9736 84.5518L47.6133 86.9863C47.291 86.9102 46.96 86.8545 46.6201 86.8193C46.2861 86.7783 45.9668 86.7578 45.6621 86.7578C45.3457 86.7578 45.0586 86.7871 44.8008 86.8457C44.5488 86.8984 44.3232 86.9805 44.124 87.0918C43.8838 87.2207 43.6787 87.3848 43.5088 87.584C43.3389 87.7832 43.1982 88.0176 43.0869 88.2871V94H40.6436V84.4902H42.9199L43.0166 85.835L43.0342 86.0459C43.4209 85.5068 43.8838 85.085 44.4229 84.7803C44.9619 84.4697 45.5508 84.3145 46.1895 84.3145ZM56.376 94L56.2354 92.6641C55.9131 93.1387 55.5234 93.5107 55.0664 93.7803C54.6152 94.0498 54.1201 94.1846 53.5811 94.1846C53.0889 94.1846 52.6377 94.1084 52.2275 93.9561C51.8174 93.8037 51.4658 93.5605 51.1729 93.2266C50.8799 92.8984 50.6514 92.4795 50.4873 91.9697C50.3291 91.4541 50.25 90.8359 50.25 90.1152V84.4902H52.6934V90.1328C52.6934 90.5195 52.7197 90.8447 52.7725 91.1084C52.8311 91.3721 52.9219 91.583 53.0449 91.7412C53.168 91.9053 53.3291 92.0225 53.5283 92.0928C53.7275 92.1631 53.9707 92.1982 54.2578 92.1982C54.5156 92.1982 54.7471 92.1719 54.9521 92.1191C55.1631 92.0664 55.3477 91.9902 55.5059 91.8906C55.6406 91.8027 55.7607 91.6973 55.8662 91.5742C55.9717 91.4512 56.0625 91.3135 56.1387 91.1611V84.4902H58.5908V94H56.376ZM62.502 84.4902L62.5723 85.6416C62.7539 85.2314 63.0029 84.9092 63.3193 84.6748C63.6416 84.4346 64.0312 84.3145 64.4883 84.3145C64.7109 84.3145 64.9102 84.3408 65.0859 84.3936C65.2617 84.4463 65.4141 84.5283 65.543 84.6396C65.6426 84.7217 65.7275 84.8213 65.7979 84.9385C65.874 85.0498 65.9385 85.1787 65.9912 85.3252C66.0732 85.1846 66.1641 85.0586 66.2637 84.9473C66.3691 84.8301 66.4834 84.7305 66.6064 84.6484C66.7588 84.543 66.9316 84.4609 67.125 84.4023C67.3184 84.3438 67.5293 84.3145 67.7578 84.3145C68.0449 84.3145 68.3115 84.3672 68.5576 84.4727C68.8096 84.5781 69.0293 84.7451 69.2168 84.9736C69.3984 85.208 69.5391 85.5098 69.6387 85.8789C69.7441 86.2422 69.7969 86.6875 69.7969 87.2148V94H67.5732V87.2061C67.5732 87.0244 67.5527 86.875 67.5117 86.7578C67.4766 86.6406 67.4268 86.5469 67.3623 86.4766C67.2979 86.4121 67.2217 86.3682 67.1338 86.3447C67.0518 86.3154 66.9668 86.3008 66.8789 86.3008C66.7852 86.3008 66.7002 86.3125 66.624 86.3359C66.5537 86.3594 66.4863 86.3916 66.4219 86.4326C66.3691 86.4736 66.3223 86.5205 66.2812 86.5732C66.2402 86.6201 66.2051 86.6758 66.1758 86.7402C66.1758 86.752 66.1758 86.7783 66.1758 86.8193C66.1758 86.8604 66.1758 86.916 66.1758 86.9863V94H64.0225V87.1973C64.0225 87.0156 64.0049 86.8662 63.9697 86.749C63.9346 86.6318 63.8877 86.541 63.8291 86.4766C63.7646 86.4121 63.6914 86.3682 63.6094 86.3447C63.5273 86.3154 63.4395 86.3008 63.3457 86.3008C63.2402 86.3008 63.1465 86.3184 63.0645 86.3535C62.9824 86.3887 62.9092 86.4385 62.8447 86.5029C62.7979 86.5498 62.7568 86.6055 62.7217 86.6699C62.6865 86.7344 62.6543 86.8047 62.625 86.8809V94H60.4014V84.4902H62.502Z" fill="#02F4BF"/>
</svg>
