<svg width="88" height="100" viewBox="0 0 88 100" fill="none" xmlns="http://www.w3.org/2000/svg">
<path d="M36.7256 59.8917C32.6823 58.7545 29.1263 56.6607 26.0216 53.7365C25.0469 54.0794 24.0541 54.4224 23.0433 54.7473C22.574 54.8917 22.1046 54.8375 21.6173 54.657C20.7509 54.3321 20.2274 53.7004 19.8483 52.9242C19.3249 51.8953 18.657 50.9567 18.1335 49.9278C17.6642 48.9711 16.9783 48.1408 16.5812 47.148C16.3826 46.6607 15.8592 46.3357 15.8592 45.722C15.3898 44.9639 15.8411 44.296 16.1119 43.6282C16.1841 43.4477 16.2743 43.213 16.4368 43.1408C17.0866 42.852 17.4115 42.2022 17.953 41.8051C18.2057 41.6245 18.4765 41.426 18.7653 41.2094C18.3501 39.1336 17.9891 37.0578 17.9891 34.9278C17.9891 32.8159 18.3682 30.7762 18.7653 28.7545C18.0613 28.1047 17.4115 27.4729 16.7256 26.8773C16.0216 26.2635 15.6065 25.5054 15.6967 24.7112C15.7509 24.278 15.8772 23.8087 16.0938 23.4477C16.7617 22.3827 17.3754 21.2635 18.0252 20.1805C18.5487 19.3141 19 18.4116 19.5776 17.5632C19.8844 17.13 20.0649 16.6245 20.3718 16.1733C20.9675 15.3249 22.1588 14.9097 23.1335 15.1986C24 15.4513 24.8122 15.8303 25.6967 15.9928C25.787 16.0108 25.8592 16.1372 25.9494 16.2274C29.0722 13.3213 32.6281 11.2455 36.7075 10.0361C36.87 9.54874 36.9061 9.02527 37.1046 8.51986C37.2491 8.14079 37.213 7.67148 37.2852 7.25632C37.4837 6.17329 38.1516 5.54152 39.1083 5.21661C39.4512 5.1083 39.7942 5 40.2093 5C42.7364 5.0361 45.2635 5.0361 47.7906 5C48.5126 5 49.1263 5.28881 49.7039 5.61372C50.2274 5.88448 50.5162 6.46209 50.6606 7.00361C50.9133 7.99639 51.0577 9.00722 51.2563 10.0542C55.3176 11.2094 58.8736 13.2852 61.9783 16.2094C62.953 15.8664 63.9458 15.5235 64.9566 15.1986C65.426 15.0542 65.8953 15.1083 66.3826 15.2888C67.2491 15.6137 67.7725 16.2455 68.1516 17.0217C68.675 18.0505 69.3429 18.9892 69.8664 20.0181C70.3357 20.9747 71.0216 21.8051 71.4187 22.7978C71.6173 23.2852 72.1408 23.6101 72.1408 24.2238C72.6101 24.982 72.1588 25.6498 71.888 26.3177C71.8158 26.4982 71.7256 26.7329 71.5631 26.8051C70.9133 27.0939 70.5884 27.7437 70.0469 28.1408C69.7942 28.3213 69.5234 28.5199 69.2346 28.7365C69.6498 30.8123 70.0108 32.8881 70.0108 35.018C70.0108 37.13 69.6859 39.1697 69.2346 41.1913C69.9386 41.8412 70.5884 42.4729 71.2743 43.0686C71.9783 43.6823 72.3935 44.4404 72.3032 45.2347C72.2491 45.6679 72.1408 46.1372 71.9061 46.4982C71.2563 47.5451 70.6426 48.6282 70.0108 49.6931C69.2166 51.0108 68.5667 52.4368 67.6462 53.6823C67.4837 54.3682 66.8339 54.4224 66.3646 54.6751C65.8592 54.9458 65.3537 54.8736 64.7942 54.7112C63.9639 54.4765 63.1696 54.0614 62.3032 53.9531C62.213 53.935 62.1408 53.8087 62.0505 53.7184C58.9278 56.6607 55.3899 58.7545 51.2563 59.9278C51.0577 60.9025 50.8772 61.9134 50.6606 62.9061C50.444 63.8809 49.7942 64.4946 48.8736 64.7834C48.5306 64.8917 48.1696 65 47.7725 65C45.2454 64.9639 42.7184 64.9639 40.1913 65C39.4693 65 38.8556 64.7112 38.2779 64.3863C37.7545 64.1155 37.4476 63.5379 37.3393 62.9964C37.1407 61.9314 36.9422 60.9386 36.7256 59.8917ZM37.8989 43.9892C38.2599 43.7906 38.675 43.6643 38.6931 43.231C38.7292 42.5812 38.8195 41.9134 38.675 41.2996C38.4223 40.2527 37.9711 39.2419 37.7003 38.1949C37.5198 37.5271 37.1227 36.8953 37.1407 36.1733C36.5631 34.7473 36.2021 33.2491 35.7148 31.8051C35.3176 30.6137 35.0288 29.3863 34.5956 28.213C34.361 27.5632 34.3068 26.8412 33.8736 26.2635C33.8375 26.2094 33.8195 26.1733 33.8195 26.1733C33.3321 25.8484 32.8267 25.9567 32.3935 25.9567C32.1408 26.1913 31.9241 26.3899 31.7256 26.5704C31.7075 27.148 31.2924 27.5993 31.3646 28.1588C30.7328 29.5668 30.462 31.083 29.9386 32.5271C29.6678 33.2671 29.5054 34.0253 29.2888 34.7834C29.0902 35.5415 28.657 36.2274 28.657 37.0397C27.9711 38.574 27.6281 40.2166 27.1227 41.8231C26.9963 42.2202 26.9241 42.5993 27.1769 42.9783C27.2491 43.0866 27.213 43.2491 27.213 43.231C27.5018 43.5379 27.7184 43.7545 27.8989 43.9711C28.2418 43.9711 28.6028 43.9711 28.9819 43.9711C29.2346 43.6462 29.4873 43.3394 29.722 43.0325C29.6678 42.0036 29.8844 41.3177 30.3537 40.2166C32.1227 40.2166 33.8917 40.2166 35.6606 40.2166C35.805 40.7942 35.8772 41.3538 36.0758 41.8773C36.166 42.0939 36.2563 42.3105 36.2202 42.5271C36.166 43.1949 36.3826 43.7184 37.1407 43.9711C37.3213 43.9892 37.592 43.9892 37.8989 43.9892ZM42.1227 43.9892C42.6101 43.9531 43.1696 44.0975 43.5667 43.7004C43.7111 43.5199 43.8375 43.3394 44.018 43.0866C44.018 41.2816 44.018 39.3863 44.018 37.491C45.3357 37.491 46.6353 37.4368 47.9169 37.509C48.6931 37.5451 49.3249 37.3105 49.9386 36.9314C50.2274 36.7509 50.4801 36.4801 50.7328 36.2274C51.4007 35.5776 51.7256 34.7834 51.7436 33.8448C51.7436 32.3646 51.7436 30.9025 51.7436 29.4224C51.7436 29.2058 51.6895 28.9711 51.6353 28.7545C51.4368 27.9783 51.0216 27.4007 50.462 26.8953C49.8122 26.2996 49.0541 25.9386 48.1516 25.9386C46.1299 25.9386 44.1263 25.9386 42.0866 25.9386C41.888 26.1552 41.6895 26.3718 41.4548 26.5884C41.4548 32.148 41.4548 37.7437 41.4548 43.3574C41.6895 43.556 41.9061 43.7726 42.1227 43.9892ZM55.1191 43.9892C56.3646 43.9892 57.6281 43.9892 58.8736 43.9892C59.0902 43.7726 59.3068 43.556 59.5234 43.3574C59.5234 43.0144 59.5234 42.6895 59.5234 42.3466C59.5234 42.3105 59.5234 42.2924 59.5234 42.2744C59.2527 41.769 58.8375 41.4621 58.296 41.4079C58.296 37.0939 58.296 32.7978 58.296 28.5921C58.6931 28.3935 59.0361 28.213 59.4332 27.9964C59.4873 27.5271 59.5234 27.0397 59.5595 26.6968C59.2707 26.3718 59.0722 26.1372 58.9097 25.9567C57.6101 25.9567 56.3465 25.9567 55.2274 25.9567C54.9205 26.2274 54.7039 26.426 54.4332 26.6787C54.4873 27.1119 54.5595 27.5993 54.6137 28.0144C55.0469 28.231 55.3898 28.4116 55.6967 28.574C55.6967 32.87 55.6967 37.1661 55.6967 41.426C55.5162 41.4621 55.3176 41.426 55.2454 41.5162C54.9927 41.769 54.5595 41.8412 54.4693 42.2563C54.4693 42.6173 54.4693 42.9783 54.4693 43.3394C54.6859 43.556 54.9025 43.7726 55.1191 43.9892Z" fill="#02F4BF"/>
<path d="M34.704 37.4546C33.639 37.4907 32.5198 37.5088 31.4007 37.5449C31.3646 37.5449 31.3105 37.6171 31.2021 37.7073C31.2202 36.5882 31.852 35.6857 31.9242 34.6568C32.4657 33.7543 32.5198 32.6893 32.8808 31.6785C32.9892 31.7868 33.1516 31.8951 33.1516 31.9853C33.1697 32.7615 33.6209 33.4294 33.7653 34.1694C33.8736 34.6749 34.1624 35.1622 34.2346 35.6676C34.3068 36.3175 34.7401 36.8048 34.704 37.4546Z" fill="#02F4BF"/>
<path d="M49.2347 33.9534C49.1083 34.1519 49 34.3505 48.8556 34.531C48.6029 34.8198 48.278 34.9823 47.8628 34.9642C46.5993 34.9462 45.3358 34.9642 44.0361 34.9642C44.0361 32.8162 44.0361 30.6682 44.0361 28.466C45.3538 28.466 46.7076 28.448 48.0434 28.466C48.6751 28.4841 49.2166 29.1339 49.2347 29.8198C49.2347 30.957 49.2347 32.0942 49.2347 33.2314C49.2347 33.4841 49.2347 33.7187 49.2347 33.9534Z" fill="#02F4BF"/>
<path d="M5.99316 89.2188H4.12109V94H1.65137V81.2031H5.94043C6.64941 81.2031 7.29102 81.2881 7.86523 81.458C8.43945 81.6221 8.93164 81.8652 9.3418 82.1875C9.74609 82.5098 10.0566 82.9111 10.2734 83.3916C10.4961 83.8721 10.6074 84.4287 10.6074 85.0615C10.6074 85.5186 10.5518 85.9316 10.4404 86.3008C10.335 86.6641 10.1826 86.9893 9.9834 87.2764C9.77832 87.5693 9.53223 87.8242 9.24512 88.041C8.96387 88.2578 8.64746 88.4453 8.2959 88.6035L11.0469 93.8857V94H8.40137L5.99316 89.2188ZM4.12109 87.2148H5.94922C6.33008 87.2148 6.66406 87.1621 6.95117 87.0566C7.24414 86.9453 7.48145 86.7871 7.66309 86.582C7.81543 86.418 7.92969 86.2217 8.00586 85.9932C8.08789 85.7646 8.12891 85.5098 8.12891 85.2285C8.12891 84.8887 8.07617 84.5898 7.9707 84.332C7.87109 84.0684 7.71875 83.8516 7.51367 83.6816C7.33203 83.5293 7.10938 83.4121 6.8457 83.3301C6.58203 83.248 6.28027 83.207 5.94043 83.207H4.12109V87.2148ZM17.1641 94.1758C16.4316 94.1758 15.7666 94.0557 15.1689 93.8154C14.5713 93.5752 14.0586 93.2471 13.6309 92.8311C13.2031 92.4209 12.8721 91.9375 12.6377 91.3809C12.4092 90.8184 12.2949 90.2178 12.2949 89.5791V89.2275C12.2949 88.501 12.4092 87.8389 12.6377 87.2412C12.8662 86.6377 13.1855 86.1191 13.5957 85.6855C14.0059 85.252 14.4922 84.915 15.0547 84.6748C15.6172 84.4346 16.2295 84.3145 16.8916 84.3145C17.5771 84.3145 18.1865 84.4287 18.7197 84.6572C19.2588 84.8799 19.7158 85.1963 20.0908 85.6064C20.46 86.0166 20.7412 86.5117 20.9346 87.0918C21.1279 87.666 21.2246 88.3018 21.2246 88.999V90.0361H14.7734V90.0625C14.8555 90.4434 14.9609 90.751 15.0898 90.9854C15.2188 91.2139 15.3916 91.4219 15.6084 91.6094C15.8311 91.8027 16.0859 91.9521 16.373 92.0576C16.6602 92.1631 16.9736 92.2158 17.3135 92.2158C17.7939 92.2158 18.2598 92.125 18.7109 91.9434C19.1621 91.7617 19.5283 91.4893 19.8096 91.126L21.0312 92.4443C20.7207 92.8838 20.2285 93.2822 19.5547 93.6396C18.8809 93.9971 18.084 94.1758 17.1641 94.1758ZM16.874 86.292C16.5986 86.292 16.3467 86.3418 16.1182 86.4414C15.8896 86.5352 15.6904 86.6729 15.5205 86.8545C15.3447 87.0361 15.1982 87.2529 15.0811 87.5049C14.9639 87.7568 14.876 88.0381 14.8174 88.3486H18.8252V88.1553C18.8252 87.8975 18.7783 87.6543 18.6846 87.4258C18.5908 87.1973 18.4619 86.998 18.2979 86.8281C18.1338 86.6641 17.9316 86.5352 17.6914 86.4414C17.457 86.3418 17.1846 86.292 16.874 86.292ZM29.4951 91.3896C29.4951 91.2432 29.46 91.1143 29.3896 91.0029C29.3252 90.8916 29.208 90.7861 29.0381 90.6865C28.8623 90.5928 28.6309 90.5049 28.3438 90.4229C28.0566 90.3408 27.6934 90.2588 27.2539 90.1768C26.6973 90.0654 26.1875 89.9277 25.7246 89.7637C25.2676 89.5938 24.875 89.3887 24.5469 89.1484C24.2188 88.9141 23.9609 88.6416 23.7734 88.3311C23.5918 88.0205 23.501 87.6631 23.501 87.2588C23.501 86.8662 23.5947 86.4912 23.7822 86.1338C23.9697 85.7764 24.2393 85.4629 24.5908 85.1934C24.9424 84.9238 25.3701 84.71 25.874 84.5518C26.3779 84.3936 26.9463 84.3145 27.5791 84.3145C28.2412 84.3145 28.8359 84.3936 29.3633 84.5518C29.8906 84.7041 30.3389 84.915 30.708 85.1846C31.0713 85.46 31.3496 85.7852 31.543 86.1602C31.7363 86.5352 31.833 86.9424 31.833 87.3818H29.3896C29.3896 87.2236 29.3633 87.0771 29.3105 86.9424C29.2578 86.8018 29.1787 86.6758 29.0732 86.5645C28.9268 86.418 28.7275 86.3008 28.4756 86.2129C28.2295 86.125 27.9307 86.0811 27.5791 86.0811C27.2803 86.0811 27.0195 86.1104 26.7969 86.1689C26.5742 86.2275 26.3926 86.3096 26.252 86.415C26.123 86.5088 26.0234 86.6201 25.9531 86.749C25.8887 86.8721 25.8564 87.0039 25.8564 87.1445C25.8564 87.2852 25.8857 87.417 25.9443 87.54C26.0029 87.6572 26.1084 87.7627 26.2607 87.8564C26.4072 87.9561 26.6094 88.0469 26.8672 88.1289C27.125 88.2051 27.4531 88.2725 27.8516 88.3311C28.4258 88.4248 28.959 88.5449 29.4512 88.6914C29.9434 88.8379 30.3682 89.0254 30.7256 89.2539C31.083 89.4883 31.3613 89.7725 31.5605 90.1064C31.7656 90.4346 31.8682 90.8271 31.8682 91.2842C31.8682 91.7061 31.7656 92.0957 31.5605 92.4531C31.3613 92.8047 31.0771 93.1094 30.708 93.3672C30.333 93.625 29.8818 93.8271 29.3545 93.9736C28.8271 94.1143 28.2383 94.1846 27.5879 94.1846C26.873 94.1846 26.2402 94.0908 25.6895 93.9033C25.1445 93.7158 24.6875 93.4697 24.3184 93.165C23.9492 92.8662 23.668 92.5264 23.4746 92.1455C23.2871 91.7588 23.1934 91.3721 23.1934 90.9854H25.5225C25.54 91.2432 25.6104 91.4658 25.7334 91.6533C25.8564 91.835 26.0146 91.9814 26.208 92.0928C26.4014 92.21 26.6211 92.2949 26.8672 92.3477C27.1191 92.4004 27.377 92.4268 27.6406 92.4268C27.957 92.4268 28.2324 92.4004 28.4668 92.3477C28.707 92.2891 28.9033 92.2129 29.0557 92.1191C29.2021 92.0254 29.3105 91.917 29.3809 91.7939C29.457 91.6709 29.4951 91.5361 29.4951 91.3896ZM38.6533 82.1611V84.4902H42.2041V86.292H38.6533V90.3789C38.6533 90.7246 38.6914 91.0146 38.7676 91.249C38.8496 91.4775 38.9639 91.6592 39.1104 91.7939C39.2568 91.9346 39.4326 92.0342 39.6377 92.0928C39.8486 92.1514 40.083 92.1807 40.3408 92.1807C40.5283 92.1807 40.7188 92.1719 40.9121 92.1543C41.1113 92.1367 41.3018 92.1133 41.4834 92.084C41.6592 92.0605 41.8232 92.0342 41.9756 92.0049C42.1338 91.9756 42.2686 91.9463 42.3799 91.917L42.6172 93.5957C42.4473 93.6953 42.248 93.7832 42.0195 93.8594C41.791 93.9297 41.5479 93.9883 41.29 94.0352C41.0322 94.082 40.7627 94.1172 40.4814 94.1406C40.2061 94.1699 39.9336 94.1846 39.6641 94.1846C39.1426 94.1846 38.668 94.1172 38.2402 93.9824C37.8184 93.8418 37.458 93.625 37.1592 93.332C36.8545 93.0449 36.6201 92.6787 36.4561 92.2334C36.292 91.7822 36.21 91.2432 36.21 90.6162V86.292H34.0391V84.4902H36.21V82.1611H38.6533ZM53.542 89.3418H46.2207V87.3643H53.542V89.3418ZM61.9971 91.3281H58.1562L57.4004 94H54.7988L58.9912 81.2031H61.2324L65.3457 94H62.7441L61.9971 91.3281ZM58.7627 89.2275H61.417L60.1074 84.5166L58.7627 89.2275ZM66.6377 97.6562V84.4902H68.8965L68.9844 85.4219C69.1133 85.2637 69.2539 85.123 69.4062 85C69.5586 84.8711 69.7227 84.7598 69.8984 84.666C70.1094 84.5547 70.3408 84.4697 70.5928 84.4111C70.8506 84.3467 71.126 84.3145 71.4189 84.3145C72.0225 84.3145 72.5557 84.4316 73.0186 84.666C73.4814 84.8945 73.8711 85.2197 74.1875 85.6416C74.5039 86.0693 74.7412 86.582 74.8994 87.1797C75.0635 87.7715 75.1455 88.4277 75.1455 89.1484V89.333C75.1455 90.0244 75.0635 90.666 74.8994 91.2578C74.7412 91.8496 74.5068 92.3594 74.1963 92.7871C73.8799 93.2207 73.4902 93.5605 73.0273 93.8066C72.5645 94.0527 72.0342 94.1758 71.4365 94.1758C71.1201 94.1758 70.8271 94.1406 70.5576 94.0703C70.2939 94.0059 70.0479 93.9092 69.8193 93.7803C69.6846 93.6982 69.5557 93.6074 69.4326 93.5078C69.3096 93.4082 69.1924 93.2969 69.0811 93.1738V97.6562H66.6377ZM72.7021 89.1484C72.7021 88.75 72.6641 88.3779 72.5879 88.0322C72.5176 87.6807 72.4062 87.376 72.2539 87.1182C72.0957 86.8662 71.8936 86.667 71.6475 86.5205C71.4072 86.374 71.1143 86.3008 70.7686 86.3008C70.5693 86.3008 70.3877 86.3213 70.2236 86.3623C70.0596 86.3975 69.9102 86.4502 69.7754 86.5205C69.623 86.6025 69.4883 86.7051 69.3711 86.8281C69.2598 86.9512 69.1631 87.0947 69.0811 87.2588V91.2314C69.1572 91.3838 69.248 91.5215 69.3535 91.6445C69.4648 91.7676 69.5908 91.873 69.7314 91.9609C69.8662 92.043 70.0215 92.1074 70.1973 92.1543C70.373 92.1953 70.5693 92.2158 70.7861 92.2158C71.1318 92.2158 71.4248 92.1396 71.665 91.9873C71.9111 91.835 72.1104 91.627 72.2627 91.3633C72.415 91.0996 72.5264 90.7949 72.5967 90.4492C72.667 90.0977 72.7021 89.7256 72.7021 89.333V89.1484ZM78.0635 84.4902H83.2402V92.0137H85.8154V94H78.0635V92.0137H80.7705V86.4854H78.0635V84.4902ZM80.5947 82.0557C80.5947 81.8682 80.627 81.6953 80.6914 81.5371C80.7617 81.373 80.8584 81.2324 80.9814 81.1152C81.1045 81.0039 81.251 80.916 81.4209 80.8516C81.5967 80.7871 81.79 80.7549 82.001 80.7549C82.4346 80.7549 82.7773 80.8779 83.0293 81.124C83.2871 81.3643 83.416 81.6748 83.416 82.0557C83.416 82.4365 83.2871 82.75 83.0293 82.9961C82.7773 83.2363 82.4346 83.3564 82.001 83.3564C81.79 83.3564 81.5967 83.3242 81.4209 83.2598C81.251 83.1953 81.1045 83.1045 80.9814 82.9873C80.8584 82.876 80.7617 82.7412 80.6914 82.583C80.627 82.4189 80.5947 82.2432 80.5947 82.0557Z" fill="#02F4BF"/>
</svg>
