<svg width="107" height="100" viewBox="0 0 107 100" fill="none" xmlns="http://www.w3.org/2000/svg">
<path d="M24 5C44.0135 5 63.9865 5 84 5C84 25.0135 84 45.027 84 65C64.027 65 44.0135 65 24 65C24 44.946 24 24.973 24 5ZM77.6799 36.7623C76.4645 34.5746 74.8035 33.0756 72.4132 32.549C70.7117 32.1438 69.0101 32.1438 67.3086 32.5084C61.7988 33.6428 59.449 40.287 63.0142 44.7029C64.2701 46.2424 65.9311 47.1742 67.6732 47.9845C69.2127 48.7137 70.7927 49.4024 72.3322 50.1722C73.3855 50.6988 73.8312 51.6712 73.7097 52.846C73.5881 54.0209 72.7778 54.6691 71.765 55.0338C69.4963 55.844 66.8629 55.1148 65.3234 53.2107C64.9993 52.8055 64.6752 52.3599 64.3511 51.9142C62.8116 52.8055 61.3126 53.6563 59.8136 54.5476C60.7454 56.3707 62.0419 57.8292 63.8244 58.8015C66.8629 60.4625 70.0635 60.7056 73.345 59.8953C75.4922 59.3687 77.3153 58.2748 78.4497 56.2897C80.5564 52.5219 79.341 47.8224 75.6138 45.5132C73.9527 44.5003 72.0891 43.8116 70.3471 42.9203C69.4963 42.4747 68.605 42.0695 67.8758 41.5024C66.5793 40.449 66.8224 38.3423 68.2809 37.5321C69.6988 36.7218 71.684 37.208 72.7778 38.6259C73.0209 38.9095 73.183 39.2336 73.4261 39.5577C74.8035 38.6259 76.2215 37.6941 77.6799 36.7623ZM39.8001 55.1553C40.6104 56.8974 41.7853 58.2748 43.4463 59.1661C45.5935 60.341 47.9433 60.5435 50.3336 60.1789C52.4808 59.8548 54.2633 58.8825 55.4382 56.9379C56.4105 55.3173 56.6941 53.5348 56.6941 51.6306C56.6941 45.4726 56.6941 39.3147 56.6941 33.1566C56.6941 32.9946 56.6941 32.792 56.6941 32.5895C54.79 32.5895 52.9669 32.5895 51.0628 32.5895C51.0628 32.8325 51.0628 33.0351 51.0628 33.2782C51.0628 39.3552 51.0628 45.3916 51.0628 51.4686C51.0628 52.0358 51.0223 52.6435 50.9413 53.2107C50.7792 54.1425 50.293 54.8312 49.3612 55.1148C47.6192 55.6415 46.2012 55.1148 45.1884 53.6158C44.9453 53.2107 44.7022 52.8055 44.4186 52.4004C42.8386 53.3322 41.3396 54.2235 39.8001 55.1553Z" fill="#02F4BF"/>
<path d="M6.68945 81.2031H9.15918L9.16797 90.0713C9.16211 90.6807 9.04492 91.2373 8.81641 91.7412C8.59375 92.2393 8.28613 92.6699 7.89355 93.0332C7.50098 93.3965 7.03809 93.6777 6.50488 93.877C5.97754 94.0762 5.40918 94.1758 4.7998 94.1758C4.15527 94.1758 3.56934 94.0938 3.04199 93.9297C2.51465 93.7656 2.06348 93.5195 1.68848 93.1914C1.30762 92.8691 1.01172 92.4619 0.800781 91.9697C0.589844 91.4775 0.481445 90.9004 0.475586 90.2383H2.9541C2.9541 90.543 2.9834 90.8096 3.04199 91.0381C3.10059 91.2666 3.18848 91.46 3.30566 91.6182C3.45801 91.8115 3.65723 91.9551 3.90332 92.0488C4.14941 92.1426 4.44824 92.1895 4.7998 92.1895C5.08105 92.1895 5.33887 92.1367 5.57324 92.0312C5.80762 91.9199 6.00684 91.7705 6.1709 91.583C6.33496 91.3955 6.46094 91.1729 6.54883 90.915C6.64258 90.6514 6.68945 90.3701 6.68945 90.0713V81.2031ZM17.4912 94C17.4326 93.8828 17.3828 93.748 17.3418 93.5957C17.3008 93.4434 17.2656 93.2822 17.2363 93.1123C17.1016 93.2588 16.9463 93.3965 16.7705 93.5254C16.5947 93.6543 16.4014 93.7656 16.1904 93.8594C15.9736 93.959 15.7363 94.0352 15.4785 94.0879C15.2207 94.1465 14.9424 94.1758 14.6436 94.1758C14.1572 94.1758 13.709 94.1055 13.2988 93.9648C12.8945 93.8242 12.5459 93.6279 12.2529 93.376C11.96 93.124 11.7314 92.8252 11.5674 92.4795C11.4033 92.1279 11.3213 91.7471 11.3213 91.3369C11.3213 90.8096 11.4238 90.3438 11.6289 89.9395C11.834 89.5293 12.1416 89.1924 12.5518 88.9287C12.9209 88.6885 13.375 88.5068 13.9141 88.3838C14.459 88.2549 15.083 88.1904 15.7861 88.1904H17.1484V87.6279C17.1484 87.4053 17.1133 87.2061 17.043 87.0303C16.9727 86.8486 16.8672 86.6934 16.7266 86.5645C16.5801 86.4297 16.3955 86.3271 16.1729 86.2568C15.9561 86.1807 15.7012 86.1426 15.4082 86.1426C15.1504 86.1426 14.9277 86.1748 14.7402 86.2393C14.5527 86.2979 14.4004 86.3828 14.2832 86.4941C14.1777 86.5938 14.0986 86.7139 14.0459 86.8545C13.999 86.9951 13.9756 87.1504 13.9756 87.3203H11.5322C11.5322 86.916 11.6201 86.5322 11.7959 86.1689C11.9775 85.8057 12.2412 85.4863 12.5869 85.2109C12.9268 84.9355 13.3428 84.7188 13.835 84.5605C14.333 84.3965 14.9014 84.3145 15.54 84.3145C16.1143 84.3145 16.6475 84.3848 17.1396 84.5254C17.6377 84.666 18.0684 84.874 18.4316 85.1494C18.7949 85.4248 19.0791 85.7734 19.2842 86.1953C19.4893 86.6113 19.5918 87.0947 19.5918 87.6455V91.7236C19.5918 92.2334 19.624 92.6553 19.6885 92.9893C19.7529 93.3232 19.8467 93.6104 19.9697 93.8506V94H17.4912ZM15.1621 92.2861C15.4082 92.2861 15.6367 92.2568 15.8477 92.1982C16.0586 92.1396 16.249 92.0635 16.4189 91.9697C16.5889 91.876 16.7354 91.7705 16.8584 91.6533C16.9814 91.5303 17.0781 91.4072 17.1484 91.2842V89.6494H15.9004C15.5195 89.6494 15.1943 89.6875 14.9248 89.7637C14.6553 89.834 14.4355 89.9336 14.2656 90.0625C14.0957 90.1973 13.9697 90.3584 13.8877 90.5459C13.8057 90.7275 13.7646 90.9268 13.7646 91.1436C13.7646 91.3135 13.7939 91.4717 13.8525 91.6182C13.917 91.7588 14.0078 91.8789 14.125 91.9785C14.2422 92.0723 14.3857 92.1484 14.5557 92.207C14.7314 92.2598 14.9336 92.2861 15.1621 92.2861ZM25.3838 94L21.7539 84.4902H24.3027L26.3945 91.1963L26.5264 91.8643L26.6582 91.1963L28.7412 84.4902H31.29L27.6777 94H25.3838ZM39.1123 94C39.0537 93.8828 39.0039 93.748 38.9629 93.5957C38.9219 93.4434 38.8867 93.2822 38.8574 93.1123C38.7227 93.2588 38.5674 93.3965 38.3916 93.5254C38.2158 93.6543 38.0225 93.7656 37.8115 93.8594C37.5947 93.959 37.3574 94.0352 37.0996 94.0879C36.8418 94.1465 36.5635 94.1758 36.2646 94.1758C35.7783 94.1758 35.3301 94.1055 34.9199 93.9648C34.5156 93.8242 34.167 93.6279 33.874 93.376C33.5811 93.124 33.3525 92.8252 33.1885 92.4795C33.0244 92.1279 32.9424 91.7471 32.9424 91.3369C32.9424 90.8096 33.0449 90.3438 33.25 89.9395C33.4551 89.5293 33.7627 89.1924 34.1729 88.9287C34.542 88.6885 34.9961 88.5068 35.5352 88.3838C36.0801 88.2549 36.7041 88.1904 37.4072 88.1904H38.7695V87.6279C38.7695 87.4053 38.7344 87.2061 38.6641 87.0303C38.5938 86.8486 38.4883 86.6934 38.3477 86.5645C38.2012 86.4297 38.0166 86.3271 37.7939 86.2568C37.5771 86.1807 37.3223 86.1426 37.0293 86.1426C36.7715 86.1426 36.5488 86.1748 36.3613 86.2393C36.1738 86.2979 36.0215 86.3828 35.9043 86.4941C35.7988 86.5938 35.7197 86.7139 35.667 86.8545C35.6201 86.9951 35.5967 87.1504 35.5967 87.3203H33.1533C33.1533 86.916 33.2412 86.5322 33.417 86.1689C33.5986 85.8057 33.8623 85.4863 34.208 85.2109C34.5479 84.9355 34.9639 84.7188 35.4561 84.5605C35.9541 84.3965 36.5225 84.3145 37.1611 84.3145C37.7354 84.3145 38.2686 84.3848 38.7607 84.5254C39.2588 84.666 39.6895 84.874 40.0527 85.1494C40.416 85.4248 40.7002 85.7734 40.9053 86.1953C41.1104 86.6113 41.2129 87.0947 41.2129 87.6455V91.7236C41.2129 92.2334 41.2451 92.6553 41.3096 92.9893C41.374 93.3232 41.4678 93.6104 41.5908 93.8506V94H39.1123ZM36.7832 92.2861C37.0293 92.2861 37.2578 92.2568 37.4688 92.1982C37.6797 92.1396 37.8701 92.0635 38.04 91.9697C38.21 91.876 38.3564 91.7705 38.4795 91.6533C38.6025 91.5303 38.6992 91.4072 38.7695 91.2842V89.6494H37.5215C37.1406 89.6494 36.8154 89.6875 36.5459 89.7637C36.2764 89.834 36.0566 89.9336 35.8867 90.0625C35.7168 90.1973 35.5908 90.3584 35.5088 90.5459C35.4268 90.7275 35.3857 90.9268 35.3857 91.1436C35.3857 91.3135 35.415 91.4717 35.4736 91.6182C35.5381 91.7588 35.6289 91.8789 35.7461 91.9785C35.8633 92.0723 36.0068 92.1484 36.1768 92.207C36.3525 92.2598 36.5547 92.2861 36.7832 92.2861ZM50.5381 90.6602C50.5381 90.4316 50.4971 90.2178 50.415 90.0186C50.3389 89.8193 50.207 89.6318 50.0195 89.4561C49.8262 89.2861 49.5742 89.1309 49.2637 88.9902C48.959 88.8438 48.5781 88.709 48.1211 88.5859C47.4121 88.3926 46.7881 88.1582 46.249 87.8828C45.7158 87.6074 45.2793 87.3057 44.9395 86.9775C44.5996 86.6494 44.3418 86.2861 44.166 85.8877C43.9961 85.4893 43.9111 85.0557 43.9111 84.5869C43.9111 84.0479 44.0254 83.5586 44.2539 83.1191C44.4824 82.6797 44.7988 82.3047 45.2031 81.9941C45.6074 81.6836 46.085 81.4463 46.6357 81.2822C47.1865 81.1123 47.7842 81.0273 48.4287 81.0273C49.0967 81.0273 49.7061 81.124 50.2568 81.3174C50.8135 81.5107 51.291 81.7803 51.6895 82.126C52.0879 82.4775 52.3984 82.8936 52.6211 83.374C52.8438 83.8545 52.9551 84.3818 52.9551 84.9561H50.5469C50.5352 84.6689 50.4824 84.4053 50.3887 84.165C50.3008 83.9248 50.1689 83.7168 49.9932 83.541C49.8115 83.3711 49.5859 83.2393 49.3164 83.1455C49.0527 83.0459 48.7422 82.9961 48.3848 82.9961C48.0566 82.9961 47.7637 83.0371 47.5059 83.1191C47.2539 83.1953 47.04 83.3037 46.8643 83.4443C46.6885 83.5908 46.5537 83.7637 46.46 83.9629C46.3721 84.1562 46.3281 84.3672 46.3281 84.5957C46.3281 84.8359 46.3867 85.0527 46.5039 85.2461C46.627 85.4395 46.8027 85.6123 47.0312 85.7646C47.2598 85.9229 47.5352 86.0664 47.8574 86.1953C48.1855 86.3242 48.5547 86.4443 48.9648 86.5557C49.4043 86.6787 49.8232 86.8281 50.2217 87.0039C50.6201 87.1797 50.9863 87.3818 51.3203 87.6104C51.8242 87.9854 52.2256 88.4219 52.5244 88.9199C52.8232 89.418 52.9727 89.9922 52.9727 90.6426C52.9727 91.2051 52.8584 91.7061 52.6299 92.1455C52.4072 92.5791 52.0967 92.9453 51.6982 93.2441C51.2998 93.5488 50.8252 93.7803 50.2744 93.9385C49.7236 94.0908 49.123 94.167 48.4727 94.167C47.834 94.167 47.2012 94.0732 46.5742 93.8857C45.9531 93.6924 45.4111 93.4111 44.9482 93.042C44.5088 92.6787 44.1602 92.251 43.9023 91.7588C43.6504 91.2666 43.5244 90.6895 43.5244 90.0273H45.9502C45.9619 90.4141 46.0293 90.7451 46.1523 91.0205C46.2754 91.2959 46.4482 91.5215 46.6709 91.6973C46.8877 91.873 47.1484 92.002 47.4531 92.084C47.7637 92.166 48.1035 92.207 48.4727 92.207C48.8008 92.207 49.0908 92.1689 49.3428 92.0928C49.6006 92.0166 49.8174 91.9111 49.9932 91.7764C50.1689 91.6416 50.3037 91.4805 50.3975 91.293C50.4912 91.0996 50.5381 90.8887 50.5381 90.6602ZM59.002 92.2246C59.2422 92.2246 59.4707 92.1895 59.6875 92.1191C59.9043 92.0488 60.0947 91.9492 60.2588 91.8203C60.4229 91.6914 60.5488 91.5361 60.6367 91.3545C60.7305 91.1729 60.7715 90.9707 60.7598 90.748H63.0625C63.0742 91.2402 62.9717 91.6973 62.7549 92.1191C62.5439 92.541 62.2539 92.9043 61.8848 93.209C61.5156 93.5137 61.085 93.7539 60.5928 93.9297C60.1064 94.0996 59.5908 94.1846 59.0459 94.1846C58.3076 94.1846 57.6602 94.0615 57.1035 93.8154C56.5469 93.5635 56.084 93.2207 55.7148 92.7871C55.3398 92.3535 55.0557 91.8467 54.8623 91.2666C54.6748 90.6807 54.5811 90.0537 54.5811 89.3857V89.1221C54.5811 88.4541 54.6748 87.8301 54.8623 87.25C55.0498 86.6641 55.3311 86.1543 55.7061 85.7207C56.0811 85.2871 56.5439 84.9443 57.0947 84.6924C57.6514 84.4404 58.2959 84.3145 59.0283 84.3145C59.6143 84.3145 60.1562 84.4023 60.6543 84.5781C61.1523 84.7539 61.583 85 61.9463 85.3164C62.3037 85.6387 62.582 86.0283 62.7812 86.4854C62.9805 86.9365 63.0742 87.4434 63.0625 88.0059H60.7598C60.7715 87.7715 60.7363 87.5488 60.6543 87.3379C60.5723 87.127 60.4521 86.9453 60.2939 86.793C60.1357 86.6406 59.9453 86.5205 59.7227 86.4326C59.5 86.3389 59.2568 86.292 58.9932 86.292C58.6064 86.292 58.2871 86.3711 58.0352 86.5293C57.7832 86.6875 57.584 86.8984 57.4375 87.1621C57.2852 87.4258 57.1768 87.7275 57.1123 88.0674C57.0537 88.4072 57.0244 88.7588 57.0244 89.1221V89.3857C57.0244 89.7549 57.0537 90.1123 57.1123 90.458C57.1709 90.7979 57.2764 91.0967 57.4287 91.3545C57.5752 91.6182 57.7744 91.8291 58.0264 91.9873C58.2842 92.1455 58.6094 92.2246 59.002 92.2246ZM72.4316 84.3145C72.8008 84.3145 73.1406 84.3408 73.4512 84.3936C73.7676 84.4404 74.0225 84.4932 74.2158 84.5518L73.8555 86.9863C73.5332 86.9102 73.2021 86.8545 72.8623 86.8193C72.5283 86.7783 72.209 86.7578 71.9043 86.7578C71.5879 86.7578 71.3008 86.7871 71.043 86.8457C70.791 86.8984 70.5654 86.9805 70.3662 87.0918C70.126 87.2207 69.9209 87.3848 69.751 87.584C69.5811 87.7832 69.4404 88.0176 69.3291 88.2871V94H66.8857V84.4902H69.1621L69.2588 85.835L69.2764 86.0459C69.6631 85.5068 70.126 85.085 70.665 84.7803C71.2041 84.4697 71.793 84.3145 72.4316 84.3145ZM77.0635 84.4902H82.2402V92.0137H84.8154V94H77.0635V92.0137H79.7705V86.4854H77.0635V84.4902ZM79.5947 82.0557C79.5947 81.8682 79.627 81.6953 79.6914 81.5371C79.7617 81.373 79.8584 81.2324 79.9814 81.1152C80.1045 81.0039 80.251 80.916 80.4209 80.8516C80.5967 80.7871 80.79 80.7549 81.001 80.7549C81.4346 80.7549 81.7773 80.8779 82.0293 81.124C82.2871 81.3643 82.416 81.6748 82.416 82.0557C82.416 82.4365 82.2871 82.75 82.0293 82.9961C81.7773 83.2363 81.4346 83.3564 81.001 83.3564C80.79 83.3564 80.5967 83.3242 80.4209 83.2598C80.251 83.1953 80.1045 83.1045 79.9814 82.9873C79.8584 82.876 79.7617 82.7412 79.6914 82.583C79.627 82.4189 79.5947 82.2432 79.5947 82.0557ZM87.2588 97.6562V84.4902H89.5176L89.6055 85.4219C89.7344 85.2637 89.875 85.123 90.0273 85C90.1797 84.8711 90.3438 84.7598 90.5195 84.666C90.7305 84.5547 90.9619 84.4697 91.2139 84.4111C91.4717 84.3467 91.7471 84.3145 92.04 84.3145C92.6436 84.3145 93.1768 84.4316 93.6396 84.666C94.1025 84.8945 94.4922 85.2197 94.8086 85.6416C95.125 86.0693 95.3623 86.582 95.5205 87.1797C95.6846 87.7715 95.7666 88.4277 95.7666 89.1484V89.333C95.7666 90.0244 95.6846 90.666 95.5205 91.2578C95.3623 91.8496 95.1279 92.3594 94.8174 92.7871C94.501 93.2207 94.1113 93.5605 93.6484 93.8066C93.1855 94.0527 92.6553 94.1758 92.0576 94.1758C91.7412 94.1758 91.4482 94.1406 91.1787 94.0703C90.915 94.0059 90.6689 93.9092 90.4404 93.7803C90.3057 93.6982 90.1768 93.6074 90.0537 93.5078C89.9307 93.4082 89.8135 93.2969 89.7021 93.1738V97.6562H87.2588ZM93.3232 89.1484C93.3232 88.75 93.2852 88.3779 93.209 88.0322C93.1387 87.6807 93.0273 87.376 92.875 87.1182C92.7168 86.8662 92.5146 86.667 92.2686 86.5205C92.0283 86.374 91.7354 86.3008 91.3896 86.3008C91.1904 86.3008 91.0088 86.3213 90.8447 86.3623C90.6807 86.3975 90.5312 86.4502 90.3965 86.5205C90.2441 86.6025 90.1094 86.7051 89.9922 86.8281C89.8809 86.9512 89.7842 87.0947 89.7021 87.2588V91.2314C89.7783 91.3838 89.8691 91.5215 89.9746 91.6445C90.0859 91.7676 90.2119 91.873 90.3525 91.9609C90.4873 92.043 90.6426 92.1074 90.8184 92.1543C90.9941 92.1953 91.1904 92.2158 91.4072 92.2158C91.7529 92.2158 92.0459 92.1396 92.2861 91.9873C92.5322 91.835 92.7314 91.627 92.8838 91.3633C93.0361 91.0996 93.1475 90.7949 93.2178 90.4492C93.2881 90.0977 93.3232 89.7256 93.3232 89.333V89.1484ZM102.517 82.1611V84.4902H106.067V86.292H102.517V90.3789C102.517 90.7246 102.555 91.0146 102.631 91.249C102.713 91.4775 102.827 91.6592 102.974 91.7939C103.12 91.9346 103.296 92.0342 103.501 92.0928C103.712 92.1514 103.946 92.1807 104.204 92.1807C104.392 92.1807 104.582 92.1719 104.775 92.1543C104.975 92.1367 105.165 92.1133 105.347 92.084C105.522 92.0605 105.687 92.0342 105.839 92.0049C105.997 91.9756 106.132 91.9463 106.243 91.917L106.48 93.5957C106.311 93.6953 106.111 93.7832 105.883 93.8594C105.654 93.9297 105.411 93.9883 105.153 94.0352C104.896 94.082 104.626 94.1172 104.345 94.1406C104.069 94.1699 103.797 94.1846 103.527 94.1846C103.006 94.1846 102.531 94.1172 102.104 93.9824C101.682 93.8418 101.321 93.625 101.022 93.332C100.718 93.0449 100.483 92.6787 100.319 92.2334C100.155 91.7822 100.073 91.2432 100.073 90.6162V86.292H97.9023V84.4902H100.073V82.1611H102.517Z" fill="#02F4BF"/>
</svg>
