<svg width="108" height="100" viewBox="0 0 108 100" fill="none" xmlns="http://www.w3.org/2000/svg">
<path d="M84.9182 9.7749C84.4816 7.48295 82.7081 5.62756 80.4434 5.13643C80.3343 5.10914 80.2252 5.10914 80.0887 5.08186C80.0615 5.08186 80.0342 5.02729 80.0069 5H29.966C29.9387 5.02729 29.9114 5.08186 29.8568 5.08186C27.5921 5.46385 25.6822 7.26467 25.1638 9.55662C25.1365 9.63847 25.0819 9.74761 25.0273 9.85675V60.0341C25.0546 60.0887 25.1092 60.116 25.1092 60.1705C25.6549 62.6808 27.1829 64.236 29.6658 64.8636C29.7477 64.8909 29.8022 64.9454 29.8568 65H80.0887C80.1433 64.9727 80.1706 64.9181 80.2252 64.8909C82.7081 64.3179 84.2361 62.8172 84.8636 60.3342C84.8909 60.2524 84.8636 60.1433 84.8909 60.0614C84.8909 60.0341 84.9455 60.0068 84.9728 59.9795V9.93861C84.9728 9.88404 84.9182 9.85675 84.9182 9.7749ZM59.8159 38.2606H59.5158C57.2511 38.2606 54.9591 38.2606 52.6945 38.2606C52.5853 38.2606 52.4762 38.2606 52.367 38.2606C52.367 38.2879 52.3398 38.2879 52.3398 38.3151C52.3398 38.4243 52.3398 38.5334 52.3398 38.6426V59.6794H46.3643V38.2879H38.8609V33.513H59.7886V38.2606H59.8159ZM79.9523 52.5307C79.8977 53.4584 79.7613 54.3588 79.3793 55.2319C79.2702 55.5048 79.1883 55.7503 79.0519 56.0232C78.5608 57.06 77.7422 57.7967 76.7872 58.397C75.6958 59.0791 74.4953 59.4611 73.2402 59.7067C71.8486 59.9795 70.4571 60.0614 69.0383 60.0068C68.3561 59.9795 67.674 59.9795 66.9919 59.8977C65.3821 59.7067 63.7995 59.352 62.3261 58.6426C62.2443 58.6153 62.1351 58.4789 62.1351 58.397C62.1351 56.6235 62.1351 54.8499 62.1351 53.0764C62.1351 53.0491 62.1351 53.0218 62.1351 52.9673C62.5717 53.2674 63.0082 53.5675 63.4448 53.8131C64.5089 54.4407 65.6822 54.8772 66.8827 55.1501C67.9196 55.3956 68.9564 55.4229 69.9932 55.3684C70.7845 55.3411 71.5758 55.1501 72.2852 54.7954C72.9128 54.4679 73.4312 54.0314 73.5676 53.2947C73.704 52.6398 73.6494 51.985 73.2675 51.412C72.7218 50.5935 71.9578 50.075 71.1119 49.6385C70.157 49.1746 69.202 48.7654 68.2197 48.3288C66.7736 47.6739 65.3548 46.9645 64.1815 45.8731C63.2265 44.9727 62.5171 43.9086 62.1897 42.6262C61.9987 41.8622 61.9441 41.0982 61.9714 40.3342C61.9987 38.4516 62.6808 36.8417 64.0178 35.5048C65.1092 34.4134 66.4462 33.7585 67.9196 33.3765C68.9291 33.131 69.9387 32.94 70.9755 32.9127C71.7122 32.9127 72.4489 32.8308 73.1583 32.8581C74.277 32.8854 75.3684 32.94 76.4598 33.2128C77.1692 33.4038 77.9059 33.5948 78.6153 33.7585C78.7518 33.7858 78.8063 33.8677 78.8063 34.0314C78.8063 35.7231 78.8063 37.442 78.8063 39.1337C78.8063 39.1883 78.8063 39.2428 78.7791 39.3247C78.5608 39.1883 78.3698 39.0791 78.1788 38.97C77.3057 38.4789 76.378 38.1514 75.423 37.9059C74.3589 37.6603 73.2947 37.4966 72.2033 37.5239C71.4666 37.5512 70.7027 37.6603 70.0205 37.9059C69.1747 38.206 68.4926 38.6971 68.1924 39.5975C67.9469 40.307 68.1379 40.9072 68.5744 41.4802C69.1201 42.1896 69.8568 42.6808 70.6481 43.0628C71.7122 43.5812 72.8036 44.0177 73.8404 44.5089C75.041 45.0819 76.2415 45.6548 77.2511 46.5007C78.1242 47.2374 78.9155 48.0559 79.352 49.1473C79.5976 49.8022 79.8159 50.4843 79.8159 51.221C79.925 51.6576 79.9796 52.0941 79.9523 52.5307Z" fill="#02F4BF"/>
<path d="M11.0557 83.2158H7.10938V94H4.63086V83.2158H0.737305V81.2031H11.0557V83.2158ZM14.0527 97.8408C13.8184 97.8408 13.6133 97.8262 13.4375 97.7969C13.2676 97.7676 13.0771 97.7236 12.8662 97.665L13.165 95.8018C13.2646 95.8018 13.3906 95.8047 13.543 95.8105C13.7012 95.8223 13.8271 95.8281 13.9209 95.8281C14.1143 95.8281 14.2842 95.7666 14.4307 95.6436C14.583 95.5264 14.7119 95.3975 14.8174 95.2568C14.9229 95.1162 14.999 95.0107 15.0459 94.9404C15.0986 94.8701 15.1602 94.7705 15.2305 94.6416L15.793 93.5957L11.7676 84.4902H14.4395L16.6191 90.0625L16.8828 91.0293L17.2432 90.0801L19.4141 84.4902H22.1123L17.2871 95.4238C17.1816 95.6641 17.0439 95.9248 16.874 96.2061C16.71 96.4873 16.502 96.748 16.25 96.9883C15.998 97.2285 15.6904 97.4307 15.3271 97.5947C14.9697 97.7588 14.5449 97.8408 14.0527 97.8408ZM23.3955 97.6562V84.4902H25.6543L25.7422 85.4219C25.8711 85.2637 26.0117 85.123 26.1641 85C26.3164 84.8711 26.4805 84.7598 26.6562 84.666C26.8672 84.5547 27.0986 84.4697 27.3506 84.4111C27.6084 84.3467 27.8838 84.3145 28.1768 84.3145C28.7803 84.3145 29.3135 84.4316 29.7764 84.666C30.2393 84.8945 30.6289 85.2197 30.9453 85.6416C31.2617 86.0693 31.499 86.582 31.6572 87.1797C31.8213 87.7715 31.9033 88.4277 31.9033 89.1484V89.333C31.9033 90.0244 31.8213 90.666 31.6572 91.2578C31.499 91.8496 31.2646 92.3594 30.9541 92.7871C30.6377 93.2207 30.248 93.5605 29.7852 93.8066C29.3223 94.0527 28.792 94.1758 28.1943 94.1758C27.8779 94.1758 27.585 94.1406 27.3154 94.0703C27.0518 94.0059 26.8057 93.9092 26.5771 93.7803C26.4424 93.6982 26.3135 93.6074 26.1904 93.5078C26.0674 93.4082 25.9502 93.2969 25.8389 93.1738V97.6562H23.3955ZM29.46 89.1484C29.46 88.75 29.4219 88.3779 29.3457 88.0322C29.2754 87.6807 29.1641 87.376 29.0117 87.1182C28.8535 86.8662 28.6514 86.667 28.4053 86.5205C28.165 86.374 27.8721 86.3008 27.5264 86.3008C27.3271 86.3008 27.1455 86.3213 26.9814 86.3623C26.8174 86.3975 26.668 86.4502 26.5332 86.5205C26.3809 86.6025 26.2461 86.7051 26.1289 86.8281C26.0176 86.9512 25.9209 87.0947 25.8389 87.2588V91.2314C25.915 91.3838 26.0059 91.5215 26.1113 91.6445C26.2227 91.7676 26.3486 91.873 26.4893 91.9609C26.624 92.043 26.7793 92.1074 26.9551 92.1543C27.1309 92.1953 27.3271 92.2158 27.5439 92.2158C27.8896 92.2158 28.1826 92.1396 28.4229 91.9873C28.6689 91.835 28.8682 91.627 29.0205 91.3633C29.1729 91.0996 29.2842 90.7949 29.3545 90.4492C29.4248 90.0977 29.46 89.7256 29.46 89.333V89.1484ZM38.7852 94.1758C38.0527 94.1758 37.3877 94.0557 36.79 93.8154C36.1924 93.5752 35.6797 93.2471 35.252 92.8311C34.8242 92.4209 34.4932 91.9375 34.2588 91.3809C34.0303 90.8184 33.916 90.2178 33.916 89.5791V89.2275C33.916 88.501 34.0303 87.8389 34.2588 87.2412C34.4873 86.6377 34.8066 86.1191 35.2168 85.6855C35.627 85.252 36.1133 84.915 36.6758 84.6748C37.2383 84.4346 37.8506 84.3145 38.5127 84.3145C39.1982 84.3145 39.8076 84.4287 40.3408 84.6572C40.8799 84.8799 41.3369 85.1963 41.7119 85.6064C42.0811 86.0166 42.3623 86.5117 42.5557 87.0918C42.749 87.666 42.8457 88.3018 42.8457 88.999V90.0361H36.3945V90.0625C36.4766 90.4434 36.582 90.751 36.7109 90.9854C36.8398 91.2139 37.0127 91.4219 37.2295 91.6094C37.4521 91.8027 37.707 91.9521 37.9941 92.0576C38.2812 92.1631 38.5947 92.2158 38.9346 92.2158C39.415 92.2158 39.8809 92.125 40.332 91.9434C40.7832 91.7617 41.1494 91.4893 41.4307 91.126L42.6523 92.4443C42.3418 92.8838 41.8496 93.2822 41.1758 93.6396C40.502 93.9971 39.7051 94.1758 38.7852 94.1758ZM38.4951 86.292C38.2197 86.292 37.9678 86.3418 37.7393 86.4414C37.5107 86.5352 37.3115 86.6729 37.1416 86.8545C36.9658 87.0361 36.8193 87.2529 36.7021 87.5049C36.585 87.7568 36.4971 88.0381 36.4385 88.3486H40.4463V88.1553C40.4463 87.8975 40.3994 87.6543 40.3057 87.4258C40.2119 87.1973 40.083 86.998 39.9189 86.8281C39.7549 86.6641 39.5527 86.5352 39.3125 86.4414C39.0781 86.3418 38.8057 86.292 38.4951 86.292ZM51.5381 90.6602C51.5381 90.4316 51.4971 90.2178 51.415 90.0186C51.3389 89.8193 51.207 89.6318 51.0195 89.4561C50.8262 89.2861 50.5742 89.1309 50.2637 88.9902C49.959 88.8438 49.5781 88.709 49.1211 88.5859C48.4121 88.3926 47.7881 88.1582 47.249 87.8828C46.7158 87.6074 46.2793 87.3057 45.9395 86.9775C45.5996 86.6494 45.3418 86.2861 45.166 85.8877C44.9961 85.4893 44.9111 85.0557 44.9111 84.5869C44.9111 84.0479 45.0254 83.5586 45.2539 83.1191C45.4824 82.6797 45.7988 82.3047 46.2031 81.9941C46.6074 81.6836 47.085 81.4463 47.6357 81.2822C48.1865 81.1123 48.7842 81.0273 49.4287 81.0273C50.0967 81.0273 50.7061 81.124 51.2568 81.3174C51.8135 81.5107 52.291 81.7803 52.6895 82.126C53.0879 82.4775 53.3984 82.8936 53.6211 83.374C53.8438 83.8545 53.9551 84.3818 53.9551 84.9561H51.5469C51.5352 84.6689 51.4824 84.4053 51.3887 84.165C51.3008 83.9248 51.1689 83.7168 50.9932 83.541C50.8115 83.3711 50.5859 83.2393 50.3164 83.1455C50.0527 83.0459 49.7422 82.9961 49.3848 82.9961C49.0566 82.9961 48.7637 83.0371 48.5059 83.1191C48.2539 83.1953 48.04 83.3037 47.8643 83.4443C47.6885 83.5908 47.5537 83.7637 47.46 83.9629C47.3721 84.1562 47.3281 84.3672 47.3281 84.5957C47.3281 84.8359 47.3867 85.0527 47.5039 85.2461C47.627 85.4395 47.8027 85.6123 48.0312 85.7646C48.2598 85.9229 48.5352 86.0664 48.8574 86.1953C49.1855 86.3242 49.5547 86.4443 49.9648 86.5557C50.4043 86.6787 50.8232 86.8281 51.2217 87.0039C51.6201 87.1797 51.9863 87.3818 52.3203 87.6104C52.8242 87.9854 53.2256 88.4219 53.5244 88.9199C53.8232 89.418 53.9727 89.9922 53.9727 90.6426C53.9727 91.2051 53.8584 91.7061 53.6299 92.1455C53.4072 92.5791 53.0967 92.9453 52.6982 93.2441C52.2998 93.5488 51.8252 93.7803 51.2744 93.9385C50.7236 94.0908 50.123 94.167 49.4727 94.167C48.834 94.167 48.2012 94.0732 47.5742 93.8857C46.9531 93.6924 46.4111 93.4111 45.9482 93.042C45.5088 92.6787 45.1602 92.251 44.9023 91.7588C44.6504 91.2666 44.5244 90.6895 44.5244 90.0273H46.9502C46.9619 90.4141 47.0293 90.7451 47.1523 91.0205C47.2754 91.2959 47.4482 91.5215 47.6709 91.6973C47.8877 91.873 48.1484 92.002 48.4531 92.084C48.7637 92.166 49.1035 92.207 49.4727 92.207C49.8008 92.207 50.0908 92.1689 50.3428 92.0928C50.6006 92.0166 50.8174 91.9111 50.9932 91.7764C51.1689 91.6416 51.3037 91.4805 51.3975 91.293C51.4912 91.0996 51.5381 90.8887 51.5381 90.6602ZM60.002 92.2246C60.2422 92.2246 60.4707 92.1895 60.6875 92.1191C60.9043 92.0488 61.0947 91.9492 61.2588 91.8203C61.4229 91.6914 61.5488 91.5361 61.6367 91.3545C61.7305 91.1729 61.7715 90.9707 61.7598 90.748H64.0625C64.0742 91.2402 63.9717 91.6973 63.7549 92.1191C63.5439 92.541 63.2539 92.9043 62.8848 93.209C62.5156 93.5137 62.085 93.7539 61.5928 93.9297C61.1064 94.0996 60.5908 94.1846 60.0459 94.1846C59.3076 94.1846 58.6602 94.0615 58.1035 93.8154C57.5469 93.5635 57.084 93.2207 56.7148 92.7871C56.3398 92.3535 56.0557 91.8467 55.8623 91.2666C55.6748 90.6807 55.5811 90.0537 55.5811 89.3857V89.1221C55.5811 88.4541 55.6748 87.8301 55.8623 87.25C56.0498 86.6641 56.3311 86.1543 56.7061 85.7207C57.0811 85.2871 57.5439 84.9443 58.0947 84.6924C58.6514 84.4404 59.2959 84.3145 60.0283 84.3145C60.6143 84.3145 61.1562 84.4023 61.6543 84.5781C62.1523 84.7539 62.583 85 62.9463 85.3164C63.3037 85.6387 63.582 86.0283 63.7812 86.4854C63.9805 86.9365 64.0742 87.4434 64.0625 88.0059H61.7598C61.7715 87.7715 61.7363 87.5488 61.6543 87.3379C61.5723 87.127 61.4521 86.9453 61.2939 86.793C61.1357 86.6406 60.9453 86.5205 60.7227 86.4326C60.5 86.3389 60.2568 86.292 59.9932 86.292C59.6064 86.292 59.2871 86.3711 59.0352 86.5293C58.7832 86.6875 58.584 86.8984 58.4375 87.1621C58.2852 87.4258 58.1768 87.7275 58.1123 88.0674C58.0537 88.4072 58.0244 88.7588 58.0244 89.1221V89.3857C58.0244 89.7549 58.0537 90.1123 58.1123 90.458C58.1709 90.7979 58.2764 91.0967 58.4287 91.3545C58.5752 91.6182 58.7744 91.8291 59.0264 91.9873C59.2842 92.1455 59.6094 92.2246 60.002 92.2246ZM73.4316 84.3145C73.8008 84.3145 74.1406 84.3408 74.4512 84.3936C74.7676 84.4404 75.0225 84.4932 75.2158 84.5518L74.8555 86.9863C74.5332 86.9102 74.2021 86.8545 73.8623 86.8193C73.5283 86.7783 73.209 86.7578 72.9043 86.7578C72.5879 86.7578 72.3008 86.7871 72.043 86.8457C71.791 86.8984 71.5654 86.9805 71.3662 87.0918C71.126 87.2207 70.9209 87.3848 70.751 87.584C70.5811 87.7832 70.4404 88.0176 70.3291 88.2871V94H67.8857V84.4902H70.1621L70.2588 85.835L70.2764 86.0459C70.6631 85.5068 71.126 85.085 71.665 84.7803C72.2041 84.4697 72.793 84.3145 73.4316 84.3145ZM78.0635 84.4902H83.2402V92.0137H85.8154V94H78.0635V92.0137H80.7705V86.4854H78.0635V84.4902ZM80.5947 82.0557C80.5947 81.8682 80.627 81.6953 80.6914 81.5371C80.7617 81.373 80.8584 81.2324 80.9814 81.1152C81.1045 81.0039 81.251 80.916 81.4209 80.8516C81.5967 80.7871 81.79 80.7549 82.001 80.7549C82.4346 80.7549 82.7773 80.8779 83.0293 81.124C83.2871 81.3643 83.416 81.6748 83.416 82.0557C83.416 82.4365 83.2871 82.75 83.0293 82.9961C82.7773 83.2363 82.4346 83.3564 82.001 83.3564C81.79 83.3564 81.5967 83.3242 81.4209 83.2598C81.251 83.1953 81.1045 83.1045 80.9814 82.9873C80.8584 82.876 80.7617 82.7412 80.6914 82.583C80.627 82.4189 80.5947 82.2432 80.5947 82.0557ZM88.2588 97.6562V84.4902H90.5176L90.6055 85.4219C90.7344 85.2637 90.875 85.123 91.0273 85C91.1797 84.8711 91.3438 84.7598 91.5195 84.666C91.7305 84.5547 91.9619 84.4697 92.2139 84.4111C92.4717 84.3467 92.7471 84.3145 93.04 84.3145C93.6436 84.3145 94.1768 84.4316 94.6396 84.666C95.1025 84.8945 95.4922 85.2197 95.8086 85.6416C96.125 86.0693 96.3623 86.582 96.5205 87.1797C96.6846 87.7715 96.7666 88.4277 96.7666 89.1484V89.333C96.7666 90.0244 96.6846 90.666 96.5205 91.2578C96.3623 91.8496 96.1279 92.3594 95.8174 92.7871C95.501 93.2207 95.1113 93.5605 94.6484 93.8066C94.1855 94.0527 93.6553 94.1758 93.0576 94.1758C92.7412 94.1758 92.4482 94.1406 92.1787 94.0703C91.915 94.0059 91.6689 93.9092 91.4404 93.7803C91.3057 93.6982 91.1768 93.6074 91.0537 93.5078C90.9307 93.4082 90.8135 93.2969 90.7021 93.1738V97.6562H88.2588ZM94.3232 89.1484C94.3232 88.75 94.2852 88.3779 94.209 88.0322C94.1387 87.6807 94.0273 87.376 93.875 87.1182C93.7168 86.8662 93.5146 86.667 93.2686 86.5205C93.0283 86.374 92.7354 86.3008 92.3896 86.3008C92.1904 86.3008 92.0088 86.3213 91.8447 86.3623C91.6807 86.3975 91.5312 86.4502 91.3965 86.5205C91.2441 86.6025 91.1094 86.7051 90.9922 86.8281C90.8809 86.9512 90.7842 87.0947 90.7021 87.2588V91.2314C90.7783 91.3838 90.8691 91.5215 90.9746 91.6445C91.0859 91.7676 91.2119 91.873 91.3525 91.9609C91.4873 92.043 91.6426 92.1074 91.8184 92.1543C91.9941 92.1953 92.1904 92.2158 92.4072 92.2158C92.7529 92.2158 93.0459 92.1396 93.2861 91.9873C93.5322 91.835 93.7314 91.627 93.8838 91.3633C94.0361 91.0996 94.1475 90.7949 94.2178 90.4492C94.2881 90.0977 94.3232 89.7256 94.3232 89.333V89.1484ZM103.517 82.1611V84.4902H107.067V86.292H103.517V90.3789C103.517 90.7246 103.555 91.0146 103.631 91.249C103.713 91.4775 103.827 91.6592 103.974 91.7939C104.12 91.9346 104.296 92.0342 104.501 92.0928C104.712 92.1514 104.946 92.1807 105.204 92.1807C105.392 92.1807 105.582 92.1719 105.775 92.1543C105.975 92.1367 106.165 92.1133 106.347 92.084C106.522 92.0605 106.687 92.0342 106.839 92.0049C106.997 91.9756 107.132 91.9463 107.243 91.917L107.48 93.5957C107.311 93.6953 107.111 93.7832 106.883 93.8594C106.654 93.9297 106.411 93.9883 106.153 94.0352C105.896 94.082 105.626 94.1172 105.345 94.1406C105.069 94.1699 104.797 94.1846 104.527 94.1846C104.006 94.1846 103.531 94.1172 103.104 93.9824C102.682 93.8418 102.321 93.625 102.022 93.332C101.718 93.0449 101.483 92.6787 101.319 92.2334C101.155 91.7822 101.073 91.2432 101.073 90.6162V86.292H98.9023V84.4902H101.073V82.1611H103.517Z" fill="#02F4BF"/>
</svg>
