<svg width="88" height="100" viewBox="0 0 88 100" fill="none" xmlns="http://www.w3.org/2000/svg">
<path d="M44 53.534L57.86 49.766L59.729 29.432H35.078L34.466 22.67H60.344L61.025 16.037H26.975L28.883 36.071H52.343L51.56 44.669L44 46.67L36.44 44.669L35.966 39.137H29.156L30.143 49.769L44 53.534ZM17 5H71L66.131 59L44 65L21.869 59L17 5Z" fill="#02F4BF"/>
<path d="M31.5977 94H29.1543V88.4541H25.5332V94H23.0811V81.2031H25.5332V86.4502H29.1543V81.2031H31.5977V94ZM43.3662 83.2158H39.4199V94H36.9414V83.2158H33.0479V81.2031H43.3662V83.2158ZM47.8047 81.2031L49.0176 86.0107L50.3975 81.2031H53.4648V94H51.1973V90.2119L51.3027 84.2266L49.624 89.7812H48.4023L46.8994 84.4639L47.0049 90.2119V94H44.7373V81.2031H47.8047ZM58.2285 92.0049H64.2227V94H55.75V81.2031H58.2285V92.0049Z" fill="#02F4BF"/>
</svg>
