<svg width="88" height="100" viewBox="0 0 88 100" fill="none" xmlns="http://www.w3.org/2000/svg">
<g clip-path="url(#clip0_3240_3089)">
<path d="M81.5 0.0458984L62.7493 32.523L43.9986 65.0001L6.5 0.0458984H21.5L43.9986 39.0172L66.5 0.0458984H81.5Z" fill="#02F4BF"/>
<path d="M63.1935 0.0458984L43.9986 33.2866L24.8066 0.0458984H35.3396L43.9986 15.0459L52.6605 0.0458984H63.1935Z" fill="#02F4BF"/>
</g>
<path d="M15.6396 94L11.7725 81.2031H14.4971L16.668 89.5615L16.8877 90.4229L17.125 89.5527L19.3047 81.2031H22.0293L18.1533 94H15.6396ZM29.7549 94L29.6143 92.6641C29.292 93.1387 28.9023 93.5107 28.4453 93.7803C27.9941 94.0498 27.499 94.1846 26.96 94.1846C26.4678 94.1846 26.0166 94.1084 25.6064 93.9561C25.1963 93.8037 24.8447 93.5605 24.5518 93.2266C24.2588 92.8984 24.0303 92.4795 23.8662 91.9697C23.708 91.4541 23.6289 90.8359 23.6289 90.1152V84.4902H26.0723V90.1328C26.0723 90.5195 26.0986 90.8447 26.1514 91.1084C26.21 91.3721 26.3008 91.583 26.4238 91.7412C26.5469 91.9053 26.708 92.0225 26.9072 92.0928C27.1064 92.1631 27.3496 92.1982 27.6367 92.1982C27.8945 92.1982 28.126 92.1719 28.3311 92.1191C28.542 92.0664 28.7266 91.9902 28.8848 91.8906C29.0195 91.8027 29.1396 91.6973 29.2451 91.5742C29.3506 91.4512 29.4414 91.3135 29.5176 91.1611V84.4902H31.9697V94H29.7549ZM38.9746 94.1758C38.2422 94.1758 37.5771 94.0557 36.9795 93.8154C36.3818 93.5752 35.8691 93.2471 35.4414 92.8311C35.0137 92.4209 34.6826 91.9375 34.4482 91.3809C34.2197 90.8184 34.1055 90.2178 34.1055 89.5791V89.2275C34.1055 88.501 34.2197 87.8389 34.4482 87.2412C34.6768 86.6377 34.9961 86.1191 35.4062 85.6855C35.8164 85.252 36.3027 84.915 36.8652 84.6748C37.4277 84.4346 38.04 84.3145 38.7021 84.3145C39.3877 84.3145 39.9971 84.4287 40.5303 84.6572C41.0693 84.8799 41.5264 85.1963 41.9014 85.6064C42.2705 86.0166 42.5518 86.5117 42.7451 87.0918C42.9385 87.666 43.0352 88.3018 43.0352 88.999V90.0361H36.584V90.0625C36.666 90.4434 36.7715 90.751 36.9004 90.9854C37.0293 91.2139 37.2021 91.4219 37.4189 91.6094C37.6416 91.8027 37.8965 91.9521 38.1836 92.0576C38.4707 92.1631 38.7842 92.2158 39.124 92.2158C39.6045 92.2158 40.0703 92.125 40.5215 91.9434C40.9727 91.7617 41.3389 91.4893 41.6201 91.126L42.8418 92.4443C42.5312 92.8838 42.0391 93.2822 41.3652 93.6396C40.6914 93.9971 39.8945 94.1758 38.9746 94.1758ZM38.6846 86.292C38.4092 86.292 38.1572 86.3418 37.9287 86.4414C37.7002 86.5352 37.501 86.6729 37.3311 86.8545C37.1553 87.0361 37.0088 87.2529 36.8916 87.5049C36.7744 87.7568 36.6865 88.0381 36.6279 88.3486H40.6357V88.1553C40.6357 87.8975 40.5889 87.6543 40.4951 87.4258C40.4014 87.1973 40.2725 86.998 40.1084 86.8281C39.9443 86.6641 39.7422 86.5352 39.502 86.4414C39.2676 86.3418 38.9951 86.292 38.6846 86.292ZM47.6406 92.585C47.6406 92.1338 47.79 91.7529 48.0889 91.4424C48.3877 91.126 48.8037 90.9678 49.3369 90.9678C49.8643 90.9678 50.2773 91.123 50.5762 91.4336C50.8809 91.7441 51.0332 92.1279 51.0332 92.585C51.0332 93.042 50.8779 93.4229 50.5674 93.7275C50.2627 94.0264 49.8525 94.1758 49.3369 94.1758C48.8154 94.1758 48.4023 94.0234 48.0977 93.7188C47.793 93.4141 47.6406 93.0361 47.6406 92.585ZM61.9316 81.2031H64.4014L64.4102 90.0713C64.4043 90.6807 64.2871 91.2373 64.0586 91.7412C63.8359 92.2393 63.5283 92.6699 63.1357 93.0332C62.7432 93.3965 62.2803 93.6777 61.7471 93.877C61.2197 94.0762 60.6514 94.1758 60.042 94.1758C59.3975 94.1758 58.8115 94.0938 58.2842 93.9297C57.7568 93.7656 57.3057 93.5195 56.9307 93.1914C56.5498 92.8691 56.2539 92.4619 56.043 91.9697C55.832 91.4775 55.7236 90.9004 55.7178 90.2383H58.1963C58.1963 90.543 58.2256 90.8096 58.2842 91.0381C58.3428 91.2666 58.4307 91.46 58.5479 91.6182C58.7002 91.8115 58.8994 91.9551 59.1455 92.0488C59.3916 92.1426 59.6904 92.1895 60.042 92.1895C60.3232 92.1895 60.5811 92.1367 60.8154 92.0312C61.0498 91.9199 61.249 91.7705 61.4131 91.583C61.5771 91.3955 61.7031 91.1729 61.791 90.915C61.8848 90.6514 61.9316 90.3701 61.9316 90.0713V81.2031ZM72.9268 91.3896C72.9268 91.2432 72.8916 91.1143 72.8213 91.0029C72.7568 90.8916 72.6396 90.7861 72.4697 90.6865C72.2939 90.5928 72.0625 90.5049 71.7754 90.4229C71.4883 90.3408 71.125 90.2588 70.6855 90.1768C70.1289 90.0654 69.6191 89.9277 69.1562 89.7637C68.6992 89.5938 68.3066 89.3887 67.9785 89.1484C67.6504 88.9141 67.3926 88.6416 67.2051 88.3311C67.0234 88.0205 66.9326 87.6631 66.9326 87.2588C66.9326 86.8662 67.0264 86.4912 67.2139 86.1338C67.4014 85.7764 67.6709 85.4629 68.0225 85.1934C68.374 84.9238 68.8018 84.71 69.3057 84.5518C69.8096 84.3936 70.3779 84.3145 71.0107 84.3145C71.6729 84.3145 72.2676 84.3936 72.7949 84.5518C73.3223 84.7041 73.7705 84.915 74.1396 85.1846C74.5029 85.46 74.7812 85.7852 74.9746 86.1602C75.168 86.5352 75.2646 86.9424 75.2646 87.3818H72.8213C72.8213 87.2236 72.7949 87.0771 72.7422 86.9424C72.6895 86.8018 72.6104 86.6758 72.5049 86.5645C72.3584 86.418 72.1592 86.3008 71.9072 86.2129C71.6611 86.125 71.3623 86.0811 71.0107 86.0811C70.7119 86.0811 70.4512 86.1104 70.2285 86.1689C70.0059 86.2275 69.8242 86.3096 69.6836 86.415C69.5547 86.5088 69.4551 86.6201 69.3848 86.749C69.3203 86.8721 69.2881 87.0039 69.2881 87.1445C69.2881 87.2852 69.3174 87.417 69.376 87.54C69.4346 87.6572 69.54 87.7627 69.6924 87.8564C69.8389 87.9561 70.041 88.0469 70.2988 88.1289C70.5566 88.2051 70.8848 88.2725 71.2832 88.3311C71.8574 88.4248 72.3906 88.5449 72.8828 88.6914C73.375 88.8379 73.7998 89.0254 74.1572 89.2539C74.5146 89.4883 74.793 89.7725 74.9922 90.1064C75.1973 90.4346 75.2998 90.8271 75.2998 91.2842C75.2998 91.7061 75.1973 92.0957 74.9922 92.4531C74.793 92.8047 74.5088 93.1094 74.1396 93.3672C73.7646 93.625 73.3135 93.8271 72.7861 93.9736C72.2588 94.1143 71.6699 94.1846 71.0195 94.1846C70.3047 94.1846 69.6719 94.0908 69.1211 93.9033C68.5762 93.7158 68.1191 93.4697 67.75 93.165C67.3809 92.8662 67.0996 92.5264 66.9062 92.1455C66.7188 91.7588 66.625 91.3721 66.625 90.9854H68.9541C68.9717 91.2432 69.042 91.4658 69.165 91.6533C69.2881 91.835 69.4463 91.9814 69.6396 92.0928C69.833 92.21 70.0527 92.2949 70.2988 92.3477C70.5508 92.4004 70.8086 92.4268 71.0723 92.4268C71.3887 92.4268 71.6641 92.4004 71.8984 92.3477C72.1387 92.2891 72.335 92.2129 72.4873 92.1191C72.6338 92.0254 72.7422 91.917 72.8125 91.7939C72.8887 91.6709 72.9268 91.5361 72.9268 91.3896Z" fill="#02F4BF"/>
<defs>
<clipPath id="clip0_3240_3089">
<rect width="75" height="64.9542" fill="white" transform="translate(6.5 0.0458984)"/>
</clipPath>
</defs>
</svg>
