<svg width="88" height="100" viewBox="0 0 88 100" fill="none" xmlns="http://www.w3.org/2000/svg">
<path d="M72.8783 32.3573L46.6466 6.12561C45.1458 4.6248 42.6662 4.6248 41.1654 6.12561L35.7494 11.5416L42.6662 18.4584C44.2975 17.9364 46.1246 18.2626 47.3644 19.5677C48.6695 20.8728 48.9958 22.6998 48.4737 24.3312L55.1295 30.987C56.7608 30.4649 58.5879 30.7912 59.893 32.0963C61.7201 33.8581 61.7201 36.7945 59.893 38.6215C58.0659 40.4486 55.1948 40.4486 53.3677 38.6215C51.9974 37.2512 51.6711 35.2936 52.3889 33.5971L46.1899 27.398V43.7113C46.6466 43.907 47.0382 44.2333 47.4297 44.5595C49.2568 46.3214 49.2568 49.2578 47.4297 51.0848C45.6026 52.8467 42.7315 52.8467 40.9044 51.0848C39.0773 49.2578 39.0773 46.3866 40.9044 44.5595C41.3612 44.1028 41.8832 43.7765 42.4052 43.5808V27.0718C41.8832 26.876 41.3612 26.4845 40.9044 26.093C39.5341 24.7227 39.2078 22.7651 39.9256 21.0685L33.0741 14.2822L15.1295 32.2268C13.6287 33.7276 13.6287 36.2072 15.1295 37.708L41.2959 63.8744C42.7967 65.3752 45.2763 65.3752 46.7772 63.8744L72.813 37.8385C74.3791 36.2724 74.3791 33.8581 72.8783 32.3573Z" fill="#02F4BF"/>
<path d="M37.4492 92.5059C37.291 92.6992 37.0742 92.8955 36.7988 93.0947C36.5234 93.2939 36.1982 93.4727 35.8232 93.6309C35.4424 93.7949 35.0176 93.9268 34.5488 94.0264C34.0801 94.126 33.5762 94.1758 33.0371 94.1758C32.5684 94.1758 32.126 94.1201 31.71 94.0088C31.2998 93.9033 30.9219 93.748 30.5762 93.543C30.2363 93.332 29.9258 93.0742 29.6445 92.7695C29.3691 92.4648 29.1348 92.1162 28.9414 91.7236C28.7188 91.29 28.5488 90.8008 28.4316 90.2559C28.3203 89.7109 28.2646 89.1191 28.2646 88.4805V86.7402C28.2646 86.1309 28.3203 85.5654 28.4316 85.0439C28.543 84.5166 28.7012 84.0391 28.9062 83.6113C29.0996 83.2305 29.3223 82.8877 29.5742 82.583C29.832 82.2783 30.1133 82.0146 30.418 81.792C30.7754 81.54 31.165 81.3496 31.5869 81.2207C32.0088 81.0918 32.4541 81.0273 32.9229 81.0273C33.6436 81.0273 34.2705 81.1182 34.8037 81.2998C35.3428 81.4814 35.7969 81.7422 36.166 82.082C36.5352 82.4277 36.8223 82.8467 37.0273 83.3389C37.2383 83.8311 37.376 84.3848 37.4404 85H35.0322C34.9912 84.6895 34.9268 84.4141 34.8389 84.1738C34.7568 83.9336 34.6426 83.7314 34.4961 83.5674C34.332 83.3857 34.124 83.251 33.8721 83.1631C33.626 83.0693 33.3301 83.0225 32.9844 83.0225C32.7969 83.0225 32.6152 83.0518 32.4395 83.1104C32.2637 83.1689 32.0996 83.2539 31.9473 83.3652C31.748 83.5176 31.5664 83.7168 31.4023 83.9629C31.2441 84.209 31.1123 84.499 31.0068 84.833C30.9248 85.0908 30.8604 85.3779 30.8135 85.6943C30.7725 86.0107 30.752 86.3535 30.752 86.7227V88.4805C30.752 88.9434 30.7812 89.3652 30.8398 89.7461C30.9043 90.127 30.9922 90.4639 31.1035 90.7568C31.1738 90.9268 31.2529 91.085 31.3408 91.2314C31.4346 91.3721 31.5371 91.498 31.6484 91.6094C31.8359 91.7969 32.0527 91.9404 32.2988 92.04C32.5508 92.1338 32.835 92.1836 33.1514 92.1895C33.3447 92.1895 33.5352 92.1748 33.7227 92.1455C33.9102 92.1162 34.0859 92.0752 34.25 92.0225C34.4141 91.9697 34.5576 91.9111 34.6807 91.8467C34.8096 91.7764 34.9062 91.7031 34.9707 91.627L34.9795 89.3066H32.8613V87.4609H37.4404L37.4492 92.5059ZM40.0068 81.2031H47.4072V83.1982H44.9111V92.0137H47.4072V94H40.0068V92.0137H42.4414V83.1982H40.0068V81.2031ZM59.6768 83.2158H55.7305V94H53.252V83.2158H49.3584V81.2031H59.6768V83.2158Z" fill="#02F4BF"/>
</svg>
