<svg width="88" height="100" viewBox="0 0 88 100" fill="none" xmlns="http://www.w3.org/2000/svg">
<path d="M17.5115 5.01057C17.5115 5.24317 17.501 5.40176 17.5115 5.56035C17.9136 9.95854 18.3157 14.3567 18.7072 18.7655C19.2575 25.0033 19.7971 31.2411 20.3474 37.4684C20.9717 44.4674 21.6066 51.4559 22.2097 58.4549C22.2521 58.9624 22.4319 59.1844 22.9081 59.3113C29.6803 61.1721 36.4313 63.0434 43.2034 64.8936C43.6584 65.0205 44.2087 65.0416 44.6637 64.9148C51.457 63.054 58.2397 61.1615 65.0331 59.2902C65.5516 59.1421 65.7315 58.9095 65.7738 58.3809C65.9854 55.7378 66.2394 53.0841 66.4722 50.4409C66.8637 46.0639 67.2446 41.6868 67.6361 37.3098C68.0911 32.1715 68.5567 27.0438 69.0117 21.9055C69.3503 18.0783 69.7101 14.2616 70.0487 10.4343C70.2074 8.63696 70.345 6.83963 70.4931 5H17.5115V5.01057ZM60.2714 20.2774C59.9222 24.1469 59.573 28.0271 59.2238 31.8966C58.8217 36.3477 58.4196 40.7987 58.0175 45.2392C57.9011 46.5185 57.7318 47.7978 57.7001 49.0876C57.6789 49.7748 57.3826 49.9546 56.8112 50.1132C52.7268 51.2127 48.6529 52.344 44.579 53.4647C44.3991 53.5175 44.2298 53.581 44.05 53.6338C43.9865 53.6021 43.923 53.581 43.8489 53.5492C39.4893 52.3651 35.1297 51.1704 30.7702 49.9651C30.5903 49.9123 30.3575 49.6268 30.3363 49.4259C30.0295 46.1273 29.7543 42.8287 29.4581 39.4666H36.1138C36.2302 40.7882 36.3572 42.1309 36.463 43.4842C36.5582 44.7317 36.5477 44.7317 37.7222 45.0489C39.8279 45.6092 41.9442 46.159 44.05 46.7088L44.0288 46.6559C46.3356 46.0427 48.6423 45.4401 50.9491 44.7846C51.1607 44.7212 51.4041 44.3828 51.4358 44.1502C51.5734 43.1353 51.6475 42.1097 51.7321 41.0948C51.8697 39.456 52.0072 37.8173 52.1554 36.1045H44.0288L44.05 36.0622C43.997 36.0622 43.9336 36.0622 43.8806 36.0622H29.1512C28.9501 33.8737 28.7597 31.7063 28.5586 29.4755H43.8912C43.9441 29.4755 44.0076 29.4755 44.0605 29.4755L44.0394 29.4332H52.7479C52.949 27.1601 53.15 24.9399 53.3511 22.6773H44.0288L44.05 22.635C43.997 22.635 43.9336 22.635 43.8806 22.635C38.664 22.6456 33.4473 22.6456 28.2306 22.6562C28.1565 22.6562 28.0825 22.6245 27.9449 22.5822C27.7544 20.4254 27.5534 18.2686 27.3629 16.0483H43.8806C43.9336 16.0483 43.997 16.0483 44.05 16.0483L44.0288 16.006H60.6206C60.5042 17.4862 60.3878 18.8818 60.2714 20.2774Z" fill="#02F4BF"/>
<path d="M37.5371 89.9922C37.4961 90.6367 37.3555 91.2168 37.1152 91.7324C36.8809 92.248 36.5645 92.6875 36.166 93.0508C35.7676 93.4141 35.293 93.6953 34.7422 93.8945C34.1914 94.0879 33.582 94.1846 32.9141 94.1846C32.3867 94.1846 31.8975 94.1172 31.4463 93.9824C31.001 93.8418 30.5996 93.6426 30.2422 93.3848C29.9141 93.1445 29.6211 92.8545 29.3633 92.5146C29.1113 92.1748 28.8975 91.7998 28.7217 91.3896C28.5518 90.9795 28.4199 90.5283 28.3262 90.0361C28.2383 89.5439 28.1943 89.0225 28.1943 88.4717V86.749C28.1943 86.2334 28.2354 85.7441 28.3174 85.2812C28.3994 84.8125 28.5225 84.3789 28.6865 83.9805C28.874 83.4941 29.1201 83.0605 29.4248 82.6797C29.7295 82.2988 30.0752 81.9766 30.4619 81.7129C30.8076 81.4902 31.1855 81.3203 31.5957 81.2031C32.0117 81.0801 32.457 81.0186 32.9316 81.0186C33.6348 81.0186 34.2588 81.1182 34.8037 81.3174C35.3545 81.5166 35.8232 81.8008 36.21 82.1699C36.5967 82.5391 36.9014 82.9902 37.124 83.5234C37.3467 84.0566 37.4873 84.6572 37.5459 85.3252H35.085C35.0615 84.9443 35.0029 84.6104 34.9092 84.3232C34.8213 84.0361 34.6924 83.7959 34.5225 83.6025C34.3467 83.415 34.127 83.2744 33.8633 83.1807C33.6055 83.0811 33.2949 83.0312 32.9316 83.0312C32.7383 83.0312 32.5566 83.0518 32.3867 83.0928C32.2227 83.1338 32.0703 83.1953 31.9297 83.2773C31.6895 83.418 31.4844 83.6201 31.3145 83.8838C31.1504 84.1416 31.0186 84.4434 30.9189 84.7891C30.8428 85.0586 30.7871 85.3574 30.752 85.6855C30.7168 86.0078 30.6992 86.3564 30.6992 86.7314V88.4717C30.6992 88.9814 30.7256 89.4385 30.7783 89.8428C30.8369 90.2412 30.9248 90.5898 31.042 90.8887C31.124 91.0938 31.2207 91.2754 31.332 91.4336C31.4492 91.5918 31.5811 91.7236 31.7275 91.8291C31.8857 91.9463 32.0615 92.0342 32.2549 92.0928C32.4541 92.1455 32.6738 92.1719 32.9141 92.1719C33.2363 92.1719 33.5264 92.1309 33.7842 92.0488C34.042 91.9668 34.2617 91.8379 34.4434 91.6621C34.625 91.4863 34.7686 91.2607 34.874 90.9854C34.9795 90.71 35.0439 90.3789 35.0674 89.9922H37.5371ZM46.1064 90.6602C46.1064 90.4316 46.0654 90.2178 45.9834 90.0186C45.9072 89.8193 45.7754 89.6318 45.5879 89.4561C45.3945 89.2861 45.1426 89.1309 44.832 88.9902C44.5273 88.8438 44.1465 88.709 43.6895 88.5859C42.9805 88.3926 42.3564 88.1582 41.8174 87.8828C41.2842 87.6074 40.8477 87.3057 40.5078 86.9775C40.168 86.6494 39.9102 86.2861 39.7344 85.8877C39.5645 85.4893 39.4795 85.0557 39.4795 84.5869C39.4795 84.0479 39.5938 83.5586 39.8223 83.1191C40.0508 82.6797 40.3672 82.3047 40.7715 81.9941C41.1758 81.6836 41.6533 81.4463 42.2041 81.2822C42.7549 81.1123 43.3525 81.0273 43.9971 81.0273C44.665 81.0273 45.2744 81.124 45.8252 81.3174C46.3818 81.5107 46.8594 81.7803 47.2578 82.126C47.6562 82.4775 47.9668 82.8936 48.1895 83.374C48.4121 83.8545 48.5234 84.3818 48.5234 84.9561H46.1152C46.1035 84.6689 46.0508 84.4053 45.957 84.165C45.8691 83.9248 45.7373 83.7168 45.5615 83.541C45.3799 83.3711 45.1543 83.2393 44.8848 83.1455C44.6211 83.0459 44.3105 82.9961 43.9531 82.9961C43.625 82.9961 43.332 83.0371 43.0742 83.1191C42.8223 83.1953 42.6084 83.3037 42.4326 83.4443C42.2568 83.5908 42.1221 83.7637 42.0283 83.9629C41.9404 84.1562 41.8965 84.3672 41.8965 84.5957C41.8965 84.8359 41.9551 85.0527 42.0723 85.2461C42.1953 85.4395 42.3711 85.6123 42.5996 85.7646C42.8281 85.9229 43.1035 86.0664 43.4258 86.1953C43.7539 86.3242 44.123 86.4443 44.5332 86.5557C44.9727 86.6787 45.3916 86.8281 45.79 87.0039C46.1885 87.1797 46.5547 87.3818 46.8887 87.6104C47.3926 87.9854 47.7939 88.4219 48.0928 88.9199C48.3916 89.418 48.541 89.9922 48.541 90.6426C48.541 91.2051 48.4268 91.7061 48.1982 92.1455C47.9756 92.5791 47.665 92.9453 47.2666 93.2441C46.8682 93.5488 46.3936 93.7803 45.8428 93.9385C45.292 94.0908 44.6914 94.167 44.041 94.167C43.4023 94.167 42.7695 94.0732 42.1426 93.8857C41.5215 93.6924 40.9795 93.4111 40.5166 93.042C40.0771 92.6787 39.7285 92.251 39.4707 91.7588C39.2188 91.2666 39.0928 90.6895 39.0928 90.0273H41.5186C41.5303 90.4141 41.5977 90.7451 41.7207 91.0205C41.8438 91.2959 42.0166 91.5215 42.2393 91.6973C42.4561 91.873 42.7168 92.002 43.0215 92.084C43.332 92.166 43.6719 92.207 44.041 92.207C44.3691 92.207 44.6592 92.1689 44.9111 92.0928C45.1689 92.0166 45.3857 91.9111 45.5615 91.7764C45.7373 91.6416 45.8721 91.4805 45.9658 91.293C46.0596 91.0996 46.1064 90.8887 46.1064 90.6602ZM56.917 90.6602C56.917 90.4316 56.876 90.2178 56.7939 90.0186C56.7178 89.8193 56.5859 89.6318 56.3984 89.4561C56.2051 89.2861 55.9531 89.1309 55.6426 88.9902C55.3379 88.8438 54.957 88.709 54.5 88.5859C53.791 88.3926 53.167 88.1582 52.6279 87.8828C52.0947 87.6074 51.6582 87.3057 51.3184 86.9775C50.9785 86.6494 50.7207 86.2861 50.5449 85.8877C50.375 85.4893 50.29 85.0557 50.29 84.5869C50.29 84.0479 50.4043 83.5586 50.6328 83.1191C50.8613 82.6797 51.1777 82.3047 51.582 81.9941C51.9863 81.6836 52.4639 81.4463 53.0146 81.2822C53.5654 81.1123 54.1631 81.0273 54.8076 81.0273C55.4756 81.0273 56.085 81.124 56.6357 81.3174C57.1924 81.5107 57.6699 81.7803 58.0684 82.126C58.4668 82.4775 58.7773 82.8936 59 83.374C59.2227 83.8545 59.334 84.3818 59.334 84.9561H56.9258C56.9141 84.6689 56.8613 84.4053 56.7676 84.165C56.6797 83.9248 56.5479 83.7168 56.3721 83.541C56.1904 83.3711 55.9648 83.2393 55.6953 83.1455C55.4316 83.0459 55.1211 82.9961 54.7637 82.9961C54.4355 82.9961 54.1426 83.0371 53.8848 83.1191C53.6328 83.1953 53.4189 83.3037 53.2432 83.4443C53.0674 83.5908 52.9326 83.7637 52.8389 83.9629C52.751 84.1562 52.707 84.3672 52.707 84.5957C52.707 84.8359 52.7656 85.0527 52.8828 85.2461C53.0059 85.4395 53.1816 85.6123 53.4102 85.7646C53.6387 85.9229 53.9141 86.0664 54.2363 86.1953C54.5645 86.3242 54.9336 86.4443 55.3438 86.5557C55.7832 86.6787 56.2021 86.8281 56.6006 87.0039C56.999 87.1797 57.3652 87.3818 57.6992 87.6104C58.2031 87.9854 58.6045 88.4219 58.9033 88.9199C59.2021 89.418 59.3516 89.9922 59.3516 90.6426C59.3516 91.2051 59.2373 91.7061 59.0088 92.1455C58.7861 92.5791 58.4756 92.9453 58.0771 93.2441C57.6787 93.5488 57.2041 93.7803 56.6533 93.9385C56.1025 94.0908 55.502 94.167 54.8516 94.167C54.2129 94.167 53.5801 94.0732 52.9531 93.8857C52.332 93.6924 51.79 93.4111 51.3271 93.042C50.8877 92.6787 50.5391 92.251 50.2812 91.7588C50.0293 91.2666 49.9033 90.6895 49.9033 90.0273H52.3291C52.3408 90.4141 52.4082 90.7451 52.5312 91.0205C52.6543 91.2959 52.8271 91.5215 53.0498 91.6973C53.2666 91.873 53.5273 92.002 53.832 92.084C54.1426 92.166 54.4824 92.207 54.8516 92.207C55.1797 92.207 55.4697 92.1689 55.7217 92.0928C55.9795 92.0166 56.1963 91.9111 56.3721 91.7764C56.5479 91.6416 56.6826 91.4805 56.7764 91.293C56.8701 91.0996 56.917 90.8887 56.917 90.6602Z" fill="#02F4BF"/>
</svg>
