<svg width="129" height="13" viewBox="0 0 129 13" fill="none" xmlns="http://www.w3.org/2000/svg">
<path d="M2.50195 10V4.70898H0.802734V3.66016H2.50195V3.27344C2.50195 2.85937 2.56445 2.49609 2.68945 2.18359C2.81836 1.86719 3 1.60156 3.23438 1.38672C3.46875 1.17578 3.75 1.01563 4.07812 0.90625C4.41016 0.796875 4.78125 0.742188 5.19141 0.742188C5.33594 0.742188 5.47656 0.75 5.61328 0.765625C5.75391 0.777344 5.89062 0.792969 6.02344 0.8125C6.13281 0.828125 6.24414 0.847656 6.35742 0.871094C6.4707 0.890625 6.58594 0.912109 6.70312 0.935547L6.5918 2.05469C6.43555 2.01172 6.25781 1.97461 6.05859 1.94336C5.86328 1.91211 5.64062 1.89648 5.39062 1.89648C5.12891 1.89648 4.90234 1.92773 4.71094 1.99023C4.52344 2.05273 4.36914 2.14453 4.24805 2.26562C4.13477 2.37891 4.04883 2.51953 3.99023 2.6875C3.93555 2.85547 3.9082 3.05078 3.9082 3.27344V3.66016H6.25781V4.70898H3.9082V10H2.50195ZM12.498 3.54297C12.7246 3.54297 12.9434 3.55859 13.1543 3.58984C13.3691 3.62109 13.5371 3.6582 13.6582 3.70117L13.459 5.08398C13.2441 5.03711 13.0312 5.00195 12.8203 4.97852C12.6133 4.95508 12.4062 4.94336 12.1992 4.94336C11.9648 4.94336 11.7539 4.9668 11.5664 5.01367C11.3789 5.06055 11.2129 5.13281 11.0684 5.23047C10.9121 5.32422 10.7793 5.44336 10.6699 5.58789C10.5605 5.73242 10.4688 5.89844 10.3945 6.08594V10H8.99414V3.66016H10.3066L10.3652 4.53906L10.3711 4.68555C10.6289 4.33008 10.9375 4.05078 11.2969 3.84766C11.6602 3.64453 12.0605 3.54297 12.498 3.54297ZM15.0645 6.77148C15.0645 6.31055 15.1309 5.88477 15.2637 5.49414C15.3965 5.09961 15.5898 4.75781 15.8438 4.46875C16.0938 4.17969 16.4004 3.95312 16.7637 3.78906C17.127 3.625 17.541 3.54297 18.0059 3.54297C18.4707 3.54297 18.8848 3.625 19.248 3.78906C19.6152 3.95312 19.9258 4.17969 20.1797 4.46875C20.4297 4.75781 20.6211 5.09961 20.7539 5.49414C20.8867 5.88477 20.9531 6.31055 20.9531 6.77148V6.89453C20.9531 7.35938 20.8867 7.78711 20.7539 8.17773C20.6211 8.56836 20.4297 8.9082 20.1797 9.19727C19.9297 9.48633 19.6211 9.71289 19.2539 9.87695C18.8906 10.041 18.4785 10.123 18.0176 10.123C17.5527 10.123 17.1367 10.041 16.7695 9.87695C16.4023 9.71289 16.0938 9.48633 15.8438 9.19727C15.5898 8.9082 15.3965 8.56836 15.2637 8.17773C15.1309 7.78711 15.0645 7.35938 15.0645 6.89453V6.77148ZM16.4648 6.89453C16.4648 7.17969 16.4941 7.44922 16.5527 7.70312C16.6152 7.95703 16.7109 8.17969 16.8398 8.37109C16.9648 8.5625 17.125 8.71484 17.3203 8.82812C17.5156 8.9375 17.748 8.99219 18.0176 8.99219C18.2793 8.99219 18.5078 8.9375 18.7031 8.82812C18.8984 8.71484 19.0586 8.5625 19.1836 8.37109C19.3086 8.17969 19.4004 7.95703 19.459 7.70312C19.5215 7.44922 19.5527 7.17969 19.5527 6.89453V6.77148C19.5527 6.49414 19.5215 6.22852 19.459 5.97461C19.3965 5.7207 19.3047 5.49805 19.1836 5.30664C19.0547 5.11523 18.8926 4.96289 18.6973 4.84961C18.5059 4.73633 18.2754 4.67969 18.0059 4.67969C17.7402 4.67969 17.5098 4.73633 17.3145 4.84961C17.123 4.96289 16.9648 5.11523 16.8398 5.30664C16.7109 5.49805 16.6152 5.7207 16.5527 5.97461C16.4941 6.22852 16.4648 6.49414 16.4648 6.77148V6.89453ZM22.5293 10V3.66016H23.7949L23.8828 4.5625C23.9688 4.44141 24.0625 4.33008 24.1641 4.22852C24.2695 4.12305 24.3809 4.0293 24.498 3.94727C24.6855 3.81836 24.8906 3.71875 25.1133 3.64844C25.3359 3.57812 25.5703 3.54297 25.8164 3.54297C26.1406 3.54297 26.4375 3.58984 26.707 3.68359C26.9766 3.77734 27.207 3.92578 27.3984 4.12891C27.5898 4.33203 27.7383 4.5918 27.8438 4.9082C27.9492 5.2207 28.002 5.59961 28.002 6.04492V10H26.6016V6.06836C26.6016 5.80664 26.5723 5.58789 26.5137 5.41211C26.4551 5.23633 26.3691 5.0957 26.2559 4.99023C26.1426 4.88477 26.0059 4.81055 25.8457 4.76758C25.6855 4.7207 25.502 4.69727 25.2949 4.69727C25.123 4.69727 24.9629 4.7207 24.8145 4.76758C24.666 4.81055 24.5312 4.87305 24.4102 4.95508C24.3164 5.01758 24.2285 5.09375 24.1465 5.18359C24.0645 5.27344 23.9922 5.37109 23.9297 5.47656V10H22.5293ZM32.5488 2.11328V3.66016H34.9336V4.70898H32.5488V7.73828C32.5488 7.97266 32.5762 8.16992 32.6309 8.33008C32.6895 8.48633 32.7695 8.60938 32.8711 8.69922C32.9727 8.79297 33.0938 8.85938 33.2344 8.89844C33.375 8.9375 33.5293 8.95703 33.6973 8.95703C33.8184 8.95703 33.9434 8.95117 34.0723 8.93945C34.2012 8.92773 34.3262 8.91211 34.4473 8.89258C34.5645 8.87695 34.6738 8.85938 34.7754 8.83984C34.8809 8.81641 34.9688 8.79688 35.0391 8.78125L35.1914 9.74805C35.0898 9.81055 34.9668 9.86523 34.8223 9.91211C34.6816 9.95508 34.5293 9.99219 34.3652 10.0234C34.2012 10.0547 34.0293 10.0781 33.8496 10.0938C33.6738 10.1133 33.498 10.123 33.3223 10.123C33.002 10.123 32.707 10.0801 32.4375 9.99414C32.1719 9.9043 31.9434 9.76562 31.752 9.57812C31.5605 9.39453 31.4102 9.1582 31.3008 8.86914C31.1953 8.58008 31.1426 8.23242 31.1426 7.82617V4.70898H29.6074V3.66016H31.1426V2.11328H32.5488ZM39.9023 10.1172C39.4336 10.1172 39.0039 10.0391 38.6133 9.88281C38.2266 9.72656 37.8945 9.50977 37.6172 9.23242C37.3398 8.95898 37.125 8.63672 36.9727 8.26562C36.8242 7.89062 36.75 7.48633 36.75 7.05273V6.8125C36.75 6.31641 36.8281 5.86719 36.9844 5.46484C37.1406 5.0625 37.3555 4.71875 37.6289 4.43359C37.9023 4.14844 38.2188 3.92969 38.5781 3.77734C38.9414 3.62109 39.3281 3.54297 39.7383 3.54297C40.1953 3.54297 40.5996 3.62109 40.9512 3.77734C41.3027 3.92969 41.5977 4.14258 41.8359 4.41602C42.0742 4.69336 42.2539 5.02344 42.375 5.40625C42.4961 5.78906 42.5566 6.20703 42.5566 6.66016V7.26367H38.1621V7.29297C38.2051 7.57031 38.2715 7.80273 38.3613 7.99023C38.4512 8.17773 38.5742 8.3457 38.7305 8.49414C38.8867 8.65039 39.0703 8.77148 39.2812 8.85742C39.4961 8.94336 39.7305 8.98633 39.9844 8.98633C40.332 8.98633 40.6562 8.91992 40.957 8.78711C41.2578 8.65039 41.5059 8.45703 41.7012 8.20703L42.4512 8.93359C42.2402 9.23828 41.916 9.51172 41.4785 9.75391C41.0449 9.99609 40.5195 10.1172 39.9023 10.1172ZM39.7324 4.67969C39.5332 4.67969 39.3477 4.7168 39.1758 4.79102C39.0078 4.86133 38.8574 4.96289 38.7246 5.0957C38.5918 5.23242 38.4805 5.39648 38.3906 5.58789C38.3008 5.7793 38.2344 5.99609 38.1914 6.23828H41.1738V6.14453C41.1738 5.96094 41.1406 5.7793 41.0742 5.59961C41.0078 5.41602 40.9141 5.25586 40.793 5.11914C40.6758 4.98633 40.5273 4.88086 40.3477 4.80273C40.1719 4.7207 39.9668 4.67969 39.7324 4.67969ZM44.1504 10V3.66016H45.416L45.5039 4.5625C45.5898 4.44141 45.6836 4.33008 45.7852 4.22852C45.8906 4.12305 46.002 4.0293 46.1191 3.94727C46.3066 3.81836 46.5117 3.71875 46.7344 3.64844C46.957 3.57812 47.1914 3.54297 47.4375 3.54297C47.7617 3.54297 48.0586 3.58984 48.3281 3.68359C48.5977 3.77734 48.8281 3.92578 49.0195 4.12891C49.2109 4.33203 49.3594 4.5918 49.4648 4.9082C49.5703 5.2207 49.623 5.59961 49.623 6.04492V10H48.2227V6.06836C48.2227 5.80664 48.1934 5.58789 48.1348 5.41211C48.0762 5.23633 47.9902 5.0957 47.877 4.99023C47.7637 4.88477 47.627 4.81055 47.4668 4.76758C47.3066 4.7207 47.123 4.69727 46.916 4.69727C46.7441 4.69727 46.584 4.7207 46.4355 4.76758C46.2871 4.81055 46.1523 4.87305 46.0312 4.95508C45.9375 5.01758 45.8496 5.09375 45.7676 5.18359C45.6855 5.27344 45.6133 5.37109 45.5508 5.47656V10H44.1504ZM51.1699 6.7832C51.1699 6.30273 51.2266 5.86523 51.3398 5.4707C51.457 5.07227 51.625 4.73047 51.8438 4.44531C52.0586 4.16016 52.3203 3.93945 52.6289 3.7832C52.9414 3.62305 53.293 3.54297 53.6836 3.54297C54.0352 3.54297 54.3418 3.60547 54.6035 3.73047C54.8691 3.85156 55.1035 4.02539 55.3066 4.25195V1H56.707V10H55.4355L55.3711 9.33789C55.168 9.58789 54.9258 9.78125 54.6445 9.91797C54.3633 10.0508 54.0391 10.1172 53.6719 10.1172C53.2852 10.1172 52.9375 10.0371 52.6289 9.87695C52.3203 9.71289 52.0586 9.48633 51.8438 9.19727C51.6289 8.91211 51.4629 8.57422 51.3457 8.18359C51.2285 7.78906 51.1699 7.36328 51.1699 6.90625V6.7832ZM52.5703 6.90625C52.5703 7.1875 52.5977 7.45312 52.6523 7.70312C52.707 7.95312 52.793 8.16992 52.9102 8.35352C53.0273 8.54492 53.1777 8.69531 53.3613 8.80469C53.5449 8.91016 53.7656 8.96289 54.0234 8.96289C54.3398 8.96289 54.6016 8.89453 54.8086 8.75781C55.0156 8.61719 55.1816 8.42773 55.3066 8.18945V5.46484C55.1816 5.23047 55.0156 5.04492 54.8086 4.9082C54.6055 4.76758 54.3477 4.69727 54.0352 4.69727C53.7734 4.69727 53.5488 4.75195 53.3613 4.86133C53.1777 4.9707 53.0293 5.12109 52.916 5.3125C52.7949 5.50391 52.707 5.72656 52.6523 5.98047C52.5977 6.23047 52.5703 6.49805 52.5703 6.7832V6.90625ZM65.584 6.7832C65.584 6.30273 65.6406 5.86523 65.7539 5.4707C65.8711 5.07227 66.0391 4.73047 66.2578 4.44531C66.4727 4.16016 66.7344 3.93945 67.043 3.7832C67.3555 3.62305 67.707 3.54297 68.0977 3.54297C68.4492 3.54297 68.7559 3.60547 69.0176 3.73047C69.2832 3.85156 69.5176 4.02539 69.7207 4.25195V1H71.1211V10H69.8496L69.7852 9.33789C69.582 9.58789 69.3398 9.78125 69.0586 9.91797C68.7773 10.0508 68.4531 10.1172 68.0859 10.1172C67.6992 10.1172 67.3516 10.0371 67.043 9.87695C66.7344 9.71289 66.4727 9.48633 66.2578 9.19727C66.043 8.91211 65.877 8.57422 65.7598 8.18359C65.6426 7.78906 65.584 7.36328 65.584 6.90625V6.7832ZM66.9844 6.90625C66.9844 7.1875 67.0117 7.45312 67.0664 7.70312C67.1211 7.95312 67.207 8.16992 67.3242 8.35352C67.4414 8.54492 67.5918 8.69531 67.7754 8.80469C67.959 8.91016 68.1797 8.96289 68.4375 8.96289C68.7539 8.96289 69.0156 8.89453 69.2227 8.75781C69.4297 8.61719 69.5957 8.42773 69.7207 8.18945V5.46484C69.5957 5.23047 69.4297 5.04492 69.2227 4.9082C69.0195 4.76758 68.7617 4.69727 68.4492 4.69727C68.1875 4.69727 67.9629 4.75195 67.7754 4.86133C67.5918 4.9707 67.4434 5.12109 67.3301 5.3125C67.209 5.50391 67.1211 5.72656 67.0664 5.98047C67.0117 6.23047 66.9844 6.49805 66.9844 6.7832V6.90625ZM75.9375 10.1172C75.4688 10.1172 75.0391 10.0391 74.6484 9.88281C74.2617 9.72656 73.9297 9.50977 73.6523 9.23242C73.375 8.95898 73.1602 8.63672 73.0078 8.26562C72.8594 7.89062 72.7852 7.48633 72.7852 7.05273V6.8125C72.7852 6.31641 72.8633 5.86719 73.0195 5.46484C73.1758 5.0625 73.3906 4.71875 73.6641 4.43359C73.9375 4.14844 74.2539 3.92969 74.6133 3.77734C74.9766 3.62109 75.3633 3.54297 75.7734 3.54297C76.2305 3.54297 76.6348 3.62109 76.9863 3.77734C77.3379 3.92969 77.6328 4.14258 77.8711 4.41602C78.1094 4.69336 78.2891 5.02344 78.4102 5.40625C78.5312 5.78906 78.5918 6.20703 78.5918 6.66016V7.26367H74.1973V7.29297C74.2402 7.57031 74.3066 7.80273 74.3965 7.99023C74.4863 8.17773 74.6094 8.3457 74.7656 8.49414C74.9219 8.65039 75.1055 8.77148 75.3164 8.85742C75.5312 8.94336 75.7656 8.98633 76.0195 8.98633C76.3672 8.98633 76.6914 8.91992 76.9922 8.78711C77.293 8.65039 77.541 8.45703 77.7363 8.20703L78.4863 8.93359C78.2754 9.23828 77.9512 9.51172 77.5137 9.75391C77.0801 9.99609 76.5547 10.1172 75.9375 10.1172ZM75.7676 4.67969C75.5684 4.67969 75.3828 4.7168 75.2109 4.79102C75.043 4.86133 74.8926 4.96289 74.7598 5.0957C74.627 5.23242 74.5156 5.39648 74.4258 5.58789C74.3359 5.7793 74.2695 5.99609 74.2266 6.23828H77.209V6.14453C77.209 5.96094 77.1758 5.7793 77.1094 5.59961C77.043 5.41602 76.9492 5.25586 76.8281 5.11914C76.7109 4.98633 76.5625 4.88086 76.3828 4.80273C76.207 4.7207 76.002 4.67969 75.7676 4.67969ZM82.2598 10L79.7637 3.66016H81.2168L82.7871 8.25977L82.8809 8.68164L82.9746 8.25977L84.5273 3.66016H85.9805L83.4961 10H82.2598ZM90.3516 10.1172C89.8828 10.1172 89.4531 10.0391 89.0625 9.88281C88.6758 9.72656 88.3438 9.50977 88.0664 9.23242C87.7891 8.95898 87.5742 8.63672 87.4219 8.26562C87.2734 7.89062 87.1992 7.48633 87.1992 7.05273V6.8125C87.1992 6.31641 87.2773 5.86719 87.4336 5.46484C87.5898 5.0625 87.8047 4.71875 88.0781 4.43359C88.3516 4.14844 88.668 3.92969 89.0273 3.77734C89.3906 3.62109 89.7773 3.54297 90.1875 3.54297C90.6445 3.54297 91.0488 3.62109 91.4004 3.77734C91.752 3.92969 92.0469 4.14258 92.2852 4.41602C92.5234 4.69336 92.7031 5.02344 92.8242 5.40625C92.9453 5.78906 93.0059 6.20703 93.0059 6.66016V7.26367H88.6113V7.29297C88.6543 7.57031 88.7207 7.80273 88.8105 7.99023C88.9004 8.17773 89.0234 8.3457 89.1797 8.49414C89.3359 8.65039 89.5195 8.77148 89.7305 8.85742C89.9453 8.94336 90.1797 8.98633 90.4336 8.98633C90.7812 8.98633 91.1055 8.91992 91.4062 8.78711C91.707 8.65039 91.9551 8.45703 92.1504 8.20703L92.9004 8.93359C92.6895 9.23828 92.3652 9.51172 91.9277 9.75391C91.4941 9.99609 90.9688 10.1172 90.3516 10.1172ZM90.1816 4.67969C89.9824 4.67969 89.7969 4.7168 89.625 4.79102C89.457 4.86133 89.3066 4.96289 89.1738 5.0957C89.041 5.23242 88.9297 5.39648 88.8398 5.58789C88.75 5.7793 88.6836 5.99609 88.6406 6.23828H91.623V6.14453C91.623 5.96094 91.5898 5.7793 91.5234 5.59961C91.457 5.41602 91.3633 5.25586 91.2422 5.11914C91.125 4.98633 90.9766 4.88086 90.7969 4.80273C90.6211 4.7207 90.416 4.67969 90.1816 4.67969ZM94.8691 1H98.2852V8.83984H100.207V10H94.8691V8.83984H96.873V2.16602H94.8691V1ZM101.549 6.77148C101.549 6.31055 101.615 5.88477 101.748 5.49414C101.881 5.09961 102.074 4.75781 102.328 4.46875C102.578 4.17969 102.885 3.95312 103.248 3.78906C103.611 3.625 104.025 3.54297 104.49 3.54297C104.955 3.54297 105.369 3.625 105.732 3.78906C106.1 3.95312 106.41 4.17969 106.664 4.46875C106.914 4.75781 107.105 5.09961 107.238 5.49414C107.371 5.88477 107.438 6.31055 107.438 6.77148V6.89453C107.438 7.35938 107.371 7.78711 107.238 8.17773C107.105 8.56836 106.914 8.9082 106.664 9.19727C106.414 9.48633 106.105 9.71289 105.738 9.87695C105.375 10.041 104.963 10.123 104.502 10.123C104.037 10.123 103.621 10.041 103.254 9.87695C102.887 9.71289 102.578 9.48633 102.328 9.19727C102.074 8.9082 101.881 8.56836 101.748 8.17773C101.615 7.78711 101.549 7.35938 101.549 6.89453V6.77148ZM102.949 6.89453C102.949 7.17969 102.979 7.44922 103.037 7.70312C103.1 7.95703 103.195 8.17969 103.324 8.37109C103.449 8.5625 103.609 8.71484 103.805 8.82812C104 8.9375 104.232 8.99219 104.502 8.99219C104.764 8.99219 104.992 8.9375 105.188 8.82812C105.383 8.71484 105.543 8.5625 105.668 8.37109C105.793 8.17969 105.885 7.95703 105.943 7.70312C106.006 7.44922 106.037 7.17969 106.037 6.89453V6.77148C106.037 6.49414 106.006 6.22852 105.943 5.97461C105.881 5.7207 105.789 5.49805 105.668 5.30664C105.539 5.11523 105.377 4.96289 105.182 4.84961C104.99 4.73633 104.76 4.67969 104.49 4.67969C104.225 4.67969 103.994 4.73633 103.799 4.84961C103.607 4.96289 103.449 5.11523 103.324 5.30664C103.195 5.49805 103.1 5.7207 103.037 5.97461C102.979 6.22852 102.949 6.49414 102.949 6.77148V6.89453ZM109.025 12.4375V3.66016H110.314L110.367 4.31055C110.453 4.20508 110.547 4.10938 110.648 4.02344C110.75 3.9375 110.859 3.86328 110.977 3.80078C111.129 3.71875 111.297 3.65625 111.48 3.61328C111.664 3.56641 111.859 3.54297 112.066 3.54297C112.473 3.54297 112.83 3.62109 113.139 3.77734C113.451 3.93359 113.713 4.1543 113.924 4.43945C114.131 4.72461 114.289 5.06641 114.398 5.46484C114.508 5.85938 114.562 6.29492 114.562 6.77148V6.89453C114.562 7.35156 114.508 7.77734 114.398 8.17188C114.293 8.56641 114.135 8.90625 113.924 9.19141C113.713 9.48047 113.453 9.70703 113.145 9.87109C112.836 10.0352 112.482 10.1172 112.084 10.1172C111.857 10.1172 111.648 10.0938 111.457 10.0469C111.27 10 111.096 9.93164 110.936 9.8418C110.842 9.78711 110.752 9.72461 110.666 9.6543C110.58 9.58398 110.5 9.50781 110.426 9.42578V12.4375H109.025ZM113.162 6.77148C113.162 6.48633 113.133 6.21875 113.074 5.96875C113.02 5.71484 112.934 5.49414 112.816 5.30664C112.695 5.11914 112.541 4.9707 112.354 4.86133C112.166 4.75195 111.941 4.69727 111.68 4.69727C111.535 4.69727 111.4 4.71289 111.275 4.74414C111.15 4.77539 111.039 4.82031 110.941 4.87891C110.828 4.94141 110.729 5.01953 110.643 5.11328C110.561 5.20703 110.488 5.3125 110.426 5.42969V8.24805C110.48 8.35742 110.547 8.45703 110.625 8.54688C110.703 8.63672 110.793 8.71484 110.895 8.78125C111 8.84375 111.119 8.89453 111.252 8.93359C111.385 8.96875 111.531 8.98633 111.691 8.98633C111.953 8.98633 112.176 8.93164 112.359 8.82227C112.547 8.70898 112.699 8.55664 112.816 8.36523C112.938 8.16992 113.025 7.94727 113.08 7.69727C113.135 7.44336 113.162 7.17578 113.162 6.89453V6.77148ZM119.18 10.1172C118.711 10.1172 118.281 10.0391 117.891 9.88281C117.504 9.72656 117.172 9.50977 116.895 9.23242C116.617 8.95898 116.402 8.63672 116.25 8.26562C116.102 7.89062 116.027 7.48633 116.027 7.05273V6.8125C116.027 6.31641 116.105 5.86719 116.262 5.46484C116.418 5.0625 116.633 4.71875 116.906 4.43359C117.18 4.14844 117.496 3.92969 117.855 3.77734C118.219 3.62109 118.605 3.54297 119.016 3.54297C119.473 3.54297 119.877 3.62109 120.229 3.77734C120.58 3.92969 120.875 4.14258 121.113 4.41602C121.352 4.69336 121.531 5.02344 121.652 5.40625C121.773 5.78906 121.834 6.20703 121.834 6.66016V7.26367H117.439V7.29297C117.482 7.57031 117.549 7.80273 117.639 7.99023C117.729 8.17773 117.852 8.3457 118.008 8.49414C118.164 8.65039 118.348 8.77148 118.559 8.85742C118.773 8.94336 119.008 8.98633 119.262 8.98633C119.609 8.98633 119.934 8.91992 120.234 8.78711C120.535 8.65039 120.783 8.45703 120.979 8.20703L121.729 8.93359C121.518 9.23828 121.193 9.51172 120.756 9.75391C120.322 9.99609 119.797 10.1172 119.18 10.1172ZM119.01 4.67969C118.811 4.67969 118.625 4.7168 118.453 4.79102C118.285 4.86133 118.135 4.96289 118.002 5.0957C117.869 5.23242 117.758 5.39648 117.668 5.58789C117.578 5.7793 117.512 5.99609 117.469 6.23828H120.451V6.14453C120.451 5.96094 120.418 5.7793 120.352 5.59961C120.285 5.41602 120.191 5.25586 120.07 5.11914C119.953 4.98633 119.805 4.88086 119.625 4.80273C119.449 4.7207 119.244 4.67969 119.01 4.67969ZM127.811 3.54297C128.037 3.54297 128.256 3.55859 128.467 3.58984C128.682 3.62109 128.85 3.6582 128.971 3.70117L128.771 5.08398C128.557 5.03711 128.344 5.00195 128.133 4.97852C127.926 4.95508 127.719 4.94336 127.512 4.94336C127.277 4.94336 127.066 4.9668 126.879 5.01367C126.691 5.06055 126.525 5.13281 126.381 5.23047C126.225 5.32422 126.092 5.44336 125.982 5.58789C125.873 5.73242 125.781 5.89844 125.707 6.08594V10H124.307V3.66016H125.619L125.678 4.53906L125.684 4.68555C125.941 4.33008 126.25 4.05078 126.609 3.84766C126.973 3.64453 127.373 3.54297 127.811 3.54297Z" fill="#E15544"/>
</svg>
